SplineFontDB: 3.0
FontName: Luna-Regular
FullName: Luna Regular
FamilyName: Luna
Weight: Regular
Copyright: Copyright (c) 2013 - 2016, Juan Pablo del Peral [huertatipografica.com.ar], Cristiano Sobral [cssobral2013@gmail.com].
Version: 1.501;PS 001.000;hotconv 1.0.70;makeotf.lib2.5.58329 DEVELOPMENT
ItalicAngle: 0
UnderlinePosition: -295
UnderlineWidth: 81
Ascent: 1638
Descent: 410
sfntRevision: 0x00010000
LayerCount: 2
Layer: 0 1 "Back"  1
Layer: 1 1 "Fore"  0
XUID: [1021 633 1153022450 12426578]
FSType: 4
OS2Version: 3
OS2_WeightWidthSlopeOnly: 0
OS2_UseTypoMetrics: 1
CreationTime: 1386077539
ModificationTime: 1462127996
PfmFamily: 81
TTFWeight: 400
TTFWidth: 5
LineGap: 0
VLineGap: 0
Panose: 0 0 5 0 0 0 0 0 0 0
OS2TypoAscent: 1638
OS2TypoAOffset: 0
OS2TypoDescent: -410
OS2TypoDOffset: 0
OS2TypoLinegap: 0
OS2WinAscent: 2289
OS2WinAOffset: 0
OS2WinDescent: 641
OS2WinDOffset: 0
HheadAscent: 2289
HheadAOffset: 0
HheadDescent: -641
HheadDOffset: 0
OS2SubXSize: 1331
OS2SubYSize: 1229
OS2SubXOff: 0
OS2SubYOff: 154
OS2SupXSize: 1331
OS2SupYSize: 1229
OS2SupXOff: 0
OS2SupYOff: 717
OS2StrikeYSize: 82
OS2StrikeYPos: 561
OS2Vendor: 'UKWN'
OS2CodePages: 20000193.00000000
OS2UnicodeRanges: 20000007.00000000.00000000.00000000
Lookup: 1 0 0 "'aalt' Access All Alternates lookup 0"  {"'aalt' Access All Alternates lookup 0 subtable"  } ['aalt' ('DFLT' <'dflt' > 'grek' <'dflt' > 'latn' <'CAT ' 'ESP ' 'MOL ' 'NLD ' 'ROM ' 'TRK ' 'dflt' > ) ]
Lookup: 3 0 0 "'aalt' Access All Alternates lookup 1"  {"'aalt' Access All Alternates lookup 1 subtable"  } ['aalt' ('DFLT' <'dflt' > 'grek' <'dflt' > 'latn' <'CAT ' 'ESP ' 'MOL ' 'NLD ' 'ROM ' 'TRK ' 'dflt' > ) ]
Lookup: 6 0 0 "'locl' Localized Forms in Latin lookup 2"  {"'locl' Localized Forms in Latin lookup 2 contextual 0"  "'locl' Localized Forms in Latin lookup 2 contextual 1"  } ['locl' ('latn' <'CAT ' > ) ]

StartChar: exclam
Encoding: 33 33 4
Width: 586
GlyphClass: 2
Flags: W
LayerCount: 2
Fore
SplineSet
403 1491 m 1,0,-1
 353 500 l 1,1,-1
 245 488 l 1,2,-1
 225 510 l 1,3,-1
 225 1484 l 1,4,-1
 243 1508 l 1,5,-1
 383 1514 l 1,6,-1
 403 1491 l 1,0,-1
276 202 m 0,7,8
 322 202 322 202 348 174.5 c 128,-1,9
 374 147 374 147 374 99 c 0,10,11
 374 49 374 49 345.5 19 c 128,-1,12
 317 -11 317 -11 269 -11 c 0,13,14
 219 -11 219 -11 192 16.5 c 128,-1,15
 165 44 165 44 165 94 c 0,16,17
 165 142 165 142 195 172 c 128,-1,18
 225 202 225 202 276 202 c 0,7,8
EndSplineSet
EndChar

StartChar: quotedbl
Encoding: 34 34 5
Width: 641
GlyphClass: 2
Flags: W
LayerCount: 2
Fore
SplineSet
284 1449 m 1,0,-1
 230 1030 l 1,1,-1
 136 1016 l 1,2,-1
 119 1033 l 1,3,-1
 131 1454 l 1,4,-1
 271 1466 l 1,5,-1
 284 1449 l 1,0,-1
545 1449 m 1,6,-1
 491 1030 l 1,7,-1
 396 1016 l 1,8,-1
 383 1033 l 1,9,-1
 392 1454 l 1,10,-1
 532 1466 l 1,11,-1
 545 1449 l 1,6,-1
EndSplineSet
EndChar

StartChar: numbersign
Encoding: 35 35 6
Width: 1182
GlyphClass: 2
Flags: W
LayerCount: 2
Fore
SplineSet
860 838 m 1,0,-1
 801 571 l 1,1,-1
 1044 571 l 1,2,-1
 1055 558 l 1,3,-1
 1046 459 l 1,4,-1
 775 459 l 1,5,-1
 688 74 l 1,6,-1
 582 74 l 1,7,-1
 571 90 l 1,8,-1
 654 459 l 1,9,-1
 401 459 l 1,10,-1
 317 74 l 1,11,-1
 208 74 l 1,12,-1
 197 90 l 1,13,-1
 280 459 l 1,14,-1
 59 459 l 1,15,-1
 46 470 l 1,16,-1
 55 571 l 1,17,-1
 305 571 l 1,18,-1
 365 838 l 1,19,-1
 140 838 l 1,20,-1
 127 851 l 1,21,-1
 136 950 l 1,22,-1
 390 950 l 1,23,-1
 473 1317 l 1,24,-1
 578 1317 l 1,25,-1
 589 1298 l 1,26,-1
 512 950 l 1,27,-1
 762 950 l 1,28,-1
 844 1317 l 1,29,-1
 950 1317 l 1,30,-1
 963 1298 l 1,31,-1
 886 950 l 1,32,-1
 1124 950 l 1,33,-1
 1138 936 l 1,34,-1
 1127 838 l 1,35,-1
 860 838 l 1,0,-1
738 838 m 1,36,-1
 486 838 l 1,37,-1
 427 571 l 1,38,-1
 679 571 l 1,39,-1
 738 838 l 1,36,-1
EndSplineSet
EndChar

StartChar: dollar
Encoding: 36 36 7
Width: 994
GlyphClass: 2
Flags: W
LayerCount: 2
Fore
SplineSet
860 319 m 0,0,1
 860 260 860 260 836.5 205 c 128,-1,2
 813 150 813 150 770 105.5 c 128,-1,3
 727 61 727 61 660 31 c 128,-1,4
 593 1 593 1 512 -7 c 1,5,-1
 488 -296 l 1,6,-1
 399 -296 l 1,7,-1
 381 -280 l 1,8,-1
 401 -9 l 1,9,10
 240 -1 240 -1 110 64 c 1,11,-1
 129 225 l 1,12,-1
 149 232 l 1,13,14
 202 181 202 181 272 150 c 128,-1,15
 342 119 342 119 411 110 c 1,16,-1
 445 519 l 1,17,18
 406 535 406 535 380.5 547 c 128,-1,19
 355 559 355 559 319.5 577.5 c 128,-1,20
 284 596 284 596 261.5 613 c 128,-1,21
 239 630 239 630 213.5 654.5 c 128,-1,22
 188 679 188 679 173.5 704 c 128,-1,23
 159 729 159 729 149.5 762 c 128,-1,24
 140 795 140 795 140 832 c 0,25,26
 140 958 140 958 236.5 1046.5 c 128,-1,27
 333 1135 333 1135 495 1147 c 1,28,-1
 521 1473 l 1,29,-1
 610 1473 l 1,30,-1
 631 1454 l 1,31,-1
 606 1147 l 1,32,33
 721 1136 721 1136 825 1094 c 1,34,-1
 799 948 l 1,35,-1
 773 941 l 1,36,37
 690 1005 690 1005 596 1023 c 1,38,-1
 564 628 l 1,39,40
 601 613 601 613 627.5 600.5 c 128,-1,41
 654 588 654 588 687 570 c 128,-1,42
 720 552 720 552 743 535 c 128,-1,43
 766 518 766 518 789.5 494 c 128,-1,44
 813 470 813 470 827.5 445 c 128,-1,45
 842 420 842 420 851 387.5 c 128,-1,46
 860 355 860 355 860 319 c 0,0,1
289 851 m 256,47,48
 289 821 289 821 301.5 795 c 128,-1,49
 314 769 314 769 338.5 747.5 c 128,-1,50
 363 726 363 726 391.5 709 c 128,-1,51
 420 692 420 692 459 674 c 1,52,-1
 486 1028 l 1,53,54
 440 1023 440 1023 402 1006 c 128,-1,55
 364 989 364 989 340 964 c 128,-1,56
 316 939 316 939 302.5 910 c 128,-1,57
 289 881 289 881 289 851 c 256,47,48
551 470 m 1,58,-1
 521 110 l 1,59,60
 578 120 578 120 621.5 148 c 128,-1,61
 665 176 665 176 688 214 c 128,-1,62
 711 252 711 252 711 293 c 0,63,64
 711 352 711 352 670 392.5 c 128,-1,65
 629 433 629 433 551 470 c 1,58,-1
EndSplineSet
EndChar

StartChar: percent
Encoding: 37 37 8
Width: 1889
GlyphClass: 2
Flags: W
LayerCount: 2
Fore
SplineSet
1477 1510 m 1,0,-1
 1491 1477 l 1,1,-1
 409 -208 l 1,2,-1
 328 -162 l 1,3,-1
 317 -136 l 1,4,-1
 1397 1556 l 1,5,-1
 1477 1510 l 1,0,-1
440 1480 m 0,6,7
 596 1480 596 1480 680 1378 c 128,-1,8
 764 1276 764 1276 764 1085 c 0,9,10
 764 882 764 882 675 775 c 128,-1,11
 586 668 586 668 418 668 c 0,12,13
 261 668 261 668 176.5 770 c 128,-1,14
 92 872 92 872 92 1064 c 0,15,16
 92 1266 92 1266 181.5 1373 c 128,-1,17
 271 1480 271 1480 440 1480 c 0,6,7
427 1346 m 0,18,19
 221 1346 221 1346 221 1076 c 0,20,21
 221 794 221 794 429 794 c 128,-1,22
 637 794 637 794 637 1066 c 0,23,24
 637 1346 637 1346 427 1346 c 0,18,19
1473 801 m 0,25,26
 1629 801 1629 801 1712.5 699.5 c 128,-1,27
 1796 598 1796 598 1796 409 c 0,28,29
 1796 204 1796 204 1707 97.5 c 128,-1,30
 1618 -9 1618 -9 1449 -9 c 0,31,32
 1293 -9 1293 -9 1208.5 93 c 128,-1,33
 1124 195 1124 195 1124 385 c 0,34,35
 1124 588 1124 588 1214 694.5 c 128,-1,36
 1304 801 1304 801 1473 801 c 0,25,26
1459 668 m 0,37,38
 1252 668 1252 668 1252 396 c 0,39,40
 1252 116 1252 116 1462 116 c 0,41,42
 1565 116 1565 116 1617.5 184.5 c 128,-1,43
 1670 253 1670 253 1670 388 c 0,44,45
 1670 668 1670 668 1459 668 c 0,37,38
EndSplineSet
EndChar

StartChar: ampersand
Encoding: 38 38 9
Width: 1591
GlyphClass: 2
Flags: W
LayerCount: 2
Fore
SplineSet
1200 821 m 1,0,-1
 1195 808 l 1,1,2
 1245 674 1245 674 1245 536 c 0,3,4
 1245 389 1245 389 1191 276 c 1,5,-1
 1493 7 l 1,6,-1
 1493 -7 l 1,7,8
 1444 -60 1444 -60 1390 -87 c 1,9,-1
 1379 -85 l 1,10,-1
 1110 156 l 1,11,12
 953 -16 953 -16 656 -16 c 0,13,14
 504 -16 504 -16 387 32 c 128,-1,15
 270 80 270 80 204 172 c 128,-1,16
 138 264 138 264 138 388 c 0,17,18
 138 640 138 640 401 775 c 1,19,-1
 401 786 l 1,20,21
 317 867 317 867 279 946.5 c 128,-1,22
 241 1026 241 1026 241 1121 c 0,23,24
 241 1291 241 1291 354.5 1387.5 c 128,-1,25
 468 1484 468 1484 679 1484 c 0,26,27
 867 1484 867 1484 1039 1401 c 1,28,-1
 996 1266 l 1,29,-1
 970 1266 l 1,30,31
 830 1351 830 1351 674 1351 c 0,32,33
 540 1351 540 1351 469.5 1288 c 128,-1,34
 399 1225 399 1225 399 1110 c 0,35,36
 399 1038 399 1038 432 978 c 128,-1,37
 465 918 465 918 548 849 c 1,38,-1
 1088 367 l 1,39,40
 1121 450 1121 450 1121 556 c 0,41,42
 1121 693 1121 693 1057 821 c 1,43,-1
 897 821 l 1,44,-1
 886 834 l 1,45,-1
 899 954 l 1,46,-1
 1556 954 l 1,47,-1
 1569 939 l 1,48,-1
 1552 821 l 1,49,-1
 1200 821 l 1,0,-1
674 116 m 0,50,51
 890 116 890 116 1009 243 c 1,52,-1
 486 711 l 1,53,54
 395 660 395 660 344 585 c 128,-1,55
 293 510 293 510 293 416 c 0,56,57
 293 276 293 276 398 196 c 128,-1,58
 503 116 503 116 674 116 c 0,50,51
EndSplineSet
EndChar

StartChar: quotesingle
Encoding: 39 39 10
Width: 379
GlyphClass: 2
Flags: W
LayerCount: 2
Fore
SplineSet
284 1449 m 1,0,-1
 230 1030 l 1,1,-1
 136 1016 l 1,2,-1
 119 1033 l 1,3,-1
 131 1454 l 1,4,-1
 271 1466 l 1,5,-1
 284 1449 l 1,0,-1
EndSplineSet
Substitution2: "'locl' Localized Forms in Latin lookup 12 subtable" puso
Substitution2: "'locl' Localized Forms in Latin lookup 10 subtable" puso
Substitution2: "'aalt' Access All Alternates lookup 0 subtable" puso
EndChar

StartChar: parenleft
Encoding: 40 40 11
Width: 659
GlyphClass: 2
Flags: W
LayerCount: 2
Fore
SplineSet
650 1459 m 1,0,-1
 650 1440 l 1,1,2
 482 1307 482 1307 410.5 1110.5 c 128,-1,3
 339 914 339 914 337 589 c 1,4,5
 339 271 339 271 410.5 79 c 128,-1,6
 482 -113 482 -113 650 -245 c 1,7,-1
 650 -264 l 1,8,-1
 582 -324 l 1,9,-1
 567 -324 l 1,10,11
 364 -178 364 -178 277 32.5 c 128,-1,12
 190 243 190 243 188 587 c 1,13,14
 190 942 190 942 277 1157.5 c 128,-1,15
 364 1373 364 1373 567 1519 c 1,16,-1
 582 1519 l 1,17,-1
 650 1459 l 1,0,-1
EndSplineSet
EndChar

StartChar: parenright
Encoding: 41 41 12
Width: 659
GlyphClass: 2
Flags: W
LayerCount: 2
Fore
SplineSet
11 -264 m 1,0,-1
 11 -245 l 1,1,2
 179 -113 179 -113 250.5 83 c 128,-1,3
 322 279 322 279 324 606 c 1,4,5
 322 924 322 924 250.5 1115 c 128,-1,6
 179 1306 179 1306 11 1440 c 1,7,-1
 11 1459 l 1,8,-1
 78 1519 l 1,9,-1
 96 1519 l 1,10,11
 297 1373 297 1373 384 1162.5 c 128,-1,12
 471 952 471 952 473 608 c 1,13,14
 471 253 471 253 384.5 37.5 c 128,-1,15
 298 -178 298 -178 96 -324 c 1,16,-1
 78 -324 l 1,17,-1
 11 -264 l 1,0,-1
EndSplineSet
EndChar

StartChar: asterisk
Encoding: 42 42 13
Width: 856
GlyphClass: 2
Flags: W
LayerCount: 2
Fore
SplineSet
516 1668 m 1,0,-1
 466 1392 l 1,1,-1
 388 1383 l 1,2,-1
 376 1399 l 1,3,-1
 372 1661 l 1,4,5
 437 1681 437 1681 510 1681 c 1,6,-1
 516 1668 l 1,0,-1
342 1365 m 1,7,-1
 330 1289 l 1,8,-1
 315 1280 l 1,9,-1
 83 1357 l 1,10,11
 83 1448 83 1448 101 1497 c 1,12,-1
 116 1502 l 1,13,-1
 342 1365 l 1,7,-1
503 1370 m 1,14,-1
 731 1452 l 1,15,16
 782 1368 782 1368 794 1328 c 1,17,-1
 782 1317 l 1,18,-1
 528 1280 l 1,19,-1
 493 1348 l 1,20,-1
 503 1370 l 1,14,-1
519 1232 m 1,21,-1
 659 1025 l 1,22,23
 632 975 632 975 564 924 c 1,24,-1
 545 926 l 1,25,-1
 440 1186 l 1,26,-1
 495 1236 l 1,27,-1
 519 1232 l 1,21,-1
396 1197 m 1,28,-1
 394 1177 l 1,29,-1
 264 963 l 1,30,31
 221 977 221 977 138 1028 c 1,32,-1
 138 1042 l 1,33,-1
 328 1234 l 1,34,-1
 396 1197 l 1,28,-1
EndSplineSet
EndChar

StartChar: plus
Encoding: 43 43 14
Width: 1100
GlyphClass: 2
Flags: W
LayerCount: 2
Fore
SplineSet
615 1073 m 1,0,-1
 615 672 l 1,1,-1
 1016 672 l 1,2,-1
 1030 659 l 1,3,-1
 1018 543 l 1,4,-1
 615 543 l 1,5,-1
 615 138 l 1,6,-1
 500 129 l 1,7,-1
 486 142 l 1,8,-1
 486 543 l 1,9,-1
 85 543 l 1,10,-1
 71 558 l 1,11,-1
 83 672 l 1,12,-1
 486 672 l 1,13,-1
 486 1079 l 1,14,-1
 601 1090 l 1,15,-1
 615 1073 l 1,0,-1
EndSplineSet
EndChar

StartChar: comma
Encoding: 44 44 15
Width: 524
GlyphClass: 2
Flags: W
LayerCount: 2
Fore
SplineSet
291 199 m 1,0,1
 388 138 388 138 388 46 c 0,2,3
 388 -104 388 -104 172 -261 c 1,4,-1
 110 -204 l 1,5,-1
 110 -188 l 1,6,7
 236 -91 236 -91 236 13 c 0,8,9
 236 75 236 75 165 122 c 1,10,-1
 165 140 l 1,11,12
 228 184 228 184 291 199 c 1,0,1
EndSplineSet
EndChar

StartChar: hyphen
Encoding: 45 45 16
Width: 703
GlyphClass: 2
Flags: W
LayerCount: 2
Fore
SplineSet
637 672 m 1,0,-1
 637 558 l 1,1,-1
 85 477 l 1,2,-1
 66 495 l 1,3,-1
 66 610 l 1,4,-1
 622 688 l 1,5,-1
 637 672 l 1,0,-1
EndSplineSet
EndChar

StartChar: period
Encoding: 46 46 17
Width: 524
GlyphClass: 2
Flags: W
LayerCount: 2
Fore
SplineSet
267 202 m 0,0,1
 313 202 313 202 340 174 c 128,-1,2
 367 146 367 146 367 99 c 0,3,4
 367 49 367 49 337.5 19 c 128,-1,5
 308 -11 308 -11 259 -11 c 0,6,7
 211 -11 211 -11 184.5 16.5 c 128,-1,8
 158 44 158 44 158 94 c 0,9,10
 158 142 158 142 187.5 172 c 128,-1,11
 217 202 217 202 267 202 c 0,0,1
EndSplineSet
EndChar

StartChar: slash
Encoding: 47 47 18
Width: 657
GlyphClass: 2
Flags: W
LayerCount: 2
Fore
SplineSet
661 1534 m 1,0,-1
 190 -259 l 1,1,-1
 64 -259 l 1,2,-1
 50 -241 l 1,3,-1
 521 1556 l 1,4,-1
 647 1556 l 1,5,-1
 661 1534 l 1,0,-1
EndSplineSet
Substitution2: "'frac' Diagonal Fractions lookup 19 subtable" fraction
Substitution2: "'aalt' Access All Alternates lookup 0 subtable" fraction
EndChar

StartChar: zero
Encoding: 48 48 19
Width: 1088
GlyphClass: 2
Flags: W
LayerCount: 2
Fore
SplineSet
558 1355 m 0,0,1
 769 1355 769 1355 883.5 1181 c 128,-1,2
 998 1007 998 1007 998 683 c 0,3,4
 998 346 998 346 878 165 c 128,-1,5
 758 -16 758 -16 534 -16 c 0,6,7
 321 -16 321 -16 206.5 158.5 c 128,-1,8
 92 333 92 333 92 659 c 0,9,10
 92 993 92 993 213 1174 c 128,-1,11
 334 1355 334 1355 558 1355 c 0,0,1
541 1186 m 0,12,13
 390 1186 390 1186 312 1055 c 128,-1,14
 234 924 234 924 234 672 c 0,15,16
 234 413 234 413 312.5 278.5 c 128,-1,17
 391 144 391 144 545 144 c 0,18,19
 697 144 697 144 775 276 c 128,-1,20
 853 408 853 408 853 661 c 0,21,22
 853 832 853 832 817.5 949.5 c 128,-1,23
 782 1067 782 1067 712.5 1126.5 c 128,-1,24
 643 1186 643 1186 541 1186 c 0,12,13
EndSplineSet
Substitution2: "'case' Case-Sensitive Forms lookup 28 subtable" zero.lf
Substitution2: "'tnum' Tabular Numbers lookup 25 subtable" zero.tosf
Substitution2: "'lnum' Lining Figures lookup 23 subtable" zero.lf
Substitution2: "'frac' Diagonal Fractions lookup 20 subtable" zero.numr
Substitution2: "'dnom' Denominators lookup 18 subtable" zero.dnom
Substitution2: "'numr' Numerators lookup 17 subtable" zero.numr
Substitution2: "'sups' Superscript lookup 16 subtable" zerosuperior
Substitution2: "'sinf' Scientific Inferiors lookup 15 subtable" zero.sinf
AlternateSubs2: "'aalt' Access All Alternates lookup 1 subtable" zero.sinf zerosuperior zero.numr zero.dnom zero.lf zero.tosf
EndChar

StartChar: one
Encoding: 49 49 20
Width: 1088
GlyphClass: 2
Flags: W
LayerCount: 2
Fore
SplineSet
676 1340 m 1,0,-1
 663 475 l 1,1,-1
 674 0 l 1,2,-1
 491 0 l 1,3,-1
 500 451 l 1,4,-1
 497 1151 l 1,5,-1
 110 1066 l 1,6,-1
 92 1079 l 1,7,-1
 92 1223 l 1,8,-1
 647 1363 l 1,9,-1
 676 1340 l 1,0,-1
EndSplineSet
Substitution2: "'ss02' Style Set 2 lookup 36 subtable" arrowleft
Substitution2: "'case' Case-Sensitive Forms lookup 28 subtable" one.lf
Substitution2: "'tnum' Tabular Numbers lookup 25 subtable" one.tosf
Substitution2: "'lnum' Lining Figures lookup 23 subtable" one.lf
Substitution2: "'frac' Diagonal Fractions lookup 20 subtable" one.numr
Substitution2: "'dnom' Denominators lookup 18 subtable" one.dnom
Substitution2: "'numr' Numerators lookup 17 subtable" one.numr
Substitution2: "'sups' Superscript lookup 16 subtable" onesuperior
Substitution2: "'sinf' Scientific Inferiors lookup 15 subtable" one.sinf
AlternateSubs2: "'aalt' Access All Alternates lookup 1 subtable" one.sinf onesuperior one.numr one.dnom one.lf one.tosf arrowleft
EndChar

StartChar: two
Encoding: 50 50 21
Width: 1088
GlyphClass: 2
Flags: W
LayerCount: 2
Fore
SplineSet
551 1357 m 0,0,1
 647 1357 647 1357 722 1321 c 128,-1,2
 797 1285 797 1285 840 1217.5 c 128,-1,3
 883 1150 883 1150 883 1062 c 0,4,5
 883 957 883 957 816 832 c 128,-1,6
 749 707 749 707 596 505 c 1,7,-1
 339 156 l 1,8,-1
 344 147 l 1,9,-1
 814 147 l 1,10,-1
 1025 153 l 1,11,-1
 1037 138 l 1,12,-1
 1014 -9 l 1,13,-1
 766 0 l 1,14,-1
 208 0 l 1,15,-1
 116 -4 l 1,16,-1
 105 4 l 1,17,-1
 105 122 l 1,18,-1
 442 553 l 1,19,20
 495 623 495 623 519 655.5 c 128,-1,21
 543 688 543 688 581 741.5 c 128,-1,22
 619 795 619 795 636 824.5 c 128,-1,23
 653 854 653 854 672.5 893 c 128,-1,24
 692 932 692 932 699.5 962 c 128,-1,25
 707 992 707 992 707 1020 c 0,26,27
 707 1058 707 1058 694 1090 c 128,-1,28
 681 1122 681 1122 656.5 1146.5 c 128,-1,29
 632 1171 632 1171 594.5 1185.5 c 128,-1,30
 557 1200 557 1200 510 1200 c 0,31,32
 422 1200 422 1200 334 1150 c 128,-1,33
 246 1100 246 1100 172 1009 c 1,34,-1
 151 1009 l 1,35,-1
 122 1151 l 1,36,37
 213 1248 213 1248 324 1302.5 c 128,-1,38
 435 1357 435 1357 551 1357 c 0,0,1
EndSplineSet
Substitution2: "'ss02' Style Set 2 lookup 36 subtable" arrowup
Substitution2: "'case' Case-Sensitive Forms lookup 28 subtable" two.lf
Substitution2: "'tnum' Tabular Numbers lookup 25 subtable" two.tosf
Substitution2: "'lnum' Lining Figures lookup 23 subtable" two.lf
Substitution2: "'frac' Diagonal Fractions lookup 20 subtable" two.numr
Substitution2: "'dnom' Denominators lookup 18 subtable" two.dnom
Substitution2: "'numr' Numerators lookup 17 subtable" two.numr
Substitution2: "'sups' Superscript lookup 16 subtable" twosuperior
Substitution2: "'sinf' Scientific Inferiors lookup 15 subtable" two.sinf
AlternateSubs2: "'aalt' Access All Alternates lookup 1 subtable" two.sinf twosuperior two.numr two.dnom two.lf two.tosf arrowup
EndChar

StartChar: three
Encoding: 51 51 22
Width: 1088
GlyphClass: 2
Flags: W
LayerCount: 2
Fore
SplineSet
500 1365 m 0,0,1
 661 1365 661 1365 761.5 1283.5 c 128,-1,2
 862 1202 862 1202 862 1071 c 0,3,4
 862 974 862 974 800 882.5 c 128,-1,5
 738 791 738 791 619 731 c 1,6,-1
 619 722 l 1,7,8
 764 690 764 690 838.5 613.5 c 128,-1,9
 913 537 913 537 913 420 c 0,10,11
 913 293 913 293 845.5 194.5 c 128,-1,12
 778 96 778 96 655.5 41.5 c 128,-1,13
 533 -13 533 -13 374 -13 c 0,14,15
 263 -13 263 -13 140 7 c 1,16,-1
 129 162 l 1,17,-1
 140 177 l 1,18,19
 260 129 260 129 383 129 c 0,20,21
 543 129 543 129 642 202 c 128,-1,22
 741 275 741 275 741 396 c 0,23,24
 741 505 741 505 660.5 566.5 c 128,-1,25
 580 628 580 628 429 633 c 1,26,-1
 289 633 l 1,27,-1
 278 647 l 1,28,-1
 282 773 l 1,29,-1
 385 775 l 2,30,31
 425 775 425 775 466 787 c 128,-1,32
 507 799 507 799 544.5 822.5 c 128,-1,33
 582 846 582 846 611.5 877 c 128,-1,34
 641 908 641 908 658.5 949 c 128,-1,35
 676 990 676 990 676 1035 c 0,36,37
 676 1089 676 1089 650 1129.5 c 128,-1,38
 624 1170 624 1170 577 1191.5 c 128,-1,39
 530 1213 530 1213 468 1213 c 0,40,41
 392 1213 392 1213 321.5 1180 c 128,-1,42
 251 1147 251 1147 168 1079 c 1,43,-1
 149 1079 l 1,44,-1
 122 1221 l 1,45,46
 305 1365 305 1365 500 1365 c 0,0,1
EndSplineSet
Substitution2: "'ss02' Style Set 2 lookup 36 subtable" arrowright
Substitution2: "'case' Case-Sensitive Forms lookup 28 subtable" three.lf
Substitution2: "'tnum' Tabular Numbers lookup 25 subtable" three.tosf
Substitution2: "'lnum' Lining Figures lookup 23 subtable" three.lf
Substitution2: "'frac' Diagonal Fractions lookup 20 subtable" three.numr
Substitution2: "'dnom' Denominators lookup 18 subtable" three.dnom
Substitution2: "'numr' Numerators lookup 17 subtable" three.numr
Substitution2: "'sups' Superscript lookup 16 subtable" threesuperior
Substitution2: "'sinf' Scientific Inferiors lookup 15 subtable" three.sinf
AlternateSubs2: "'aalt' Access All Alternates lookup 1 subtable" three.sinf threesuperior three.numr three.dnom three.lf three.tosf arrowright
EndChar

StartChar: four
Encoding: 52 52 23
Width: 1088
GlyphClass: 2
Flags: W
LayerCount: 2
Fore
SplineSet
786 385 m 1,0,-1
 784 385 l 1,1,-1
 792 16 l 1,2,-1
 780 0 l 1,3,-1
 640 -11 l 1,4,-1
 628 2 l 1,5,-1
 633 385 l 1,6,-1
 221 385 l 1,7,-1
 74 381 l 1,8,-1
 59 396 l 1,9,-1
 59 516 l 1,10,-1
 619 1344 l 1,11,-1
 784 1344 l 1,12,-1
 782 525 l 1,13,-1
 991 525 l 1,14,-1
 1005 510 l 1,15,-1
 993 381 l 1,16,-1
 786 385 l 1,0,-1
223 525 m 1,17,-1
 635 525 l 1,18,-1
 635 1124 l 1,19,-1
 619 1124 l 1,20,-1
 223 525 l 1,17,-1
EndSplineSet
Substitution2: "'ss02' Style Set 2 lookup 36 subtable" arrowdown
Substitution2: "'case' Case-Sensitive Forms lookup 28 subtable" four.lf
Substitution2: "'tnum' Tabular Numbers lookup 25 subtable" four.tosf
Substitution2: "'lnum' Lining Figures lookup 23 subtable" four.lf
Substitution2: "'frac' Diagonal Fractions lookup 20 subtable" four.numr
Substitution2: "'dnom' Denominators lookup 18 subtable" four.dnom
Substitution2: "'numr' Numerators lookup 17 subtable" four.numr
Substitution2: "'sups' Superscript lookup 16 subtable" foursuperior
Substitution2: "'sinf' Scientific Inferiors lookup 15 subtable" four.sinf
AlternateSubs2: "'aalt' Access All Alternates lookup 1 subtable" four.sinf foursuperior four.numr four.dnom four.lf four.tosf arrowdown
EndChar

StartChar: five
Encoding: 53 53 24
Width: 1088
GlyphClass: 2
Flags: W
LayerCount: 2
Fore
SplineSet
950 1340 m 1,0,-1
 931 1200 l 1,1,-1
 915 1188 l 1,2,-1
 764 1200 l 1,3,-1
 365 1200 l 1,4,-1
 353 840 l 1,5,-1
 514 808 l 1,6,7
 732 761 732 761 836.5 671.5 c 128,-1,8
 941 582 941 582 941 438 c 0,9,10
 941 303 941 303 867 199.5 c 128,-1,11
 793 96 793 96 659 40 c 128,-1,12
 525 -16 525 -16 351 -16 c 0,13,14
 250 -16 250 -16 127 7 c 1,15,-1
 112 138 l 1,16,-1
 127 153 l 1,17,18
 251 127 251 127 351 127 c 0,19,20
 540 127 540 127 654 208 c 128,-1,21
 768 289 768 289 768 424 c 0,22,23
 768 519 768 519 688 578 c 128,-1,24
 608 637 608 637 436 672 c 1,25,-1
 227 713 l 1,26,-1
 211 731 l 1,27,-1
 223 1322 l 1,28,-1
 250 1348 l 1,29,-1
 383 1344 l 1,30,-1
 736 1344 l 1,31,-1
 936 1353 l 1,32,-1
 950 1340 l 1,0,-1
EndSplineSet
Substitution2: "'ss02' Style Set 2 lookup 36 subtable" arrowupleft
Substitution2: "'case' Case-Sensitive Forms lookup 28 subtable" five.lf
Substitution2: "'tnum' Tabular Numbers lookup 25 subtable" five.tosf
Substitution2: "'lnum' Lining Figures lookup 23 subtable" five.lf
Substitution2: "'frac' Diagonal Fractions lookup 20 subtable" five.numr
Substitution2: "'dnom' Denominators lookup 18 subtable" five.dnom
Substitution2: "'numr' Numerators lookup 17 subtable" five.numr
Substitution2: "'sups' Superscript lookup 16 subtable" fivesuperior
Substitution2: "'sinf' Scientific Inferiors lookup 15 subtable" five.sinf
AlternateSubs2: "'aalt' Access All Alternates lookup 1 subtable" five.sinf fivesuperior five.numr five.dnom five.lf five.tosf arrowupleft
EndChar

StartChar: six
Encoding: 54 54 25
Width: 1088
GlyphClass: 2
Flags: W
LayerCount: 2
Fore
SplineSet
615 801 m 0,0,1
 728 801 728 801 810.5 752.5 c 128,-1,2
 893 704 893 704 936 616.5 c 128,-1,3
 979 529 979 529 979 413 c 0,4,5
 979 288 979 288 927.5 191 c 128,-1,6
 876 94 876 94 773.5 38 c 128,-1,7
 671 -18 671 -18 532 -18 c 0,8,9
 322 -18 322 -18 215 112 c 128,-1,10
 108 242 108 242 108 484 c 0,11,12
 108 775 108 775 285 1004 c 128,-1,13
 462 1233 462 1233 786 1363 c 1,14,-1
 799 1363 l 1,15,-1
 939 1280 l 1,16,-1
 939 1261 l 1,17,18
 663 1164 663 1164 508.5 1032 c 128,-1,19
 354 900 354 900 302 716 c 1,20,-1
 317 700 l 1,21,22
 453 801 453 801 615 801 c 0,0,1
548 108 m 0,23,24
 673 108 673 108 744.5 180 c 128,-1,25
 816 252 816 252 816 388 c 0,26,27
 816 477 816 477 786.5 539 c 128,-1,28
 757 601 757 601 700.5 633 c 128,-1,29
 644 665 644 665 564 665 c 0,30,31
 410 665 410 665 276 548 c 1,32,-1
 273 484 l 1,33,34
 273 295 273 295 339 201.5 c 128,-1,35
 405 108 405 108 548 108 c 0,23,24
EndSplineSet
Substitution2: "'ss02' Style Set 2 lookup 36 subtable" arrowupright
Substitution2: "'case' Case-Sensitive Forms lookup 28 subtable" six.lf
Substitution2: "'tnum' Tabular Numbers lookup 25 subtable" six.tosf
Substitution2: "'lnum' Lining Figures lookup 23 subtable" six.lf
Substitution2: "'frac' Diagonal Fractions lookup 20 subtable" six.numr
Substitution2: "'dnom' Denominators lookup 18 subtable" six.dnom
Substitution2: "'numr' Numerators lookup 17 subtable" six.numr
Substitution2: "'sups' Superscript lookup 16 subtable" sixsuperior
Substitution2: "'sinf' Scientific Inferiors lookup 15 subtable" six.sinf
AlternateSubs2: "'aalt' Access All Alternates lookup 1 subtable" six.sinf sixsuperior six.numr six.dnom six.lf six.tosf arrowupright
EndChar

StartChar: seven
Encoding: 55 55 26
Width: 1088
GlyphClass: 2
Flags: W
LayerCount: 2
Fore
SplineSet
317 1344 m 1,0,-1
 878 1344 l 1,1,-1
 982 1346 l 1,2,-1
 984 1213 l 1,3,-1
 507 248 l 1,4,-1
 394 -26 l 1,5,-1
 245 18 l 1,6,-1
 236 46 l 1,7,-1
 808 1193 l 1,8,-1
 282 1193 l 1,9,-1
 103 1182 l 1,10,-1
 90 1202 l 1,11,-1
 103 1348 l 1,12,-1
 317 1344 l 1,0,-1
EndSplineSet
Substitution2: "'ss02' Style Set 2 lookup 36 subtable" arrowdownright
Substitution2: "'case' Case-Sensitive Forms lookup 28 subtable" seven.lf
Substitution2: "'tnum' Tabular Numbers lookup 25 subtable" seven.tosf
Substitution2: "'lnum' Lining Figures lookup 23 subtable" seven.lf
Substitution2: "'frac' Diagonal Fractions lookup 20 subtable" seven.numr
Substitution2: "'dnom' Denominators lookup 18 subtable" seven.dnom
Substitution2: "'numr' Numerators lookup 17 subtable" seven.numr
Substitution2: "'sups' Superscript lookup 16 subtable" sevensuperior
Substitution2: "'sinf' Scientific Inferiors lookup 15 subtable" seven.sinf
AlternateSubs2: "'aalt' Access All Alternates lookup 1 subtable" seven.sinf sevensuperior seven.numr seven.dnom seven.lf seven.tosf arrowdownright
EndChar

StartChar: eight
Encoding: 56 56 27
Width: 1088
GlyphClass: 2
Flags: W
LayerCount: 2
Fore
SplineSet
564 1357 m 0,0,1
 647 1357 647 1357 714 1335 c 128,-1,2
 781 1313 781 1313 827 1272 c 128,-1,3
 873 1231 873 1231 897.5 1171 c 128,-1,4
 922 1111 922 1111 922 1037 c 0,5,6
 922 975 922 975 903.5 924 c 128,-1,7
 885 873 885 873 850 834 c 128,-1,8
 815 795 815 795 773.5 766.5 c 128,-1,9
 732 738 732 738 676 713 c 1,10,-1
 676 702 l 1,11,12
 712 686 712 686 738.5 673.5 c 128,-1,13
 765 661 765 661 797 642 c 128,-1,14
 829 623 829 623 851.5 604 c 128,-1,15
 874 585 874 585 897 559 c 128,-1,16
 920 533 920 533 934 505 c 128,-1,17
 948 477 948 477 956.5 440.5 c 128,-1,18
 965 404 965 404 965 363 c 0,19,20
 965 190 965 190 843 87 c 128,-1,21
 721 -16 721 -16 519 -16 c 0,22,23
 328 -16 328 -16 218 79 c 128,-1,24
 108 174 108 174 108 328 c 0,25,26
 108 375 108 375 118.5 416 c 128,-1,27
 129 457 129 457 149.5 489.5 c 128,-1,28
 170 522 170 522 196 550 c 128,-1,29
 222 578 222 578 256 601 c 128,-1,30
 290 624 290 624 324 641 c 128,-1,31
 358 658 358 658 399 674 c 1,32,-1
 399 685 l 1,33,34
 357 705 357 705 324 725 c 128,-1,35
 291 745 291 745 260 774 c 128,-1,36
 229 803 229 803 208 835.5 c 128,-1,37
 187 868 187 868 174.5 912 c 128,-1,38
 162 956 162 956 162 1007 c 0,39,40
 162 1170 162 1170 273 1263.5 c 128,-1,41
 384 1357 384 1357 564 1357 c 0,0,1
553 1225 m 0,42,43
 446 1225 446 1225 380.5 1167 c 128,-1,44
 315 1109 315 1109 315 1011 c 0,45,46
 315 981 315 981 321.5 954.5 c 128,-1,47
 328 928 328 928 339.5 907 c 128,-1,48
 351 886 351 886 369 867 c 128,-1,49
 387 848 387 848 405.5 834 c 128,-1,50
 424 820 424 820 450 806 c 128,-1,51
 476 792 476 792 498.5 782 c 128,-1,52
 521 772 521 772 551 759 c 1,53,54
 601 780 601 780 637 801 c 128,-1,55
 673 822 673 822 706.5 852.5 c 128,-1,56
 740 883 740 883 757.5 925 c 128,-1,57
 775 967 775 967 775 1020 c 0,58,59
 775 1117 775 1117 716.5 1171 c 128,-1,60
 658 1225 658 1225 553 1225 c 0,42,43
523 622 m 1,61,62
 480 606 480 606 446.5 591 c 128,-1,63
 413 576 413 576 377.5 552 c 128,-1,64
 342 528 342 528 319 500 c 128,-1,65
 296 472 296 472 281.5 432.5 c 128,-1,66
 267 393 267 393 267 346 c 0,67,68
 267 241 267 241 338.5 177.5 c 128,-1,69
 410 114 410 114 534 114 c 0,70,71
 663 114 663 114 736.5 179.5 c 128,-1,72
 810 245 810 245 810 351 c 0,73,74
 810 376 810 376 804.5 399 c 128,-1,75
 799 422 799 422 791.5 440 c 128,-1,76
 784 458 784 458 769 476 c 128,-1,77
 754 494 754 494 741.5 506.5 c 128,-1,78
 729 519 729 519 706 534 c 128,-1,79
 683 549 683 549 667.5 557.5 c 128,-1,80
 652 566 652 566 623.5 579 c 128,-1,81
 595 592 595 592 579 599 c 128,-1,82
 563 606 563 606 531 618 c 1,83,84
 526 621 526 621 523 622 c 1,61,62
EndSplineSet
Substitution2: "'ss02' Style Set 2 lookup 36 subtable" arrowdownleft
Substitution2: "'case' Case-Sensitive Forms lookup 28 subtable" eight.lf
Substitution2: "'tnum' Tabular Numbers lookup 25 subtable" eight.tosf
Substitution2: "'lnum' Lining Figures lookup 23 subtable" eight.lf
Substitution2: "'frac' Diagonal Fractions lookup 20 subtable" eight.numr
Substitution2: "'dnom' Denominators lookup 18 subtable" eight.dnom
Substitution2: "'numr' Numerators lookup 17 subtable" eight.numr
Substitution2: "'sups' Superscript lookup 16 subtable" eightsuperior
Substitution2: "'sinf' Scientific Inferiors lookup 15 subtable" eight.sinf
AlternateSubs2: "'aalt' Access All Alternates lookup 1 subtable" eight.sinf eightsuperior eight.numr eight.dnom eight.lf eight.tosf arrowdownleft
EndChar

StartChar: nine
Encoding: 57 57 28
Width: 1088
GlyphClass: 2
Flags: W
LayerCount: 2
Fore
SplineSet
564 1365 m 0,0,1
 705 1365 705 1365 800.5 1305 c 128,-1,2
 896 1245 896 1245 942.5 1134 c 128,-1,3
 989 1023 989 1023 989 865 c 0,4,5
 989 572 989 572 812 343 c 128,-1,6
 635 114 635 114 312 -16 c 1,7,-1
 300 -16 l 1,8,-1
 158 66 l 1,9,-1
 158 85 l 1,10,11
 433 182 433 182 588 314.5 c 128,-1,12
 743 447 743 447 796 631 c 1,13,-1
 782 647 l 1,14,15
 641 545 641 545 484 545 c 0,16,17
 370 545 370 545 286.5 594 c 128,-1,18
 203 643 203 643 159.5 730.5 c 128,-1,19
 116 818 116 818 116 934 c 0,20,21
 116 1028 116 1028 146.5 1107 c 128,-1,22
 177 1186 177 1186 233.5 1243.5 c 128,-1,23
 290 1301 290 1301 375 1333 c 128,-1,24
 460 1365 460 1365 564 1365 c 0,0,1
532 681 m 0,25,26
 686 681 686 681 823 801 c 1,27,-1
 825 862 l 1,28,29
 825 988 825 988 796.5 1070.5 c 128,-1,30
 768 1153 768 1153 707 1196 c 128,-1,31
 646 1239 646 1239 551 1239 c 0,32,33
 423 1239 423 1239 351.5 1167 c 128,-1,34
 280 1095 280 1095 280 961 c 0,35,36
 280 826 280 826 345.5 753.5 c 128,-1,37
 411 681 411 681 532 681 c 0,25,26
EndSplineSet
Substitution2: "'case' Case-Sensitive Forms lookup 28 subtable" nine.lf
Substitution2: "'tnum' Tabular Numbers lookup 25 subtable" nine.tosf
Substitution2: "'lnum' Lining Figures lookup 23 subtable" nine.lf
Substitution2: "'frac' Diagonal Fractions lookup 20 subtable" nine.numr
Substitution2: "'dnom' Denominators lookup 18 subtable" nine.dnom
Substitution2: "'numr' Numerators lookup 17 subtable" nine.numr
Substitution2: "'sups' Superscript lookup 16 subtable" ninesuperior
Substitution2: "'sinf' Scientific Inferiors lookup 15 subtable" nine.sinf
AlternateSubs2: "'aalt' Access All Alternates lookup 1 subtable" nine.sinf ninesuperior nine.numr nine.dnom nine.lf nine.tosf
EndChar

StartChar: colon
Encoding: 58 58 29
Width: 524
GlyphClass: 2
Flags: W
LayerCount: 2
Fore
SplineSet
256 821 m 0,0,1
 303 821 303 821 330 793.5 c 128,-1,2
 357 766 357 766 357 718 c 0,3,4
 357 668 357 668 328 638 c 128,-1,5
 299 608 299 608 250 608 c 0,6,7
 202 608 202 608 175.5 635.5 c 128,-1,8
 149 663 149 663 149 711 c 0,9,10
 149 761 149 761 178 791 c 128,-1,11
 207 821 207 821 256 821 c 0,0,1
256 202 m 0,12,13
 303 202 303 202 330 174 c 128,-1,14
 357 146 357 146 357 99 c 0,15,16
 357 49 357 49 328 19 c 128,-1,17
 299 -11 299 -11 250 -11 c 0,18,19
 202 -11 202 -11 175.5 16.5 c 128,-1,20
 149 44 149 44 149 94 c 0,21,22
 149 142 149 142 178 172 c 128,-1,23
 207 202 207 202 256 202 c 0,12,13
EndSplineSet
EndChar

StartChar: semicolon
Encoding: 59 59 30
Width: 524
GlyphClass: 2
Flags: W
LayerCount: 2
Fore
SplineSet
256 821 m 0,0,1
 303 821 303 821 330 793.5 c 128,-1,2
 357 766 357 766 357 718 c 0,3,4
 357 668 357 668 328 638 c 128,-1,5
 299 608 299 608 250 608 c 0,6,7
 202 608 202 608 175.5 635.5 c 128,-1,8
 149 663 149 663 149 711 c 0,9,10
 149 761 149 761 178 791 c 128,-1,11
 207 821 207 821 256 821 c 0,0,1
282 199 m 1,12,13
 379 138 379 138 379 46 c 0,14,15
 379 -103 379 -103 162 -261 c 1,16,-1
 101 -204 l 1,17,-1
 101 -188 l 1,18,19
 227 -91 227 -91 227 13 c 0,20,21
 227 75 227 75 156 122 c 1,22,-1
 156 140 l 1,23,24
 219 184 219 184 282 199 c 1,12,13
EndSplineSet
EndChar

StartChar: less
Encoding: 60 60 31
Width: 1100
GlyphClass: 2
Flags: W
LayerCount: 2
Fore
SplineSet
1014 956 m 1,0,-1
 1005 941 l 1,1,-1
 225 617 l 1,2,-1
 225 604 l 1,3,-1
 1009 300 l 1,4,-1
 982 195 l 1,5,-1
 961 184 l 1,6,-1
 83 532 l 1,7,-1
 83 681 l 1,8,-1
 99 702 l 1,9,-1
 972 1062 l 1,10,-1
 1014 956 l 1,0,-1
EndSplineSet
EndChar

StartChar: equal
Encoding: 61 61 32
Width: 1100
GlyphClass: 2
Flags: W
LayerCount: 2
Fore
SplineSet
1030 849 m 1,0,-1
 1018 734 l 1,1,-1
 85 734 l 1,2,-1
 71 748 l 1,3,-1
 83 862 l 1,4,-1
 1016 862 l 1,5,-1
 1030 849 l 1,0,-1
1030 466 m 1,6,-1
 1018 351 l 1,7,-1
 85 351 l 1,8,-1
 71 365 l 1,9,-1
 83 479 l 1,10,-1
 1016 479 l 1,11,-1
 1030 466 l 1,6,-1
EndSplineSet
EndChar

StartChar: greater
Encoding: 62 62 33
Width: 1100
GlyphClass: 2
Flags: W
LayerCount: 2
Fore
SplineSet
1002 702 m 1,0,-1
 1018 681 l 1,1,-1
 1018 532 l 1,2,-1
 140 184 l 1,3,-1
 119 195 l 1,4,-1
 92 300 l 1,5,-1
 876 604 l 1,6,-1
 876 617 l 1,7,-1
 96 941 l 1,8,-1
 87 956 l 1,9,-1
 129 1062 l 1,10,-1
 1002 702 l 1,0,-1
EndSplineSet
EndChar

StartChar: question
Encoding: 63 63 34
Width: 758
GlyphClass: 2
Flags: W
LayerCount: 2
Fore
SplineSet
172 1504 m 1,0,-1
 195 1516 l 1,1,2
 470 1500 470 1500 619 1406 c 128,-1,3
 768 1312 768 1312 768 1156 c 0,4,5
 768 1066 768 1066 719 986.5 c 128,-1,6
 670 907 670 907 576 849 c 1,7,-1
 385 725 l 1,8,-1
 381 716 l 1,9,-1
 394 495 l 1,10,-1
 267 479 l 1,11,-1
 250 495 l 1,12,-1
 232 759 l 1,13,-1
 243 782 l 1,14,-1
 464 913 l 2,15,16
 531 952 531 952 567.5 1008 c 128,-1,17
 604 1064 604 1064 604 1129 c 0,18,19
 604 1359 604 1359 151 1385 c 1,20,-1
 138 1403 l 1,21,-1
 172 1504 l 1,0,-1
337 202 m 0,22,23
 368 202 368 202 390.5 189.5 c 128,-1,24
 413 177 413 177 425.5 153.5 c 128,-1,25
 438 130 438 130 438 99 c 0,26,27
 438 49 438 49 409 19 c 128,-1,28
 380 -11 380 -11 330 -11 c 0,29,30
 283 -11 283 -11 256.5 16.5 c 128,-1,31
 230 44 230 44 230 94 c 0,32,33
 230 142 230 142 259 172 c 128,-1,34
 288 202 288 202 337 202 c 0,22,23
EndSplineSet
EndChar

StartChar: at
Encoding: 64 64 35
Width: 1891
GlyphClass: 2
Flags: W
LayerCount: 2
Fore
SplineSet
1821 685 m 0,0,1
 1821 363 1821 363 1619.5 184 c 128,-1,2
 1418 5 1418 5 1044 -9 c 1,3,-1
 1110 466 l 1,4,-1
 1088 466 l 1,5,6
 913 167 913 167 718 -18 c 1,7,-1
 683 -18 l 1,8,9
 510 85 510 85 510 346 c 0,10,11
 510 443 510 443 531 538 c 128,-1,12
 552 633 552 633 597 721.5 c 128,-1,13
 642 810 642 810 705 881 c 128,-1,14
 768 952 768 952 858.5 1001 c 128,-1,15
 949 1050 949 1050 1055 1066 c 1,16,-1
 1066 1066 l 1,17,-1
 1213 1014 l 1,18,-1
 1319 1066 l 1,19,-1
 1342 1057 l 1,20,-1
 1228 252 l 1,21,-1
 1223 127 l 1,22,23
 1447 154 1447 154 1571 298 c 128,-1,24
 1695 442 1695 442 1695 679 c 0,25,26
 1695 816 1695 816 1648.5 930 c 128,-1,27
 1602 1044 1602 1044 1517 1124 c 128,-1,28
 1432 1204 1432 1204 1307 1246.5 c 128,-1,29
 1182 1289 1182 1289 1030 1287 c 0,30,31
 848 1285 848 1285 694.5 1222.5 c 128,-1,32
 541 1160 541 1160 434 1051 c 128,-1,33
 327 942 327 942 267.5 788 c 128,-1,34
 208 634 208 634 208 455 c 0,35,36
 208 269 208 269 271 118.5 c 128,-1,37
 334 -32 334 -32 449 -133.5 c 128,-1,38
 564 -235 564 -235 727.5 -289.5 c 128,-1,39
 891 -344 891 -344 1090 -344 c 1,40,-1
 1094 -363 l 1,41,-1
 1039 -455 l 1,42,43
 825 -452 825 -452 648 -389.5 c 128,-1,44
 471 -327 471 -327 346 -214.5 c 128,-1,45
 221 -102 221 -102 152 63 c 128,-1,46
 83 228 83 228 83 429 c 0,47,48
 83 642 83 642 152.5 823.5 c 128,-1,49
 222 1005 222 1005 347.5 1134 c 128,-1,50
 473 1263 473 1263 653.5 1335.5 c 128,-1,51
 834 1408 834 1408 1048 1408 c 0,52,53
 1223 1408 1223 1408 1367.5 1356 c 128,-1,54
 1512 1304 1512 1304 1611.5 1210 c 128,-1,55
 1711 1116 1711 1116 1766 981.5 c 128,-1,56
 1821 847 1821 847 1821 685 c 0,0,1
734 172 m 0,57,58
 753 172 753 172 795.5 213.5 c 128,-1,59
 838 255 838 255 895 329.5 c 128,-1,60
 952 404 952 404 1023 530.5 c 128,-1,61
 1094 657 1094 657 1158 805 c 1,62,-1
 1160 819 l 1,63,-1
 1165 876 l 1,64,-1
 1020 926 l 1,65,66
 911 926 911 926 828.5 853 c 128,-1,67
 746 780 746 780 704.5 659 c 128,-1,68
 663 538 663 538 663 390 c 0,69,70
 663 328 663 328 669.5 283.5 c 128,-1,71
 676 239 676 239 687 216 c 128,-1,72
 698 193 698 193 709.5 182.5 c 128,-1,73
 721 172 721 172 734 172 c 0,57,58
EndSplineSet
EndChar

StartChar: A
Encoding: 65 65 36
Width: 1324
GlyphClass: 2
Flags: W
AnchorPoint: "Anchor-1" 0 0 basechar 0
AnchorPoint: "Anchor-0" 665 1470 basechar 0
LayerCount: 2
Fore
SplineSet
1276 0 m 1,0,-1
 1088 0 l 1,1,-1
 1053 147 l 1,2,-1
 970 399 l 1,3,-1
 640 405 l 1,4,-1
 342 399 l 1,5,-1
 252 156 l 1,6,-1
 216 0 l 1,7,-1
 32 0 l 1,8,-1
 571 1471 l 1,9,-1
 784 1471 l 1,10,-1
 1276 0 l 1,0,-1
920 556 m 1,11,-1
 681 1280 l 1,12,-1
 665 1280 l 1,13,-1
 399 556 l 1,14,-1
 656 551 l 1,15,-1
 920 556 l 1,11,-1
EndSplineSet
Position2: "'cpsp' Capital Spacing lookup 0 subtable" dx=16 dy=0 dh=33 dv=0
EndChar

StartChar: B
Encoding: 66 66 37
Width: 1230
GlyphClass: 2
Flags: W
LayerCount: 2
Fore
SplineSet
830 766 m 1,0,1
 1142 704 1142 704 1142 411 c 0,2,3
 1142 202 1142 202 990.5 96.5 c 128,-1,4
 839 -9 839 -9 539 -9 c 0,5,6
 339 -9 339 -9 216 0 c 1,7,-1
 213 0 l 1,8,-1
 225 442 l 1,9,-1
 213 1471 l 1,10,-1
 622 1473 l 1,11,12
 827 1473 827 1473 939 1381.5 c 128,-1,13
 1051 1290 1051 1290 1051 1114 c 0,14,15
 1051 990 1051 990 993.5 900.5 c 128,-1,16
 936 811 936 811 830 766 c 1,0,1
862 1094 m 0,17,18
 862 1154 862 1154 846.5 1196.5 c 128,-1,19
 831 1239 831 1239 797 1267 c 128,-1,20
 763 1295 763 1295 710.5 1308.5 c 128,-1,21
 658 1322 658 1322 585 1322 c 2,22,-1
 399 1322 l 1,23,-1
 394 828 l 1,24,-1
 647 821 l 1,25,26
 862 871 862 871 862 1094 c 0,17,18
567 144 m 0,27,28
 691 144 691 144 778.5 175.5 c 128,-1,29
 866 207 866 207 911 269 c 128,-1,30
 956 331 956 331 956 420 c 0,31,32
 956 533 956 533 884.5 597 c 128,-1,33
 813 661 813 661 674 676 c 1,34,-1
 392 674 l 1,35,-1
 390 459 l 1,36,-1
 396 151 l 1,37,38
 486 144 486 144 567 144 c 0,27,28
EndSplineSet
Position2: "'cpsp' Capital Spacing lookup 0 subtable" dx=16 dy=0 dh=33 dv=0
EndChar

StartChar: C
Encoding: 67 67 38
Width: 1191
GlyphClass: 2
Flags: W
AnchorPoint: "Anchor-1" 704 0 basechar 0
AnchorPoint: "Anchor-0" 720 1470 basechar 0
LayerCount: 2
Fore
SplineSet
738 1482 m 0,0,1
 969 1482 969 1482 1140 1372 c 1,2,-1
 1103 1204 l 1,3,-1
 1083 1200 l 1,4,5
 929 1328 929 1328 729 1328 c 0,6,7
 511 1328 511 1328 394.5 1178 c 128,-1,8
 278 1028 278 1028 278 738 c 0,9,10
 278 447 278 447 394.5 293.5 c 128,-1,11
 511 140 511 140 725 140 c 0,12,13
 827 140 827 140 926.5 177 c 128,-1,14
 1026 214 1026 214 1108 280 c 1,15,-1
 1131 269 l 1,16,-1
 1114 94 l 1,17,18
 914 -16 914 -16 709 -16 c 0,19,20
 412 -16 412 -16 249.5 175.5 c 128,-1,21
 87 367 87 367 87 722 c 0,22,23
 87 965 87 965 163.5 1135.5 c 128,-1,24
 240 1306 240 1306 386 1394 c 128,-1,25
 532 1482 532 1482 738 1482 c 0,0,1
EndSplineSet
Substitution2: "Single Substitution lookup 41 subtable" C.ss01
Substitution2: "'ss01' Style Set 1 lookup 35 subtable" C.ss01
Substitution2: "'aalt' Access All Alternates lookup 0 subtable" C.ss01
Position2: "'cpsp' Capital Spacing lookup 0 subtable" dx=16 dy=0 dh=33 dv=0
EndChar

StartChar: D
Encoding: 68 68 39
Width: 1481
GlyphClass: 2
Flags: W
AnchorPoint: "Anchor-1" 0 0 basechar 0
AnchorPoint: "Anchor-0" 720 1470 basechar 0
LayerCount: 2
Fore
SplineSet
216 1471 m 1,0,-1
 746 1480 l 1,1,2
 954 1480 954 1480 1099.5 1399.5 c 128,-1,3
 1245 1319 1245 1319 1319.5 1164 c 128,-1,4
 1394 1009 1394 1009 1394 786 c 0,5,6
 1394 399 1394 399 1212.5 193 c 128,-1,7
 1031 -13 1031 -13 692 -13 c 0,8,9
 648 -13 648 -13 560 -11.5 c 128,-1,10
 472 -10 472 -10 374 -6.5 c 128,-1,11
 276 -3 276 -3 216 0 c 1,12,-1
 213 0 l 1,13,-1
 225 442 l 1,14,-1
 213 1471 l 1,15,-1
 216 1471 l 1,0,-1
722 140 m 0,16,17
 956 140 956 140 1081 292.5 c 128,-1,18
 1206 445 1206 445 1206 748 c 0,19,20
 1206 1326 1206 1326 731 1326 c 0,21,22
 587 1326 587 1326 399 1317 c 1,23,-1
 390 459 l 1,24,-1
 396 153 l 1,25,26
 558 140 558 140 722 140 c 0,16,17
EndSplineSet
Substitution2: "Single Substitution lookup 41 subtable" D.ss01
Substitution2: "'ss01' Style Set 1 lookup 35 subtable" D.ss01
Substitution2: "'aalt' Access All Alternates lookup 0 subtable" D.ss01
Position2: "'cpsp' Capital Spacing lookup 0 subtable" dx=16 dy=0 dh=33 dv=0
EndChar

StartChar: E
Encoding: 69 69 40
Width: 1105
GlyphClass: 2
Flags: W
AnchorPoint: "Anchor-1" 644 0 basechar 0
AnchorPoint: "Anchor-0" 628 1470 basechar 0
LayerCount: 2
Fore
SplineSet
1053 142 m 1,0,-1
 1039 0 l 1,1,-1
 213 0 l 1,2,-1
 225 442 l 1,3,-1
 213 1471 l 1,4,-1
 1042 1471 l 1,5,-1
 1051 1452 l 1,6,-1
 1037 1309 l 1,7,-1
 690 1317 l 1,8,-1
 399 1312 l 1,9,-1
 394 830 l 1,10,-1
 670 825 l 1,11,-1
 913 832 l 1,12,-1
 926 816 l 1,13,-1
 911 674 l 1,14,-1
 654 679 l 1,15,-1
 392 676 l 1,16,-1
 390 459 l 1,17,-1
 396 153 l 1,18,-1
 688 151 l 1,19,-1
 1042 160 l 1,20,-1
 1053 142 l 1,0,-1
EndSplineSet
Position2: "'cpsp' Capital Spacing lookup 0 subtable" dx=16 dy=0 dh=33 dv=0
EndChar

StartChar: F
Encoding: 70 70 41
Width: 994
GlyphClass: 2
Flags: W
LayerCount: 2
Fore
SplineSet
399 1312 m 1,0,-1
 394 801 l 1,1,-1
 642 796 l 1,2,-1
 880 803 l 1,3,-1
 895 784 l 1,4,-1
 878 644 l 1,5,-1
 624 652 l 1,6,-1
 392 650 l 1,7,-1
 390 459 l 1,8,-1
 399 0 l 1,9,-1
 213 0 l 1,10,-1
 225 442 l 1,11,-1
 213 1471 l 1,12,-1
 996 1471 l 1,13,-1
 1009 1452 l 1,14,-1
 993 1305 l 1,15,-1
 656 1317 l 1,16,-1
 399 1312 l 1,0,-1
EndSplineSet
Position2: "'cpsp' Capital Spacing lookup 0 subtable" dx=16 dy=0 dh=33 dv=0
EndChar

StartChar: G
Encoding: 71 71 42
Width: 1375
GlyphClass: 2
Flags: W
AnchorPoint: "Anchor-1" 704 0 basechar 0
AnchorPoint: "Anchor-0" 748 1470 basechar 0
LayerCount: 2
Fore
SplineSet
803 1482 m 0,0,1
 1036 1482 1036 1482 1234 1379 c 1,2,-1
 1197 1204 l 1,3,-1
 1175 1200 l 1,4,5
 1065 1268 1065 1268 971.5 1298 c 128,-1,6
 878 1328 878 1328 775 1328 c 0,7,8
 611 1328 611 1328 501 1262.5 c 128,-1,9
 391 1197 391 1197 334.5 1059.5 c 128,-1,10
 278 922 278 922 278 713 c 0,11,12
 278 418 278 418 394 279 c 128,-1,13
 510 140 510 140 753 140 c 0,14,15
 818 140 818 140 882.5 152 c 128,-1,16
 947 164 947 164 1051 195 c 1,17,-1
 1055 367 l 1,18,-1
 1053 576 l 1,19,-1
 1225 589 l 1,20,-1
 1221 392 l 1,21,-1
 1230 71 l 1,22,23
 951 -16 951 -16 744 -16 c 0,24,25
 415 -16 415 -16 251 170.5 c 128,-1,26
 87 357 87 357 87 707 c 0,27,28
 87 1085 87 1085 273 1283.5 c 128,-1,29
 459 1482 459 1482 803 1482 c 0,0,1
EndSplineSet
Position2: "'cpsp' Capital Spacing lookup 0 subtable" dx=16 dy=0 dh=33 dv=0
EndChar

StartChar: H
Encoding: 72 72 43
Width: 1565
GlyphClass: 2
Flags: W
AnchorPoint: "Anchor-1" 0 0 basechar 0
AnchorPoint: "Anchor-0" 775 1470 basechar 0
LayerCount: 2
Fore
SplineSet
1344 459 m 1,0,-1
 1351 0 l 1,1,-1
 1165 0 l 1,2,-1
 1179 442 l 1,3,-1
 1177 663 l 1,4,-1
 764 670 l 1,5,-1
 392 663 l 1,6,-1
 390 459 l 1,7,-1
 399 0 l 1,8,-1
 213 0 l 1,9,-1
 225 442 l 1,10,-1
 213 1471 l 1,11,-1
 401 1471 l 1,12,-1
 394 823 l 1,13,-1
 780 816 l 1,14,-1
 1175 823 l 1,15,-1
 1165 1471 l 1,16,-1
 1353 1471 l 1,17,-1
 1344 459 l 1,0,-1
EndSplineSet
Position2: "'cpsp' Capital Spacing lookup 0 subtable" dx=16 dy=0 dh=33 dv=0
EndChar

StartChar: I
Encoding: 73 73 44
Width: 613
GlyphClass: 2
Flags: W
AnchorPoint: "Anchor-1" 0 0 basechar 0
AnchorPoint: "Anchor-0" 306 1470 basechar 0
LayerCount: 2
Fore
SplineSet
390 459 m 1,0,-1
 399 0 l 1,1,-1
 213 0 l 1,2,-1
 225 442 l 1,3,-1
 213 1471 l 1,4,-1
 401 1471 l 1,5,-1
 390 459 l 1,0,-1
EndSplineSet
Substitution2: "Single Substitution lookup 41 subtable" I.ss01
Substitution2: "'ss01' Style Set 1 lookup 35 subtable" I.ss01
Substitution2: "'aalt' Access All Alternates lookup 0 subtable" I.ss01
Position2: "'cpsp' Capital Spacing lookup 0 subtable" dx=16 dy=0 dh=33 dv=0
EndChar

StartChar: J
Encoding: 74 74 45
Width: 710
GlyphClass: 2
Flags: W
AnchorPoint: "Anchor-1" 0 0 basechar 0
AnchorPoint: "Anchor-0" 304 1470 basechar 0
LayerCount: 2
Fore
SplineSet
488 486 m 1,0,-1
 493 271 l 1,1,2
 493 97 493 97 405.5 -17 c 128,-1,3
 318 -131 318 -131 103 -234 c 1,4,-1
 32 -131 l 1,5,-1
 32 -108 l 1,6,7
 139 -50 139 -50 200 1 c 128,-1,8
 261 52 261 52 292.5 117 c 128,-1,9
 324 182 324 182 324 269 c 2,10,-1
 324 468 l 1,11,-1
 315 1322 l 1,12,-1
 32 1319 l 1,13,-1
 13 1335 l 1,14,-1
 26 1471 l 1,15,-1
 497 1471 l 1,16,-1
 488 486 l 1,0,-1
EndSplineSet
Position2: "'cpsp' Capital Spacing lookup 0 subtable" dx=16 dy=0 dh=33 dv=0
EndChar

StartChar: K
Encoding: 75 75 46
Width: 1252
GlyphClass: 2
Flags: W
AnchorPoint: "Anchor-1" 658 0 basechar 0
AnchorPoint: "Anchor-0" 628 1470 basechar 0
LayerCount: 2
Fore
SplineSet
388 459 m 1,0,-1
 396 0 l 1,1,-1
 211 0 l 1,2,-1
 223 442 l 1,3,-1
 211 1471 l 1,4,-1
 399 1471 l 1,5,-1
 388 459 l 1,0,-1
1211 1471 m 1,6,-1
 617 780 l 1,7,8
 932 372 932 372 1252 39 c 1,9,-1
 1250 16 l 1,10,11
 1178 -5 1178 -5 1076 -20 c 1,12,-1
 1055 -9 l 1,13,14
 685 409 685 409 422 768 c 1,15,-1
 422 782 l 1,16,-1
 913 1342 l 1,17,-1
 1002 1471 l 1,18,-1
 1211 1471 l 1,6,-1
EndSplineSet
Position2: "'cpsp' Capital Spacing lookup 0 subtable" dx=16 dy=0 dh=33 dv=0
EndChar

StartChar: L
Encoding: 76 76 47
Width: 953
GlyphClass: 2
Flags: W
AnchorPoint: "Anchor-1" 538 0 basechar 0
AnchorPoint: "Anchor-0" 468 1470 basechar 0
LayerCount: 2
Fore
SplineSet
948 138 m 1,0,-1
 931 0 l 1,1,-1
 206 0 l 1,2,-1
 218 442 l 1,3,-1
 206 1471 l 1,4,-1
 394 1471 l 1,5,-1
 383 459 l 1,6,-1
 390 153 l 1,7,-1
 934 153 l 1,8,-1
 948 138 l 1,0,-1
EndSplineSet
Substitution2: "Single Substitution lookup 41 subtable" L.ss01
Substitution2: "'ss01' Style Set 1 lookup 35 subtable" L.ss01
Substitution2: "'aalt' Access All Alternates lookup 0 subtable" L.ss01
Position2: "'cpsp' Capital Spacing lookup 0 subtable" dx=16 dy=0 dh=33 dv=0
EndChar

StartChar: M
Encoding: 77 77 48
Width: 1808
GlyphClass: 2
Flags: W
LayerCount: 2
Fore
SplineSet
1670 0 m 1,0,-1
 1504 0 l 1,1,-1
 1471 447 l 1,2,-1
 1392 1179 l 1,3,-1
 1376 1179 l 1,4,-1
 968 170 l 1,5,-1
 816 170 l 1,6,-1
 429 1179 l 1,7,-1
 411 1179 l 1,8,-1
 333 461 l 1,9,-1
 293 0 l 1,10,-1
 138 0 l 1,11,-1
 291 1471 l 1,12,-1
 500 1471 l 1,13,-1
 576 1245 l 1,14,-1
 895 409 l 1,15,-1
 908 409 l 1,16,-1
 1243 1259 l 1,17,-1
 1319 1471 l 1,18,-1
 1525 1471 l 1,19,-1
 1670 0 l 1,0,-1
EndSplineSet
Substitution2: "Single Substitution lookup 41 subtable" M.ss01
Substitution2: "'ss01' Style Set 1 lookup 35 subtable" M.ss01
Substitution2: "'aalt' Access All Alternates lookup 0 subtable" M.ss01
Position2: "'cpsp' Capital Spacing lookup 0 subtable" dx=16 dy=0 dh=33 dv=0
EndChar

StartChar: N
Encoding: 78 78 49
Width: 1565
GlyphClass: 2
Flags: W
AnchorPoint: "Anchor-1" 775 0 basechar 0
AnchorPoint: "Anchor-0" 777 1470 basechar 0
LayerCount: 2
Fore
SplineSet
1342 431 m 1,0,-1
 1346 0 l 1,1,-1
 1154 0 l 1,2,-1
 394 1177 l 1,3,-1
 381 1177 l 1,4,-1
 379 484 l 1,5,-1
 385 0 l 1,6,-1
 213 0 l 1,7,-1
 225 436 l 1,8,-1
 218 1471 l 1,9,-1
 411 1471 l 1,10,-1
 1167 293 l 1,11,-1
 1184 293 l 1,12,-1
 1182 1462 l 1,13,-1
 1355 1475 l 1,14,-1
 1342 431 l 1,0,-1
EndSplineSet
Position2: "'cpsp' Capital Spacing lookup 0 subtable" dx=16 dy=0 dh=33 dv=0
EndChar

StartChar: O
Encoding: 79 79 50
Width: 1456
GlyphClass: 2
Flags: W
AnchorPoint: "Anchor-1" 0 0 basechar 0
AnchorPoint: "Anchor-0" 731 1470 basechar 0
LayerCount: 2
Fore
SplineSet
748 1484 m 0,0,1
 1049 1484 1049 1484 1210.5 1297.5 c 128,-1,2
 1372 1111 1372 1111 1372 764 c 0,3,4
 1372 389 1372 389 1200 185.5 c 128,-1,5
 1028 -18 1028 -18 711 -18 c 0,6,7
 412 -18 412 -18 249.5 175 c 128,-1,8
 87 368 87 368 87 722 c 0,9,10
 87 1090 87 1090 258.5 1287 c 128,-1,11
 430 1484 430 1484 748 1484 c 0,0,1
731 1333 m 0,12,13
 503 1333 503 1333 389.5 1187 c 128,-1,14
 276 1041 276 1041 276 746 c 0,15,16
 276 437 276 437 387 286.5 c 128,-1,17
 498 136 498 136 722 136 c 0,18,19
 1182 136 1182 136 1182 731 c 0,20,21
 1182 1036 1182 1036 1070 1184.5 c 128,-1,22
 958 1333 958 1333 731 1333 c 0,12,13
EndSplineSet
Position2: "'cpsp' Capital Spacing lookup 0 subtable" dx=16 dy=0 dh=33 dv=0
EndChar

StartChar: P
Encoding: 80 80 51
Width: 1191
GlyphClass: 2
Flags: W
LayerCount: 2
Fore
SplineSet
213 1471 m 1,0,-1
 663 1473 l 2,1,2
 879 1473 879 1473 995.5 1361 c 128,-1,3
 1112 1249 1112 1249 1112 1042 c 0,4,5
 1112 796 1112 796 967 656 c 128,-1,6
 822 516 822 516 564 516 c 2,7,-1
 390 516 l 1,8,-1
 390 459 l 1,9,-1
 399 0 l 1,10,-1
 213 0 l 1,11,-1
 225 442 l 1,12,-1
 213 1471 l 1,0,-1
392 670 m 1,13,-1
 633 665 l 1,14,15
 776 688 776 688 850 779 c 128,-1,16
 924 870 924 870 924 1025 c 0,17,18
 924 1311 924 1311 622 1322 c 1,19,-1
 399 1315 l 1,20,-1
 392 670 l 1,13,-1
EndSplineSet
Position2: "'cpsp' Capital Spacing lookup 0 subtable" dx=16 dy=0 dh=33 dv=0
EndChar

StartChar: Q
Encoding: 81 81 52
Width: 1464
GlyphClass: 2
Flags: W
LayerCount: 2
Fore
SplineSet
1674 -293 m 1,0,-1
 1681 -317 l 1,1,2
 1658 -361 1658 -361 1639.5 -386 c 128,-1,3
 1621 -411 1621 -411 1596 -433 c 1,4,-1
 1580 -440 l 1,5,6
 1359 -382 1359 -382 1151.5 -274 c 128,-1,7
 944 -166 944 -166 771 -16 c 1,8,-1
 716 -18 l 1,9,10
 412 -18 412 -18 249.5 174.5 c 128,-1,11
 87 367 87 367 87 722 c 0,12,13
 87 1090 87 1090 258.5 1287 c 128,-1,14
 430 1484 430 1484 748 1484 c 0,15,16
 1049 1484 1049 1484 1210.5 1296.5 c 128,-1,17
 1372 1109 1372 1109 1372 757 c 0,18,19
 1372 462 1372 462 1260 270.5 c 128,-1,20
 1148 79 1148 79 939 13 c 1,21,22
 1271 -219 1271 -219 1674 -293 c 1,0,-1
276 738 m 0,23,24
 276 136 276 136 727 136 c 0,25,26
 949 136 949 136 1065.5 287 c 128,-1,27
 1182 438 1182 438 1182 741 c 0,28,29
 1182 1333 1182 1333 729 1333 c 0,30,31
 500 1333 500 1333 388 1186 c 128,-1,32
 276 1039 276 1039 276 738 c 0,23,24
EndSplineSet
Substitution2: "Single Substitution lookup 41 subtable" Q.corta
Position2: "'cpsp' Capital Spacing lookup 0 subtable" dx=16 dy=0 dh=33 dv=0
EndChar

StartChar: R
Encoding: 82 82 53
Width: 1272
GlyphClass: 2
Flags: W
AnchorPoint: "Anchor-1" 637 0 basechar 0
AnchorPoint: "Anchor-0" 637 1470 basechar 0
LayerCount: 2
Fore
SplineSet
812 594 m 1,0,1
 959 352 959 352 1193 44 c 1,2,-1
 1191 20 l 1,3,4
 1108 -10 1108 -10 1020 -20 c 1,5,-1
 996 -4 l 1,6,7
 798 294 798 294 659 545 c 1,8,-1
 390 545 l 1,9,-1
 390 459 l 1,10,-1
 399 0 l 1,11,-1
 213 0 l 1,12,-1
 225 442 l 1,13,-1
 213 1471 l 1,14,-1
 663 1473 l 2,15,16
 806 1473 806 1473 907 1424.5 c 128,-1,17
 1008 1376 1008 1376 1061 1281.5 c 128,-1,18
 1114 1187 1114 1187 1114 1053 c 0,19,20
 1114 901 1114 901 1035 781 c 128,-1,21
 956 661 956 661 812 594 c 1,0,1
392 702 m 1,22,-1
 668 696 l 1,23,24
 924 769 924 769 924 1037 c 0,25,26
 924 1131 924 1131 889 1193.5 c 128,-1,27
 854 1256 854 1256 787.5 1287 c 128,-1,28
 721 1318 721 1318 622 1322 c 1,29,-1
 399 1315 l 1,30,-1
 392 702 l 1,22,-1
EndSplineSet
Position2: "'cpsp' Capital Spacing lookup 0 subtable" dx=16 dy=0 dh=33 dv=0
EndChar

StartChar: S
Encoding: 83 83 54
Width: 1081
GlyphClass: 2
Flags: W
AnchorPoint: "Anchor-1" 525 0 basechar 0
AnchorPoint: "Anchor-0" 568 1470 basechar 0
LayerCount: 2
Fore
SplineSet
613 1482 m 0,0,1
 772 1482 772 1482 941 1413 c 1,2,-1
 911 1236 l 1,3,-1
 878 1228 l 1,4,5
 740 1333 740 1333 589 1333 c 0,6,7
 524 1333 524 1333 470.5 1312 c 128,-1,8
 417 1291 417 1291 383 1256.5 c 128,-1,9
 349 1222 349 1222 330.5 1180 c 128,-1,10
 312 1138 312 1138 312 1094 c 0,11,12
 312 1052 312 1052 331 1015 c 128,-1,13
 350 978 350 978 382.5 950.5 c 128,-1,14
 415 923 415 923 458 896 c 128,-1,15
 501 869 501 869 549 847 c 128,-1,16
 597 825 597 825 648.5 799 c 128,-1,17
 700 773 700 773 748 747 c 128,-1,18
 796 721 796 721 839 686 c 128,-1,19
 882 651 882 651 914.5 612 c 128,-1,20
 947 573 947 573 965.5 520 c 128,-1,21
 984 467 984 467 984 405 c 0,22,23
 984 337 984 337 961.5 273.5 c 128,-1,24
 939 210 939 210 895.5 158 c 128,-1,25
 852 106 852 106 792.5 67 c 128,-1,26
 733 28 733 28 655 6 c 128,-1,27
 577 -16 577 -16 491 -16 c 0,28,29
 393 -16 393 -16 289.5 10.5 c 128,-1,30
 186 37 186 37 96 87 c 1,31,-1
 119 276 l 1,32,-1
 144 287 l 1,33,34
 223 209 223 209 321.5 171 c 128,-1,35
 420 133 420 133 510 133 c 0,36,37
 576 133 576 133 632.5 154 c 128,-1,38
 689 175 689 175 725.5 209.5 c 128,-1,39
 762 244 762 244 782.5 288.5 c 128,-1,40
 803 333 803 333 803 381 c 0,41,42
 803 430 803 430 780 471.5 c 128,-1,43
 757 513 757 513 718.5 544 c 128,-1,44
 680 575 680 575 629.5 602.5 c 128,-1,45
 579 630 579 630 523.5 656.5 c 128,-1,46
 468 683 468 683 412.5 710.5 c 128,-1,47
 357 738 357 738 307 773 c 128,-1,48
 257 808 257 808 218 849 c 128,-1,49
 179 890 179 890 156 947.5 c 128,-1,50
 133 1005 133 1005 133 1073 c 0,51,52
 133 1158 133 1158 168.5 1233 c 128,-1,53
 204 1308 204 1308 266 1363 c 128,-1,54
 328 1418 328 1418 418 1450 c 128,-1,55
 508 1482 508 1482 613 1482 c 0,0,1
EndSplineSet
Position2: "'cpsp' Capital Spacing lookup 0 subtable" dx=16 dy=0 dh=33 dv=0
EndChar

StartChar: T
Encoding: 84 84 55
Width: 1123
GlyphClass: 2
Flags: W
AnchorPoint: "Anchor-1" 551 0 basechar 0
AnchorPoint: "Anchor-0" 568 1470 basechar 0
LayerCount: 2
Fore
SplineSet
1076 1452 m 1,0,-1
 1062 1309 l 1,1,-1
 805 1324 l 1,2,-1
 656 1324 l 1,3,-1
 650 459 l 1,4,-1
 656 0 l 1,5,-1
 470 0 l 1,6,-1
 484 442 l 1,7,-1
 473 1324 l 1,8,-1
 324 1324 l 1,9,-1
 62 1309 l 1,10,-1
 50 1328 l 1,11,-1
 64 1471 l 1,12,-1
 1062 1471 l 1,13,-1
 1076 1452 l 1,0,-1
EndSplineSet
Position2: "'cpsp' Capital Spacing lookup 0 subtable" dx=16 dy=0 dh=33 dv=0
EndChar

StartChar: U
Encoding: 85 85 56
Width: 1435
GlyphClass: 2
Flags: W
AnchorPoint: "Anchor-1" 0 0 basechar 0
AnchorPoint: "Anchor-0" 722 1470 basechar 0
LayerCount: 2
Fore
SplineSet
1263 722 m 1,0,-1
 1261 558 l 1,1,2
 1266 286 1266 286 1119.5 135 c 128,-1,3
 973 -16 973 -16 702 -16 c 0,4,5
 443 -16 443 -16 304 128 c 128,-1,6
 165 272 165 272 170 536 c 1,7,-1
 172 736 l 1,8,-1
 170 1471 l 1,9,-1
 351 1471 l 1,10,-1
 344 560 l 2,11,12
 342 354 342 354 436 249 c 128,-1,13
 530 144 530 144 716 144 c 256,14,15
 902 144 902 144 998 243 c 128,-1,16
 1094 342 1094 342 1092 536 c 2,17,-1
 1083 1471 l 1,18,-1
 1266 1471 l 1,19,-1
 1263 722 l 1,0,-1
EndSplineSet
Position2: "'cpsp' Capital Spacing lookup 0 subtable" dx=16 dy=0 dh=33 dv=0
EndChar

StartChar: V
Encoding: 86 86 57
Width: 1293
GlyphClass: 2
Flags: W
LayerCount: 2
Fore
SplineSet
738 0 m 1,0,-1
 525 0 l 1,1,-1
 35 1471 l 1,2,-1
 223 1471 l 1,3,-1
 256 1322 l 1,4,-1
 631 186 l 1,5,-1
 644 186 l 1,6,-1
 1057 1312 l 1,7,-1
 1094 1471 l 1,8,-1
 1278 1471 l 1,9,-1
 738 0 l 1,0,-1
EndSplineSet
Substitution2: "Single Substitution lookup 41 subtable" V.ss01
Substitution2: "'ss01' Style Set 1 lookup 35 subtable" V.ss01
Substitution2: "'aalt' Access All Alternates lookup 0 subtable" V.ss01
Position2: "'cpsp' Capital Spacing lookup 0 subtable" dx=16 dy=0 dh=33 dv=0
EndChar

StartChar: W
Encoding: 87 87 58
Width: 2047
GlyphClass: 2
Flags: W
AnchorPoint: "Anchor-1" 0 0 basechar 0
AnchorPoint: "Anchor-0" 1006 1470 basechar 0
LayerCount: 2
Fore
SplineSet
1502 0 m 1,0,-1
 1312 0 l 1,1,-1
 1025 853 l 1,2,-1
 1009 853 l 1,3,-1
 707 0 l 1,4,-1
 516 0 l 1,5,-1
 48 1471 l 1,6,-1
 232 1471 l 1,7,-1
 256 1328 l 1,8,-1
 615 204 l 1,9,-1
 631 204 l 1,10,-1
 948 1099 l 1,11,-1
 823 1471 l 1,12,-1
 1011 1471 l 1,13,-1
 1046 1312 l 1,14,-1
 1408 204 l 1,15,-1
 1422 204 l 1,16,-1
 1821 1319 l 1,17,-1
 1856 1471 l 1,18,-1
 2029 1471 l 1,19,-1
 1502 0 l 1,0,-1
EndSplineSet
Position2: "'cpsp' Capital Spacing lookup 0 subtable" dx=16 dy=0 dh=33 dv=0
EndChar

StartChar: X
Encoding: 88 88 59
Width: 1350
GlyphClass: 2
Flags: W
LayerCount: 2
Fore
SplineSet
782 766 m 1,0,-1
 1285 0 l 1,1,-1
 1062 0 l 1,2,-1
 998 119 l 1,3,-1
 659 622 l 1,4,-1
 307 108 l 1,5,-1
 248 0 l 1,6,-1
 53 0 l 1,7,-1
 551 744 l 1,8,-1
 71 1471 l 1,9,-1
 293 1471 l 1,10,-1
 353 1353 l 1,11,-1
 670 883 l 1,12,-1
 989 1355 l 1,13,-1
 1048 1471 l 1,14,-1
 1248 1471 l 1,15,-1
 782 766 l 1,0,-1
EndSplineSet
Substitution2: "Single Substitution lookup 41 subtable" X.ss01
Substitution2: "'ss01' Style Set 1 lookup 35 subtable" X.ss01
Substitution2: "'aalt' Access All Alternates lookup 0 subtable" X.ss01
Position2: "'cpsp' Capital Spacing lookup 0 subtable" dx=16 dy=0 dh=33 dv=0
EndChar

StartChar: Y
Encoding: 89 89 60
Width: 1210
GlyphClass: 2
Flags: W
AnchorPoint: "Anchor-1" 0 0 basechar 0
AnchorPoint: "Anchor-0" 591 1470 basechar 0
LayerCount: 2
Fore
SplineSet
670 429 m 1,0,-1
 676 0 l 1,1,-1
 491 0 l 1,2,-1
 505 429 l 1,3,-1
 503 528 l 1,4,-1
 35 1471 l 1,5,-1
 232 1471 l 1,6,-1
 261 1388 l 1,7,-1
 582 727 l 1,8,-1
 601 727 l 1,9,-1
 952 1383 l 1,10,-1
 987 1471 l 1,11,-1
 1182 1471 l 1,12,-1
 672 528 l 1,13,-1
 670 429 l 1,0,-1
EndSplineSet
Position2: "'cpsp' Capital Spacing lookup 0 subtable" dx=16 dy=0 dh=33 dv=0
EndChar

StartChar: Z
Encoding: 90 90 61
Width: 1210
GlyphClass: 2
Flags: W
AnchorPoint: "Anchor-1" 0 0 basechar 0
AnchorPoint: "Anchor-0" 617 1470 basechar 0
LayerCount: 2
Fore
SplineSet
1114 1335 m 1,0,-1
 291 149 l 1,1,-1
 902 149 l 1,2,-1
 1119 165 l 1,3,-1
 1129 151 l 1,4,-1
 1112 -4 l 1,5,-1
 847 0 l 1,6,-1
 202 0 l 1,7,-1
 71 -7 l 1,8,-1
 71 129 l 1,9,-1
 897 1319 l 1,10,-1
 330 1319 l 1,11,-1
 110 1303 l 1,12,-1
 99 1317 l 1,13,-1
 112 1473 l 1,14,-1
 1002 1471 l 1,15,-1
 1114 1473 l 1,16,-1
 1114 1335 l 1,0,-1
EndSplineSet
Position2: "'cpsp' Capital Spacing lookup 0 subtable" dx=16 dy=0 dh=33 dv=0
EndChar

StartChar: bracketleft
Encoding: 91 91 62
Width: 659
GlyphClass: 2
Flags: W
LayerCount: 2
Fore
SplineSet
647 1471 m 1,0,-1
 647 1383 l 1,1,-1
 374 1357 l 1,2,-1
 374 -172 l 1,3,-1
 647 -197 l 1,4,-1
 647 -284 l 1,5,-1
 635 -296 l 1,6,-1
 225 -273 l 1,7,-1
 234 594 l 1,8,-1
 225 1462 l 1,9,-1
 635 1484 l 1,10,-1
 647 1471 l 1,0,-1
EndSplineSet
EndChar

StartChar: backslash
Encoding: 92 92 63
Width: 657
GlyphClass: 2
Flags: W
LayerCount: 2
Fore
SplineSet
151 1556 m 1,0,-1
 622 -241 l 1,1,-1
 610 -259 l 1,2,-1
 482 -259 l 1,3,-1
 13 1534 l 1,4,-1
 28 1556 l 1,5,-1
 151 1556 l 1,0,-1
EndSplineSet
EndChar

StartChar: bracketright
Encoding: 93 93 64
Width: 659
GlyphClass: 2
Flags: W
LayerCount: 2
Fore
SplineSet
16 -284 m 1,0,-1
 16 -197 l 1,1,-1
 287 -170 l 1,2,-1
 287 1360 l 1,3,-1
 16 1383 l 1,4,-1
 16 1473 l 1,5,-1
 28 1484 l 1,6,-1
 436 1462 l 1,7,-1
 429 594 l 1,8,-1
 436 -273 l 1,9,-1
 28 -296 l 1,10,-1
 16 -284 l 1,0,-1
EndSplineSet
EndChar

StartChar: asciicircum
Encoding: 94 94 65
Width: 972
GlyphClass: 2
Flags: W
LayerCount: 2
Fore
SplineSet
926 307 m 1,0,-1
 913 289 l 1,1,-1
 808 264 l 1,2,-1
 505 991 l 1,3,-1
 491 991 l 1,4,-1
 170 269 l 1,5,-1
 151 256 l 1,6,-1
 46 298 l 1,7,-1
 409 1117 l 1,8,-1
 427 1129 l 1,9,-1
 578 1129 l 1,10,-1
 926 307 l 1,0,-1
EndSplineSet
EndChar

StartChar: underscore
Encoding: 95 95 66
Width: 1031
GlyphClass: 2
Flags: W
LayerCount: 2
Fore
SplineSet
1066 -216 m 1,0,-1
 1055 -324 l 1,1,-1
 -20 -324 l 1,2,-1
 -35 -307 l 1,3,-1
 -22 -202 l 1,4,-1
 1053 -202 l 1,5,-1
 1066 -216 l 1,0,-1
EndSplineSet
EndChar

StartChar: grave
Encoding: 96 96 67
Width: 891
GlyphClass: 2
Flags: W
LayerCount: 2
Fore
SplineSet
282 1596 m 1,0,-1
 302 1598 l 1,1,2
 476 1431 476 1431 679 1266 c 1,3,-1
 628 1193 l 1,4,-1
 608 1191 l 1,5,6
 456 1297 456 1297 218 1482 c 1,7,-1
 213 1500 l 1,8,-1
 282 1596 l 1,0,-1
EndSplineSet
EndChar

StartChar: a
Encoding: 97 97 68
Width: 1059
GlyphClass: 2
Flags: W
AnchorPoint: "Anchor-1" 0 0 basechar 0
AnchorPoint: "Anchor-0" 511 1050 basechar 0
LayerCount: 2
Fore
SplineSet
530 1068 m 0,0,1
 678 1068 678 1068 764.5 995.5 c 128,-1,2
 851 923 851 923 851 794 c 0,3,4
 851 754 851 754 837 511 c 128,-1,5
 823 268 823 268 823 227 c 0,6,7
 823 178 823 178 839 158 c 128,-1,8
 855 138 855 138 895 138 c 0,9,10
 928 138 928 138 972 151 c 1,11,-1
 991 136 l 1,12,-1
 972 32 l 1,13,14
 902 -8 902 -8 842 -13 c 1,15,16
 771 -7 771 -7 729 37 c 128,-1,17
 687 81 687 81 683 156 c 1,18,-1
 668 156 l 1,19,20
 545 30 545 30 422 -16 c 1,21,22
 269 -16 269 -16 182.5 61 c 128,-1,23
 96 138 96 138 96 271 c 0,24,25
 96 373 96 373 150 432 c 128,-1,26
 204 491 204 491 309 516 c 2,27,-1
 681 604 l 1,28,-1
 683 753 l 1,29,30
 683 843 683 843 636 891 c 128,-1,31
 589 939 589 939 503 939 c 0,32,33
 426 939 426 939 347.5 901.5 c 128,-1,34
 269 864 269 864 179 786 c 1,35,-1
 160 796 l 1,36,-1
 138 926 l 1,37,38
 329 1068 329 1068 530 1068 c 0,0,1
679 486 m 1,39,-1
 346 405 l 1,40,41
 301 393 301 393 280 368 c 128,-1,42
 259 343 259 343 259 296 c 0,43,44
 259 221 259 221 301.5 178.5 c 128,-1,45
 344 136 344 136 416 136 c 0,46,47
 541 136 541 136 672 298 c 1,48,-1
 679 486 l 1,39,-1
EndSplineSet
Substitution2: "'ss02' Style Set 2 lookup 36 subtable" left
Substitution2: "'case' Case-Sensitive Forms lookup 28 subtable" A
Substitution2: "'ordn' Ordinals lookup 22 subtable" a.sups
Substitution2: "'sups' Superscript lookup 16 subtable" a.sups
AlternateSubs2: "'aalt' Access All Alternates lookup 1 subtable" a.sups A left
EndChar

StartChar: b
Encoding: 98 98 69
Width: 1173
GlyphClass: 2
Flags: W
LayerCount: 2
Fore
SplineSet
670 1062 m 1,0,1
 869 1062 869 1062 974 930 c 128,-1,2
 1079 798 1079 798 1079 558 c 0,3,4
 1079 283 1079 283 945 132.5 c 128,-1,5
 811 -18 811 -18 573 -18 c 0,6,7
 463 -18 463 -18 348 32 c 1,8,-1
 223 -26 l 1,9,-1
 190 -7 l 1,10,-1
 206 440 l 1,11,-1
 193 1594 l 1,12,-1
 374 1611 l 1,13,-1
 367 906 l 1,14,-1
 381 906 l 1,15,16
 458 970 458 970 522.5 1004.5 c 128,-1,17
 587 1039 587 1039 670 1062 c 1,0,1
589 114 m 0,18,19
 738 114 738 114 823.5 221.5 c 128,-1,20
 909 329 909 329 906 536 c 0,21,22
 903 717 903 717 838 815 c 128,-1,23
 773 913 773 913 654 913 c 0,24,25
 582 913 582 913 513 874.5 c 128,-1,26
 444 836 444 836 365 750 c 1,27,-1
 363 461 l 1,28,-1
 370 188 l 1,29,30
 481 114 481 114 589 114 c 0,18,19
EndSplineSet
Substitution2: "'ss02' Style Set 2 lookup 36 subtable" up
Substitution2: "'case' Case-Sensitive Forms lookup 28 subtable" B
Substitution2: "'ordn' Ordinals lookup 22 subtable" b.sups
Substitution2: "'sups' Superscript lookup 16 subtable" b.sups
AlternateSubs2: "'aalt' Access All Alternates lookup 1 subtable" b.sups B up
EndChar

StartChar: c
Encoding: 99 99 70
Width: 882
GlyphClass: 2
Flags: W
AnchorPoint: "Anchor-1" 520 0 basechar 0
AnchorPoint: "Anchor-0" 543 1050 basechar 0
LayerCount: 2
Fore
SplineSet
562 1068 m 0,0,1
 634 1068 634 1068 710.5 1051.5 c 128,-1,2
 787 1035 787 1035 844 1007 c 1,3,-1
 812 849 l 1,4,-1
 792 842 l 1,5,6
 675 920 675 920 556 920 c 0,7,8
 466 920 466 920 401.5 873.5 c 128,-1,9
 337 827 337 827 303 738.5 c 128,-1,10
 269 650 269 650 269 528 c 0,11,12
 269 405 269 405 304 315.5 c 128,-1,13
 339 226 339 226 406.5 177.5 c 128,-1,14
 474 129 474 129 567 129 c 0,15,16
 629 129 629 129 696.5 149.5 c 128,-1,17
 764 170 764 170 823 206 c 1,18,-1
 844 195 l 1,19,-1
 823 41 l 1,20,21
 685 -18 685 -18 543 -18 c 0,22,23
 335 -18 335 -18 215.5 125.5 c 128,-1,24
 96 269 96 269 96 519 c 0,25,26
 96 772 96 772 221 920 c 128,-1,27
 346 1068 346 1068 562 1068 c 0,0,1
EndSplineSet
Substitution2: "Single Substitution lookup 41 subtable" C.ss01
Substitution2: "'ss02' Style Set 2 lookup 36 subtable" right
Substitution2: "'ss01' Style Set 1 lookup 35 subtable" C.ss01
Substitution2: "'case' Case-Sensitive Forms lookup 28 subtable" C
Substitution2: "'ordn' Ordinals lookup 22 subtable" c.sups
Substitution2: "'sups' Superscript lookup 16 subtable" c.sups
AlternateSubs2: "'aalt' Access All Alternates lookup 1 subtable" c.sups C C.ss01 right
EndChar

StartChar: d
Encoding: 100 100 71
Width: 1182
GlyphClass: 2
Flags: W
LayerCount: 2
Fore
SplineSet
968 461 m 1,0,-1
 972 225 l 1,1,2
 974 177 974 177 988.5 157.5 c 128,-1,3
 1003 138 1003 138 1039 138 c 256,4,5
 1075 138 1075 138 1117 151 c 1,6,-1
 1136 136 l 1,7,-1
 1119 32 l 1,8,9
 1049 -8 1049 -8 989 -13 c 1,10,11
 919 -7 919 -7 877.5 35 c 128,-1,12
 836 77 836 77 828 147 c 1,13,-1
 812 147 l 1,14,15
 743 86 743 86 688 51 c 128,-1,16
 633 16 633 16 562 -11 c 1,17,18
 335 -11 335 -11 214.5 128 c 128,-1,19
 94 267 94 267 94 523 c 0,20,21
 94 783 94 783 228.5 925.5 c 128,-1,22
 363 1068 363 1068 604 1068 c 0,23,24
 708 1068 708 1068 805 1046 c 1,25,-1
 801 1594 l 1,26,-1
 982 1611 l 1,27,-1
 968 461 l 1,0,-1
580 941 m 0,28,29
 432 941 432 941 346.5 837.5 c 128,-1,30
 261 734 261 734 264 539 c 1,31,32
 268 350 268 350 344.5 246 c 128,-1,33
 421 142 421 142 553 142 c 0,34,35
 618 142 618 142 678.5 174 c 128,-1,36
 739 206 739 206 805 282 c 1,37,-1
 810 447 l 1,38,-1
 805 883 l 1,39,40
 678 941 678 941 580 941 c 0,28,29
EndSplineSet
Substitution2: "Single Substitution lookup 41 subtable" D.ss01
Substitution2: "'ss02' Style Set 2 lookup 36 subtable" down
Substitution2: "'ss01' Style Set 1 lookup 35 subtable" D.ss01
Substitution2: "'case' Case-Sensitive Forms lookup 28 subtable" D
Substitution2: "'ordn' Ordinals lookup 22 subtable" d.sups
Substitution2: "'sups' Superscript lookup 16 subtable" d.sups
AlternateSubs2: "'aalt' Access All Alternates lookup 1 subtable" d.sups D D.ss01 down
EndChar

StartChar: e
Encoding: 101 101 72
Width: 1036
GlyphClass: 2
Flags: W
AnchorPoint: "Anchor-1" 48 0 basechar 0
AnchorPoint: "Anchor-0" 562 1050 basechar 0
LayerCount: 2
Fore
SplineSet
269 534 m 1,0,-1
 269 528 l 2,1,2
 269 338 269 338 348 233.5 c 128,-1,3
 427 129 427 129 582 129 c 0,4,5
 657 129 657 129 738 156 c 128,-1,6
 819 183 819 183 890 232 c 1,7,-1
 911 221 l 1,8,-1
 893 66 l 1,9,10
 728 -18 728 -18 573 -18 c 0,11,12
 425 -18 425 -18 317 47 c 128,-1,13
 209 112 209 112 152.5 233 c 128,-1,14
 96 354 96 354 96 519 c 0,15,16
 96 772 96 772 229.5 919 c 128,-1,17
 363 1066 363 1066 589 1066 c 0,18,19
 761 1066 761 1066 856.5 962 c 128,-1,20
 952 858 952 858 952 672 c 0,21,22
 952 623 952 623 948 567 c 1,23,-1
 908 536 l 1,24,-1
 269 534 l 1,0,-1
573 939 m 0,25,26
 496 939 496 939 435.5 906 c 128,-1,27
 375 873 375 873 335.5 810 c 128,-1,28
 296 747 296 747 280 656 c 1,29,-1
 784 670 l 1,30,-1
 790 698 l 1,31,32
 790 758 790 758 774 804.5 c 128,-1,33
 758 851 758 851 729 880 c 128,-1,34
 700 909 700 909 661 924 c 128,-1,35
 622 939 622 939 573 939 c 0,25,26
EndSplineSet
Substitution2: "'ss02' Style Set 2 lookup 36 subtable" square1
Substitution2: "'case' Case-Sensitive Forms lookup 28 subtable" E
Substitution2: "'ordn' Ordinals lookup 22 subtable" e.sups
Substitution2: "'sups' Superscript lookup 16 subtable" e.sups
AlternateSubs2: "'aalt' Access All Alternates lookup 1 subtable" e.sups E square1
EndChar

StartChar: f
Encoding: 102 102 73
Width: 694
GlyphClass: 2
Flags: W
LayerCount: 2
Fore
SplineSet
624 1615 m 0,0,1
 702 1615 702 1615 803 1594 c 1,2,-1
 790 1452 l 1,3,-1
 775 1440 l 1,4,5
 694 1482 694 1482 608 1482 c 0,6,7
 518 1482 518 1482 470 1426 c 128,-1,8
 422 1370 422 1370 420 1259 c 2,9,-1
 418 1048 l 1,10,-1
 692 1048 l 1,11,-1
 700 1035 l 1,12,-1
 688 926 l 1,13,-1
 416 926 l 1,14,-1
 411 461 l 1,15,-1
 422 0 l 1,16,-1
 241 0 l 1,17,-1
 254 447 l 1,18,-1
 250 926 l 1,19,-1
 92 926 l 1,20,-1
 83 941 l 1,21,-1
 94 1048 l 1,22,-1
 250 1048 l 1,23,-1
 248 1232 l 2,24,25
 246 1417 246 1417 344 1516 c 128,-1,26
 442 1615 442 1615 624 1615 c 0,0,1
EndSplineSet
Substitution2: "Single Substitution lookup 41 subtable" f.t
Substitution2: "Single Substitution lookup 40 subtable" f.l
Substitution2: "Single Substitution lookup 39 subtable" f.f
Substitution2: "'ss02' Style Set 2 lookup 36 subtable" square2
Substitution2: "'case' Case-Sensitive Forms lookup 28 subtable" F
Substitution2: "'ordn' Ordinals lookup 22 subtable" f.sups
Substitution2: "'sups' Superscript lookup 16 subtable" f.sups
AlternateSubs2: "'aalt' Access All Alternates lookup 1 subtable" f.sups F square2
EndChar

StartChar: g
Encoding: 103 103 74
Width: 1116
GlyphClass: 2
Flags: W
AnchorPoint: "Anchor-1" 0 0 basechar 0
AnchorPoint: "Anchor-0" 562 1028 basechar 0
LayerCount: 2
Fore
SplineSet
1112 1085 m 1,0,-1
 1112 961 l 1,1,2
 1032 937 1032 937 902 913 c 1,3,-1
 897 904 l 1,4,5
 948 824 948 824 948 709 c 0,6,7
 948 542 948 542 836.5 443 c 128,-1,8
 725 344 725 344 534 344 c 0,9,10
 462 344 462 344 392 363 c 1,11,12
 354 333 354 333 340 314.5 c 128,-1,13
 326 296 326 296 326 273 c 0,14,15
 326 243 326 243 355 222.5 c 128,-1,16
 384 202 384 202 432 191.5 c 128,-1,17
 480 181 480 181 541.5 171 c 128,-1,18
 603 161 603 161 666.5 152.5 c 128,-1,19
 730 144 730 144 791.5 125.5 c 128,-1,20
 853 107 853 107 900.5 82 c 128,-1,21
 948 57 948 57 977.5 11.5 c 128,-1,22
 1007 -34 1007 -34 1007 -94 c 0,23,24
 1007 -166 1007 -166 968.5 -230.5 c 128,-1,25
 930 -295 930 -295 864 -341.5 c 128,-1,26
 798 -388 798 -388 707 -415 c 128,-1,27
 616 -442 616 -442 514 -442 c 0,28,29
 422 -442 422 -442 348 -419.5 c 128,-1,30
 274 -397 274 -397 225.5 -357 c 128,-1,31
 177 -317 177 -317 152 -262 c 128,-1,32
 127 -207 127 -207 127 -142 c 1,33,34
 157 -80 157 -80 207 -33 c 128,-1,35
 257 14 257 14 328 57 c 1,36,-1
 328 68 l 1,37,38
 247 93 247 93 201.5 136.5 c 128,-1,39
 156 180 156 180 156 252 c 1,40,41
 205 332 205 332 296 392 c 1,42,-1
 296 401 l 1,43,44
 223 446 223 446 185 521 c 128,-1,45
 147 596 147 596 147 696 c 0,46,47
 147 867 147 867 258 964.5 c 128,-1,48
 369 1062 369 1062 556 1062 c 0,49,50
 677 1062 677 1062 762 1020 c 1,51,52
 917 1049 917 1049 1094 1099 c 1,53,-1
 1112 1085 l 1,0,-1
543 468 m 0,54,55
 619 468 619 468 673.5 497.5 c 128,-1,56
 728 527 728 527 756 581.5 c 128,-1,57
 784 636 784 636 784 711 c 0,58,59
 784 784 784 784 758 835 c 128,-1,60
 732 886 732 886 680 913.5 c 128,-1,61
 628 941 628 941 553 941 c 0,62,63
 438 941 438 941 373.5 879 c 128,-1,64
 309 817 309 817 309 702 c 0,65,66
 309 593 309 593 370 530.5 c 128,-1,67
 431 468 431 468 543 468 c 0,54,55
847 -129 m 0,68,69
 847 -105 847 -105 837 -85 c 128,-1,70
 827 -65 827 -65 813 -51 c 128,-1,71
 799 -37 799 -37 773 -25 c 128,-1,72
 747 -13 747 -13 724.5 -6 c 128,-1,73
 702 1 702 1 664.5 8.5 c 128,-1,74
 627 16 627 16 601.5 20 c 128,-1,75
 576 24 576 24 532 30.5 c 128,-1,76
 488 37 488 37 464 41 c 1,77,78
 376 -12 376 -12 331.5 -59.5 c 128,-1,79
 287 -107 287 -107 287 -160 c 0,80,81
 287 -227 287 -227 352 -271 c 128,-1,82
 417 -315 417 -315 534 -315 c 0,83,84
 667 -315 667 -315 757 -261.5 c 128,-1,85
 847 -208 847 -208 847 -129 c 0,68,69
EndSplineSet
Substitution2: "'ss02' Style Set 2 lookup 36 subtable" circle1
Substitution2: "'case' Case-Sensitive Forms lookup 28 subtable" G
Substitution2: "'ordn' Ordinals lookup 22 subtable" g.sups
Substitution2: "'sups' Superscript lookup 16 subtable" g.sups
AlternateSubs2: "'aalt' Access All Alternates lookup 1 subtable" g.sups G circle1
EndChar

StartChar: h
Encoding: 104 104 75
Width: 1191
GlyphClass: 2
Flags: W
AnchorPoint: "Anchor-1" 282 0 basechar 0
AnchorPoint: "Anchor-0" 280 1481 basechar 0
LayerCount: 2
Fore
SplineSet
842 0 m 1,0,-1
 856 713 l 2,1,2
 857 806 857 806 810.5 859.5 c 128,-1,3
 764 913 764 913 676 913 c 0,4,5
 523 913 523 913 367 750 c 1,6,-1
 363 461 l 1,7,-1
 374 0 l 1,8,-1
 193 0 l 1,9,-1
 204 447 l 1,10,-1
 195 1594 l 1,11,-1
 376 1611 l 1,12,-1
 367 902 l 1,13,-1
 381 902 l 1,14,15
 524 1028 524 1028 672 1064 c 1,16,17
 845 1064 845 1064 934.5 984 c 128,-1,18
 1024 904 1024 904 1023 755 c 1,19,-1
 1018 457 l 1,20,-1
 1025 0 l 1,21,-1
 842 0 l 1,0,-1
EndSplineSet
Substitution2: "'ss02' Style Set 2 lookup 36 subtable" circle2
Substitution2: "'case' Case-Sensitive Forms lookup 28 subtable" H
Substitution2: "'ordn' Ordinals lookup 22 subtable" h.sups
Substitution2: "'sups' Superscript lookup 16 subtable" h.sups
AlternateSubs2: "'aalt' Access All Alternates lookup 1 subtable" h.sups H circle2
EndChar

StartChar: i
Encoding: 105 105 76
Width: 545
GlyphClass: 2
Flags: W
AnchorPoint: "Anchor-1" 271 0 basechar 0
AnchorPoint: "Anchor-0" 275 1050 basechar 0
LayerCount: 2
Fore
SplineSet
280 1521 m 0,0,1
 326 1521 326 1521 353.5 1493.5 c 128,-1,2
 381 1466 381 1466 381 1420 c 0,3,4
 381 1386 381 1386 368 1360.5 c 128,-1,5
 355 1335 355 1335 330.5 1321 c 128,-1,6
 306 1307 306 1307 273 1307 c 0,7,8
 226 1307 226 1307 199 1335.5 c 128,-1,9
 172 1364 172 1364 172 1413 c 256,10,11
 172 1462 172 1462 201.5 1491.5 c 128,-1,12
 231 1521 231 1521 280 1521 c 0,0,1
351 461 m 1,13,-1
 363 0 l 1,14,-1
 181 0 l 1,15,-1
 193 445 l 1,16,-1
 184 1039 l 1,17,-1
 365 1055 l 1,18,-1
 351 461 l 1,13,-1
EndSplineSet
Substitution2: "Single Substitution lookup 41 subtable" I.ss01
Substitution2: "'ss01' Style Set 1 lookup 35 subtable" I.ss01
Substitution2: "'case' Case-Sensitive Forms lookup 28 subtable" I
Substitution2: "'ordn' Ordinals lookup 22 subtable" i.sups
Substitution2: "'sups' Superscript lookup 16 subtable" i.sups
Substitution2: "'locl' Localized Forms in Latin lookup 9 subtable" idotaccent
Substitution2: "'locl' Localized Forms in Latin lookup 8 subtable" idotaccent
Substitution2: "'locl' Localized Forms in Latin lookup 7 subtable" idotaccent
Substitution2: "'locl' Localized Forms in Latin lookup 6 subtable" idotaccent
Substitution2: "'locl' Localized Forms in Latin lookup 5 subtable" idotaccent
AlternateSubs2: "'aalt' Access All Alternates lookup 1 subtable" idotaccent i.sups I I.ss01
EndChar

StartChar: j
Encoding: 106 106 77
Width: 607
GlyphClass: 2
Flags: W
AnchorPoint: "Anchor-1" 0 0 basechar 0
AnchorPoint: "Anchor-0" 288 1050 basechar 0
LayerCount: 2
Fore
SplineSet
291 1521 m 0,0,1
 337 1521 337 1521 364.5 1493.5 c 128,-1,2
 392 1466 392 1466 392 1420 c 0,3,4
 392 1369 392 1369 363 1338 c 128,-1,5
 334 1307 334 1307 284 1307 c 0,6,7
 237 1307 237 1307 210.5 1335.5 c 128,-1,8
 184 1364 184 1364 184 1413 c 256,9,10
 184 1462 184 1462 213 1491.5 c 128,-1,11
 242 1521 242 1521 291 1521 c 0,0,1
416 1051 m 1,12,-1
 401 461 l 1,13,-1
 411 44 l 1,14,15
 411 -136 411 -136 340 -244 c 128,-1,16
 269 -352 269 -352 94 -445 c 1,17,-1
 26 -363 l 1,18,-1
 26 -342 l 1,19,20
 146 -269 146 -269 193.5 -186.5 c 128,-1,21
 241 -104 241 -104 241 35 c 1,22,-1
 245 445 l 1,23,-1
 236 926 l 1,24,-1
 26 926 l 1,25,-1
 11 943 l 1,26,-1
 22 1048 l 1,27,-1
 239 1048 l 1,28,-1
 409 1055 l 1,29,-1
 416 1051 l 1,12,-1
EndSplineSet
Substitution2: "'case' Case-Sensitive Forms lookup 28 subtable" J
Substitution2: "'ordn' Ordinals lookup 22 subtable" j.sups
Substitution2: "'sups' Superscript lookup 16 subtable" j.sups
AlternateSubs2: "'aalt' Access All Alternates lookup 1 subtable" j.sups J
EndChar

StartChar: k
Encoding: 107 107 78
Width: 1044
GlyphClass: 2
Flags: W
AnchorPoint: "Anchor-1" 577 0 basechar 0
AnchorPoint: "Anchor-0" 282 1560 basechar 0
LayerCount: 2
Fore
SplineSet
363 461 m 1,0,-1
 374 0 l 1,1,-1
 193 0 l 1,2,-1
 204 447 l 1,3,-1
 195 1594 l 1,4,-1
 376 1611 l 1,5,-1
 363 461 l 1,0,-1
1000 1051 m 1,6,-1
 587 569 l 1,7,8
 732 375 732 375 1028 32 c 1,9,-1
 1028 11 l 1,10,11
 1013 7 1013 7 997 3 c 128,-1,12
 981 -1 981 -1 963 -4 c 128,-1,13
 945 -7 945 -7 931.5 -9.5 c 128,-1,14
 918 -12 918 -12 897 -15 c 128,-1,15
 876 -18 876 -18 865 -20 c 1,16,-1
 842 -11 l 1,17,18
 593 283 593 283 405 553 c 1,19,-1
 405 569 l 1,20,-1
 734 956 l 1,21,-1
 796 1051 l 1,22,-1
 1000 1051 l 1,6,-1
EndSplineSet
Substitution2: "'case' Case-Sensitive Forms lookup 28 subtable" K
Substitution2: "'ordn' Ordinals lookup 22 subtable" k.sups
Substitution2: "'sups' Superscript lookup 16 subtable" k.sups
AlternateSubs2: "'aalt' Access All Alternates lookup 1 subtable" k.sups K
EndChar

StartChar: l
Encoding: 108 108 79
Width: 565
GlyphClass: 2
Flags: W
AnchorPoint: "Anchor-1" 282 0 basechar 0
AnchorPoint: "Anchor-0" 282 1560 basechar 0
LayerCount: 2
Fore
SplineSet
363 461 m 1,0,-1
 374 0 l 1,1,-1
 193 0 l 1,2,-1
 206 447 l 1,3,-1
 195 1594 l 1,4,-1
 376 1611 l 1,5,-1
 363 461 l 1,0,-1
EndSplineSet
Substitution2: "Single Substitution lookup 41 subtable" L.ss01
Substitution2: "'ss01' Style Set 1 lookup 35 subtable" L.ss01
Substitution2: "'case' Case-Sensitive Forms lookup 28 subtable" L
Substitution2: "'ordn' Ordinals lookup 22 subtable" l.sups
Substitution2: "'sups' Superscript lookup 16 subtable" l.sups
AlternateSubs2: "'aalt' Access All Alternates lookup 1 subtable" l.sups L L.ss01
EndChar

StartChar: m
Encoding: 109 109 80
Width: 1825
GlyphClass: 2
Flags: W
LayerCount: 2
Fore
SplineSet
1484 0 m 1,0,-1
 1497 713 l 2,1,2
 1498 759 1498 759 1487 796 c 128,-1,3
 1476 833 1476 833 1454 859 c 128,-1,4
 1432 885 1432 885 1397 899 c 128,-1,5
 1362 913 1362 913 1317 913 c 0,6,7
 1169 913 1169 913 1011 755 c 1,8,-1
 1007 457 l 1,9,-1
 1016 0 l 1,10,-1
 832 0 l 1,11,-1
 844 713 l 2,12,13
 846 775 846 775 826.5 819.5 c 128,-1,14
 807 864 807 864 766 888.5 c 128,-1,15
 725 913 725 913 665 913 c 0,16,17
 516 913 516 913 355 748 c 1,18,-1
 353 461 l 1,19,-1
 363 0 l 1,20,-1
 181 0 l 1,21,-1
 193 445 l 1,22,-1
 184 1039 l 1,23,-1
 357 1055 l 1,24,-1
 355 902 l 1,25,-1
 372 902 l 1,26,27
 511 1027 511 1027 661 1064 c 1,28,29
 921 1064 921 1064 989 890 c 1,30,-1
 1002 890 l 1,31,32
 1144 1019 1144 1019 1315 1064 c 1,33,34
 1487 1064 1487 1064 1576 984 c 128,-1,35
 1665 904 1665 904 1663 755 c 2,36,-1
 1661 457 l 1,37,-1
 1668 0 l 1,38,-1
 1484 0 l 1,0,-1
EndSplineSet
Substitution2: "Single Substitution lookup 41 subtable" M.ss01
Substitution2: "'ss01' Style Set 1 lookup 35 subtable" M.ss01
Substitution2: "'case' Case-Sensitive Forms lookup 28 subtable" M
Substitution2: "'ordn' Ordinals lookup 22 subtable" m.sups
Substitution2: "'sups' Superscript lookup 16 subtable" m.sups
AlternateSubs2: "'aalt' Access All Alternates lookup 1 subtable" m.sups M M.ss01
EndChar

StartChar: n
Encoding: 110 110 81
Width: 1180
GlyphClass: 2
Flags: W
AnchorPoint: "Anchor-1" 593 0 basechar 0
AnchorPoint: "Anchor-0" 623 1050 basechar 0
LayerCount: 2
Fore
SplineSet
832 0 m 1,0,-1
 844 713 l 2,1,2
 846 775 846 775 826.5 819.5 c 128,-1,3
 807 864 807 864 766 888.5 c 128,-1,4
 725 913 725 913 665 913 c 0,5,6
 514 913 514 913 355 750 c 1,7,-1
 353 461 l 1,8,-1
 363 0 l 1,9,-1
 181 0 l 1,10,-1
 193 445 l 1,11,-1
 184 1039 l 1,12,-1
 357 1055 l 1,13,-1
 355 902 l 1,14,-1
 370 902 l 1,15,16
 512 1028 512 1028 661 1064 c 1,17,18
 835 1064 835 1064 924 984 c 128,-1,19
 1013 904 1013 904 1011 755 c 2,20,-1
 1007 457 l 1,21,-1
 1016 0 l 1,22,-1
 832 0 l 1,0,-1
EndSplineSet
Substitution2: "'case' Case-Sensitive Forms lookup 28 subtable" N
Substitution2: "'ordn' Ordinals lookup 22 subtable" n.sups
Substitution2: "'sups' Superscript lookup 16 subtable" n.sups
AlternateSubs2: "'aalt' Access All Alternates lookup 1 subtable" n.sups N
EndChar

StartChar: o
Encoding: 111 111 82
Width: 1125
GlyphClass: 2
Flags: W
AnchorPoint: "Anchor-1" 0 0 basechar 0
AnchorPoint: "Anchor-0" 564 1050 basechar 0
LayerCount: 2
Fore
SplineSet
576 1068 m 0,0,1
 789 1068 789 1068 907 929.5 c 128,-1,2
 1025 791 1025 791 1025 539 c 0,3,4
 1025 274 1025 274 900.5 128 c 128,-1,5
 776 -18 776 -18 548 -18 c 0,6,7
 405 -18 405 -18 303.5 44 c 128,-1,8
 202 106 202 106 149 225 c 128,-1,9
 96 344 96 344 96 512 c 0,10,11
 96 777 96 777 221.5 922.5 c 128,-1,12
 347 1068 347 1068 576 1068 c 0,0,1
564 941 m 0,13,14
 420 941 420 941 344.5 841.5 c 128,-1,15
 269 742 269 742 269 553 c 0,16,17
 269 333 269 333 343.5 222.5 c 128,-1,18
 418 112 418 112 560 112 c 0,19,20
 705 112 705 112 780.5 209 c 128,-1,21
 856 306 856 306 856 497 c 0,22,23
 856 715 856 715 781 828 c 128,-1,24
 706 941 706 941 564 941 c 0,13,14
EndSplineSet
Substitution2: "'case' Case-Sensitive Forms lookup 28 subtable" O
Substitution2: "'ordn' Ordinals lookup 22 subtable" o.sups
Substitution2: "'sups' Superscript lookup 16 subtable" o.sups
AlternateSubs2: "'aalt' Access All Alternates lookup 1 subtable" o.sups O
EndChar

StartChar: p
Encoding: 112 112 83
Width: 1160
GlyphClass: 2
Flags: W
LayerCount: 2
Fore
SplineSet
659 1062 m 1,0,1
 859 1062 859 1062 962.5 930.5 c 128,-1,2
 1066 799 1066 799 1066 558 c 0,3,4
 1066 281 1066 281 932.5 131.5 c 128,-1,5
 799 -18 799 -18 556 -18 c 0,6,7
 454 -18 454 -18 355 2 c 1,8,-1
 361 -424 l 1,9,-1
 181 -424 l 1,10,-1
 195 445 l 1,11,-1
 181 1039 l 1,12,-1
 357 1055 l 1,13,-1
 355 906 l 1,14,-1
 370 906 l 1,15,16
 410 939 410 939 444 963 c 128,-1,17
 478 987 478 987 513 1006 c 128,-1,18
 548 1025 548 1025 582.5 1038 c 128,-1,19
 617 1051 617 1051 659 1062 c 1,0,1
578 114 m 0,20,21
 727 114 727 114 812.5 221.5 c 128,-1,22
 898 329 898 329 895 536 c 1,23,24
 891 717 891 717 826 815 c 128,-1,25
 761 913 761 913 642 913 c 0,26,27
 570 913 570 913 500.5 874 c 128,-1,28
 431 835 431 835 353 750 c 1,29,-1
 351 461 l 1,30,-1
 353 175 l 1,31,32
 467 114 467 114 578 114 c 0,20,21
EndSplineSet
Substitution2: "'case' Case-Sensitive Forms lookup 28 subtable" P
Substitution2: "'ordn' Ordinals lookup 22 subtable" p.sups
Substitution2: "'sups' Superscript lookup 16 subtable" p.sups
AlternateSubs2: "'aalt' Access All Alternates lookup 1 subtable" p.sups P
EndChar

StartChar: q
Encoding: 113 113 84
Width: 1160
GlyphClass: 2
Flags: W
LayerCount: 2
Fore
SplineSet
963 1064 m 1,0,-1
 982 1053 l 1,1,-1
 968 457 l 1,2,-1
 979 -424 l 1,3,-1
 801 -424 l 1,4,-1
 808 81 l 1,5,-1
 808 124 l 1,6,-1
 790 124 l 1,7,8
 726 74 726 74 674.5 44 c 128,-1,9
 623 14 623 14 553 -11 c 1,10,11
 332 -11 332 -11 213 127.5 c 128,-1,12
 94 266 94 266 94 516 c 0,13,14
 94 784 94 784 227 926 c 128,-1,15
 360 1068 360 1068 599 1068 c 0,16,17
 733 1068 733 1068 874 1028 c 1,18,-1
 963 1064 l 1,0,-1
578 939 m 0,19,20
 430 939 430 939 345.5 836 c 128,-1,21
 261 733 261 733 264 532 c 1,22,23
 268 347 268 347 341.5 244.5 c 128,-1,24
 415 142 415 142 543 142 c 0,25,26
 610 142 610 142 673 174 c 128,-1,27
 736 206 736 206 808 282 c 1,28,-1
 810 438 l 1,29,-1
 805 876 l 1,30,31
 680 939 680 939 578 939 c 0,19,20
EndSplineSet
Substitution2: "'case' Case-Sensitive Forms lookup 28 subtable" Q
Substitution2: "'ordn' Ordinals lookup 22 subtable" q.sups
Substitution2: "'sups' Superscript lookup 16 subtable" q.sups
AlternateSubs2: "'aalt' Access All Alternates lookup 1 subtable" q.sups Q
EndChar

StartChar: r
Encoding: 114 114 85
Width: 740
GlyphClass: 2
Flags: W
AnchorPoint: "Anchor-1" 273 0 basechar 0
AnchorPoint: "Anchor-0" 444 1050 basechar 0
LayerCount: 2
Fore
SplineSet
663 1053 m 0,0,1
 691 1053 691 1053 722 1048 c 1,2,-1
 722 871 l 1,3,-1
 702 865 l 1,4,5
 662 876 662 876 619 876 c 0,6,7
 544 876 544 876 479 815.5 c 128,-1,8
 414 755 414 755 353 622 c 1,9,-1
 351 461 l 1,10,-1
 363 0 l 1,11,-1
 181 0 l 1,12,-1
 195 445 l 1,13,-1
 184 1039 l 1,14,-1
 357 1055 l 1,15,-1
 355 840 l 1,16,-1
 370 840 l 1,17,18
 414 918 414 918 467.5 967.5 c 128,-1,19
 521 1017 521 1017 567.5 1035 c 128,-1,20
 614 1053 614 1053 663 1053 c 0,0,1
EndSplineSet
Substitution2: "'case' Case-Sensitive Forms lookup 28 subtable" R
Substitution2: "'ordn' Ordinals lookup 22 subtable" r.sups
Substitution2: "'sups' Superscript lookup 16 subtable" r.sups
AlternateSubs2: "'aalt' Access All Alternates lookup 1 subtable" r.sups R
EndChar

StartChar: s
Encoding: 115 115 86
Width: 847
GlyphClass: 2
Flags: W
AnchorPoint: "Anchor-1" 398 0 basechar 0
AnchorPoint: "Anchor-0" 422 1050 basechar 0
LayerCount: 2
Fore
SplineSet
470 1066 m 0,0,1
 602 1066 602 1066 722 1016 c 1,2,-1
 698 867 l 1,3,-1
 670 860 l 1,4,5
 555 936 555 936 449 936 c 0,6,7
 397 936 397 936 357 915 c 128,-1,8
 317 894 317 894 296.5 860 c 128,-1,9
 276 826 276 826 276 786 c 0,10,11
 276 749 276 749 296.5 718 c 128,-1,12
 317 687 317 687 350.5 666.5 c 128,-1,13
 384 646 384 646 426.5 624.5 c 128,-1,14
 469 603 469 603 514 584.5 c 128,-1,15
 559 566 559 566 602 539 c 128,-1,16
 645 512 645 512 678.5 482 c 128,-1,17
 712 452 712 452 732.5 405.5 c 128,-1,18
 753 359 753 359 753 302 c 0,19,20
 753 239 753 239 728 181.5 c 128,-1,21
 703 124 703 124 657 79.5 c 128,-1,22
 611 35 611 35 539 8.5 c 128,-1,23
 467 -18 467 -18 379 -18 c 0,24,25
 217 -18 217 -18 74 57 c 1,26,-1
 96 213 l 1,27,-1
 116 227 l 1,28,29
 180 172 180 172 255 142 c 128,-1,30
 330 112 330 112 396 112 c 0,31,32
 482 112 482 112 534.5 159.5 c 128,-1,33
 587 207 587 207 587 271 c 0,34,35
 587 309 587 309 566.5 339.5 c 128,-1,36
 546 370 546 370 512 391 c 128,-1,37
 478 412 478 412 435 433.5 c 128,-1,38
 392 455 392 455 347 474 c 128,-1,39
 302 493 302 493 259 520.5 c 128,-1,40
 216 548 216 548 182.5 579 c 128,-1,41
 149 610 149 610 128.5 658 c 128,-1,42
 108 706 108 706 108 764 c 0,43,44
 108 851 108 851 150.5 919.5 c 128,-1,45
 193 988 193 988 276 1027 c 128,-1,46
 359 1066 359 1066 470 1066 c 0,0,1
EndSplineSet
Substitution2: "'case' Case-Sensitive Forms lookup 28 subtable" S
Substitution2: "'ordn' Ordinals lookup 22 subtable" s.sups
Substitution2: "'sups' Superscript lookup 16 subtable" s.sups
AlternateSubs2: "'aalt' Access All Alternates lookup 1 subtable" s.sups S
EndChar

StartChar: t
Encoding: 116 116 87
Width: 731
GlyphClass: 2
Flags: W
AnchorPoint: "Anchor-1" 433 0 basechar 0
AnchorPoint: "Anchor-0" 0 0 basechar 0
LayerCount: 2
Fore
SplineSet
514 140 m 0,0,1
 591 140 591 140 679 186 c 1,2,-1
 700 172 l 1,3,-1
 681 53 l 1,4,5
 557 -4 557 -4 451 -13 c 1,6,7
 320 13 320 13 263 83 c 128,-1,8
 206 153 206 153 206 289 c 1,9,-1
 213 451 l 1,10,-1
 211 926 l 1,11,-1
 66 926 l 1,12,-1
 57 941 l 1,13,-1
 68 1048 l 1,14,-1
 208 1048 l 1,15,-1
 208 1217 l 1,16,-1
 367 1287 l 1,17,-1
 385 1271 l 1,18,-1
 381 1048 l 1,19,-1
 692 1048 l 1,20,-1
 702 1035 l 1,21,-1
 690 926 l 1,22,-1
 381 926 l 1,23,-1
 370 305 l 2,24,25
 368 214 368 214 402 177 c 128,-1,26
 436 140 436 140 514 140 c 0,0,1
EndSplineSet
Substitution2: "'case' Case-Sensitive Forms lookup 28 subtable" T
Substitution2: "'ordn' Ordinals lookup 22 subtable" t.sups
Substitution2: "'sups' Superscript lookup 16 subtable" t.sups
AlternateSubs2: "'aalt' Access All Alternates lookup 1 subtable" t.sups T
EndChar

StartChar: u
Encoding: 117 117 88
Width: 1171
GlyphClass: 2
Flags: W
AnchorPoint: "Anchor-1" 0 0 basechar 0
AnchorPoint: "Anchor-0" 586 1050 basechar 0
LayerCount: 2
Fore
SplineSet
972 1055 m 1,0,-1
 959 225 l 2,1,2
 959 178 959 178 975.5 158 c 128,-1,3
 992 138 992 138 1028 138 c 0,4,5
 1063 138 1063 138 1108 151 c 1,6,-1
 1124 136 l 1,7,-1
 1108 32 l 1,8,9
 1038 -7 1038 -7 977 -13 c 1,10,11
 907 -7 907 -7 867 35 c 128,-1,12
 827 77 827 77 819 147 c 1,13,-1
 801 147 l 1,14,15
 662 21 662 21 516 -13 c 1,16,17
 347 -13 347 -13 259 67 c 128,-1,18
 171 147 171 147 172 296 c 2,19,-1
 175 587 l 1,20,-1
 168 1039 l 1,21,-1
 351 1055 l 1,22,-1
 337 339 l 2,23,24
 336 277 336 277 355.5 232.5 c 128,-1,25
 375 188 375 188 415 164 c 128,-1,26
 455 140 455 140 514 140 c 0,27,28
 655 140 655 140 799 280 c 1,29,-1
 799 1039 l 1,30,-1
 972 1055 l 1,0,-1
EndSplineSet
Substitution2: "'case' Case-Sensitive Forms lookup 28 subtable" U
Substitution2: "'ordn' Ordinals lookup 22 subtable" u.sups
Substitution2: "'sups' Superscript lookup 16 subtable" u.sups
AlternateSubs2: "'aalt' Access All Alternates lookup 1 subtable" u.sups U
EndChar

StartChar: v
Encoding: 118 118 89
Width: 974
GlyphClass: 2
Flags: W
LayerCount: 2
Fore
SplineSet
248 917 m 1,0,-1
 475 181 l 1,1,-1
 486 181 l 1,2,-1
 755 908 l 1,3,-1
 792 1051 l 1,4,-1
 954 1051 l 1,5,-1
 569 0 l 1,6,-1
 374 0 l 1,7,-1
 48 1046 l 1,8,-1
 218 1057 l 1,9,-1
 248 917 l 1,0,-1
EndSplineSet
Substitution2: "Single Substitution lookup 41 subtable" V.ss01
Substitution2: "'ss01' Style Set 1 lookup 35 subtable" V.ss01
Substitution2: "'case' Case-Sensitive Forms lookup 28 subtable" V
Substitution2: "'ordn' Ordinals lookup 22 subtable" v.sups
Substitution2: "'sups' Superscript lookup 16 subtable" v.sups
AlternateSubs2: "'aalt' Access All Alternates lookup 1 subtable" v.sups V V.ss01
EndChar

StartChar: w
Encoding: 119 119 90
Width: 1550
GlyphClass: 2
Flags: W
AnchorPoint: "Anchor-1" 0 0 basechar 0
AnchorPoint: "Anchor-0" 784 1050 basechar 0
LayerCount: 2
Fore
SplineSet
241 922 m 1,0,-1
 433 197 l 1,1,-1
 445 197 l 1,2,-1
 668 913 l 1,3,-1
 704 1051 l 1,4,-1
 883 1051 l 1,5,-1
 908 922 l 1,6,-1
 1101 197 l 1,7,-1
 1112 197 l 1,8,-1
 1337 913 l 1,9,-1
 1370 1051 l 1,10,-1
 1530 1051 l 1,11,-1
 1184 0 l 1,12,-1
 1009 0 l 1,13,-1
 792 814 l 1,14,-1
 775 814 l 1,15,-1
 521 0 l 1,16,-1
 342 0 l 1,17,-1
 48 1046 l 1,18,-1
 216 1057 l 1,19,-1
 241 922 l 1,0,-1
EndSplineSet
Substitution2: "'case' Case-Sensitive Forms lookup 28 subtable" W
Substitution2: "'ordn' Ordinals lookup 22 subtable" w.sups
Substitution2: "'sups' Superscript lookup 16 subtable" w.sups
AlternateSubs2: "'aalt' Access All Alternates lookup 1 subtable" w.sups W
EndChar

StartChar: x
Encoding: 120 120 91
Width: 996
GlyphClass: 2
Flags: W
LayerCount: 2
Fore
SplineSet
293 959 m 1,0,-1
 512 640 l 1,1,-1
 711 956 l 1,2,-1
 764 1051 l 1,3,-1
 934 1051 l 1,4,-1
 606 536 l 1,5,-1
 956 9 l 1,6,-1
 764 -9 l 1,7,-1
 713 99 l 1,8,-1
 488 431 l 1,9,-1
 269 90 l 1,10,-1
 223 0 l 1,11,-1
 53 0 l 1,12,-1
 390 534 l 1,13,-1
 55 1044 l 1,14,-1
 250 1057 l 1,15,-1
 293 959 l 1,0,-1
EndSplineSet
Substitution2: "Single Substitution lookup 41 subtable" X.ss01
Substitution2: "'ss01' Style Set 1 lookup 35 subtable" X.ss01
Substitution2: "'case' Case-Sensitive Forms lookup 28 subtable" X
Substitution2: "'ordn' Ordinals lookup 22 subtable" x.sups
Substitution2: "'sups' Superscript lookup 16 subtable" x.sups
AlternateSubs2: "'aalt' Access All Alternates lookup 1 subtable" x.sups X X.ss01
EndChar

StartChar: y
Encoding: 121 121 92
Width: 976
GlyphClass: 2
Flags: W
AnchorPoint: "Anchor-1" 0 0 basechar 0
AnchorPoint: "Anchor-0" 495 1050 basechar 0
LayerCount: 2
Fore
SplineSet
232 922 m 1,0,-1
 482 204 l 1,1,-1
 497 204 l 1,2,-1
 753 904 l 1,3,-1
 786 1051 l 1,4,-1
 954 1051 l 1,5,-1
 580 39 l 1,6,7
 506 -165 506 -165 384.5 -275 c 128,-1,8
 263 -385 263 -385 53 -438 c 1,9,-1
 35 -438 l 1,10,11
 -23 -380 -23 -380 -50 -324 c 1,12,-1
 -46 -300 l 1,13,14
 128 -267 128 -267 231.5 -199 c 128,-1,15
 335 -131 335 -131 409 0 c 1,16,-1
 20 1046 l 1,17,-1
 197 1057 l 1,18,-1
 232 922 l 1,0,-1
EndSplineSet
Substitution2: "'case' Case-Sensitive Forms lookup 28 subtable" Y
Substitution2: "'ordn' Ordinals lookup 22 subtable" y.sups
Substitution2: "'sups' Superscript lookup 16 subtable" y.sups
AlternateSubs2: "'aalt' Access All Alternates lookup 1 subtable" y.sups Y
EndChar

StartChar: z
Encoding: 122 122 93
Width: 944
GlyphClass: 2
Flags: W
AnchorPoint: "Anchor-1" 0 0 basechar 0
AnchorPoint: "Anchor-0" 472 1050 basechar 0
LayerCount: 2
Fore
SplineSet
296 1051 m 1,0,-1
 766 1051 l 1,1,-1
 853 1053 l 1,2,-1
 858 943 l 1,3,-1
 271 129 l 1,4,-1
 685 129 l 1,5,-1
 858 144 l 1,6,-1
 869 129 l 1,7,-1
 853 -4 l 1,8,-1
 642 0 l 1,9,-1
 184 0 l 1,10,-1
 76 -4 l 1,11,-1
 76 105 l 1,12,-1
 665 924 l 1,13,-1
 269 924 l 1,14,-1
 105 906 l 1,15,-1
 92 922 l 1,16,-1
 108 1055 l 1,17,-1
 296 1051 l 1,0,-1
EndSplineSet
Substitution2: "'case' Case-Sensitive Forms lookup 28 subtable" Z
Substitution2: "'ordn' Ordinals lookup 22 subtable" z.sups
Substitution2: "'sups' Superscript lookup 16 subtable" z.sups
AlternateSubs2: "'aalt' Access All Alternates lookup 1 subtable" z.sups Z
EndChar

StartChar: braceleft
Encoding: 123 123 94
Width: 659
GlyphClass: 2
Flags: W
LayerCount: 2
Fore
SplineSet
507 1502 m 0,0,1
 557 1502 557 1502 626 1486 c 1,2,-1
 635 1471 l 1,3,-1
 617 1372 l 1,4,5
 563 1383 563 1383 532 1383 c 0,6,7
 460 1383 460 1383 425 1342 c 128,-1,8
 390 1301 390 1301 390 1215 c 0,9,10
 390 1158 390 1158 414 1024 c 128,-1,11
 438 890 438 890 438 840 c 0,12,13
 438 670 438 670 284 604 c 1,14,-1
 284 594 l 1,15,16
 438 527 438 527 438 361 c 0,17,18
 438 309 438 309 414 175 c 128,-1,19
 390 41 390 41 390 -16 c 0,20,21
 390 -74 390 -74 405.5 -111.5 c 128,-1,22
 421 -149 421 -149 452.5 -167.5 c 128,-1,23
 484 -186 484 -186 532 -186 c 0,24,25
 563 -186 563 -186 617 -175 c 1,26,-1
 635 -273 l 1,27,-1
 626 -289 l 1,28,29
 567 -302 567 -302 507 -302 c 0,30,31
 421 -302 421 -302 362 -273.5 c 128,-1,32
 303 -245 303 -245 273 -188 c 128,-1,33
 243 -131 243 -131 243 -46 c 0,34,35
 243 25 243 25 266 165 c 128,-1,36
 289 305 289 305 289 353 c 0,37,38
 289 522 289 522 103 551 c 1,39,-1
 103 644 l 1,40,41
 199 663 199 663 244 712.5 c 128,-1,42
 289 762 289 762 289 844 c 0,43,44
 289 891 289 891 266 1031.5 c 128,-1,45
 243 1172 243 1172 243 1243 c 0,46,47
 243 1371 243 1371 310.5 1436.5 c 128,-1,48
 378 1502 378 1502 507 1502 c 0,0,1
EndSplineSet
EndChar

StartChar: bar
Encoding: 124 124 95
Width: 720
GlyphClass: 2
Flags: W
LayerCount: 2
Fore
SplineSet
431 1817 m 1,0,-1
 429 661 l 1,1,-1
 429 -594 l 1,2,-1
 302 -601 l 1,3,-1
 287 -582 l 1,4,-1
 287 650 l 1,5,-1
 289 1819 l 1,6,-1
 420 1828 l 1,7,-1
 431 1817 l 1,0,-1
EndSplineSet
EndChar

StartChar: braceright
Encoding: 125 125 96
Width: 659
GlyphClass: 2
Flags: W
LayerCount: 2
Fore
SplineSet
153 -302 m 0,0,1
 92 -302 92 -302 37 -289 c 1,2,-1
 28 -273 l 1,3,-1
 44 -175 l 1,4,5
 98 -186 98 -186 129 -186 c 0,6,7
 271 -186 271 -186 271 -16 c 0,8,9
 271 42 271 42 248 175 c 128,-1,10
 225 308 225 308 225 357 c 0,11,12
 225 528 225 528 376 594 c 1,13,-1
 376 604 l 1,14,15
 302 636 302 636 263.5 696 c 128,-1,16
 225 756 225 756 225 838 c 0,17,18
 225 889 225 889 248 1023 c 128,-1,19
 271 1157 271 1157 271 1215 c 0,20,21
 271 1302 271 1302 236 1343.5 c 128,-1,22
 201 1385 201 1385 129 1385 c 0,23,24
 98 1385 98 1385 44 1374 c 1,25,-1
 28 1471 l 1,26,-1
 37 1486 l 1,27,28
 89 1502 89 1502 153 1502 c 0,29,30
 241 1502 241 1502 299.5 1473 c 128,-1,31
 358 1444 358 1444 388 1386 c 128,-1,32
 418 1328 418 1328 418 1243 c 0,33,34
 418 1172 418 1172 395 1032.5 c 128,-1,35
 372 893 372 893 372 847 c 0,36,37
 372 762 372 762 417.5 713 c 128,-1,38
 463 664 463 664 558 647 c 1,39,-1
 558 553 l 1,40,41
 372 520 372 520 372 353 c 0,42,43
 372 306 372 306 395 165.5 c 128,-1,44
 418 25 418 25 418 -46 c 0,45,46
 418 -302 418 -302 153 -302 c 0,0,1
EndSplineSet
EndChar

StartChar: asciitilde
Encoding: 126 126 97
Width: 1100
GlyphClass: 2
Flags: W
LayerCount: 2
Fore
SplineSet
342 589 m 0,0,1
 330 589 330 589 317.5 584.5 c 128,-1,2
 305 580 305 580 288 566 c 128,-1,3
 271 552 271 552 260.5 543 c 128,-1,4
 250 534 250 534 224 509 c 128,-1,5
 198 484 198 484 186 473 c 1,6,-1
 165 473 l 1,7,-1
 114 534 l 1,8,-1
 114 556 l 1,9,-1
 282 722 l 1,10,-1
 305 731 l 1,11,12
 356 724 356 724 540.5 671.5 c 128,-1,13
 725 619 725 619 764 619 c 0,14,15
 773 619 773 619 784 623.5 c 128,-1,16
 795 628 795 628 804.5 634 c 128,-1,17
 814 640 814 640 829 652.5 c 128,-1,18
 844 665 844 665 854.5 674.5 c 128,-1,19
 865 684 865 684 886 704 c 128,-1,20
 907 724 907 724 920 736 c 1,21,-1
 939 736 l 1,22,-1
 989 674 l 1,23,-1
 989 654 l 1,24,-1
 821 484 l 1,25,-1
 799 479 l 1,26,27
 741 485 741 485 559.5 537 c 128,-1,28
 378 589 378 589 342 589 c 0,0,1
EndSplineSet
EndChar

StartChar: exclamdown
Encoding: 161 161 99
Width: 586
GlyphClass: 2
Flags: W
LayerCount: 2
Fore
SplineSet
317 860 m 0,0,1
 286 860 286 860 264 872.5 c 128,-1,2
 242 885 242 885 230 908 c 128,-1,3
 218 931 218 931 218 963 c 0,4,5
 218 1013 218 1013 247 1043 c 128,-1,6
 276 1073 276 1073 324 1073 c 0,7,8
 373 1073 373 1073 400 1045.5 c 128,-1,9
 427 1018 427 1018 427 968 c 0,10,11
 427 919 427 919 397.5 889.5 c 128,-1,12
 368 860 368 860 317 860 c 0,0,1
188 -429 m 1,13,-1
 239 562 l 1,14,-1
 346 573 l 1,15,-1
 367 553 l 1,16,-1
 367 -422 l 1,17,-1
 348 -445 l 1,18,-1
 208 -451 l 1,19,-1
 188 -429 l 1,13,-1
EndSplineSet
EndChar

StartChar: cent
Encoding: 162 162 100
Width: 878
GlyphClass: 2
Flags: W
LayerCount: 2
Fore
SplineSet
838 278 m 1,0,-1
 821 168 l 1,1,2
 758 131 758 131 680.5 108 c 128,-1,3
 603 85 603 85 525 83 c 1,4,-1
 495 -273 l 1,5,-1
 409 -273 l 1,6,-1
 390 -256 l 1,7,-1
 418 94 l 1,8,9
 316 117 316 117 242 186 c 128,-1,10
 168 255 168 255 129 364 c 128,-1,11
 90 473 90 473 90 610 c 0,12,13
 90 772 90 772 139.5 893 c 128,-1,14
 189 1014 189 1014 281.5 1082.5 c 128,-1,15
 374 1151 374 1151 500 1160 c 1,16,-1
 525 1495 l 1,17,-1
 615 1495 l 1,18,-1
 633 1477 l 1,19,-1
 608 1158 l 1,20,21
 733 1141 733 1141 830 1081 c 1,22,-1
 803 963 l 1,23,-1
 782 961 l 1,24,25
 698 1018 698 1018 601 1035 c 1,26,-1
 534 206 l 1,27,-1
 548 206 l 2,28,29
 613 206 613 206 685 228 c 128,-1,30
 757 250 757 250 819 287 c 1,31,-1
 838 278 l 1,0,-1
232 624 m 0,32,33
 232 472 232 472 283 370.5 c 128,-1,34
 334 269 334 269 429 230 c 1,35,-1
 491 1035 l 1,36,37
 370 1015 370 1015 301 906.5 c 128,-1,38
 232 798 232 798 232 624 c 0,32,33
EndSplineSet
EndChar

StartChar: sterling
Encoding: 163 163 101
Width: 953
GlyphClass: 2
Flags: W
LayerCount: 2
Fore
SplineSet
880 131 m 1,0,-1
 869 -4 l 1,1,-1
 640 0 l 1,2,-1
 66 0 l 1,3,-1
 55 13 l 1,4,-1
 66 108 l 1,5,6
 230 142 230 142 230 353 c 2,7,-1
 230 668 l 1,8,-1
 66 668 l 1,9,-1
 57 681 l 1,10,-1
 68 768 l 1,11,-1
 230 768 l 1,12,-1
 230 989 l 2,13,14
 230 1168 230 1168 326.5 1264 c 128,-1,15
 423 1360 423 1360 604 1360 c 0,16,17
 715 1360 715 1360 851 1322 c 1,18,-1
 840 1182 l 1,19,-1
 828 1169 l 1,20,21
 703 1243 703 1243 591 1243 c 0,22,23
 487 1243 487 1243 434 1184 c 128,-1,24
 381 1125 381 1125 381 1011 c 2,25,-1
 381 768 l 1,26,-1
 672 768 l 1,27,-1
 681 757 l 1,28,-1
 672 668 l 1,29,-1
 379 668 l 1,30,-1
 379 370 l 2,31,32
 379 213 379 213 287 138 c 1,33,-1
 287 131 l 1,34,-1
 663 131 l 1,35,-1
 871 147 l 1,36,-1
 880 131 l 1,0,-1
EndSplineSet
EndChar

StartChar: currency
Encoding: 164 164 102
Width: 996
GlyphClass: 2
Flags: W
LayerCount: 2
Fore
SplineSet
913 1169 m 1,0,-1
 913 1149 l 1,1,-1
 759 1005 l 1,2,3
 821 926 821 926 821 821 c 0,4,5
 821 718 821 718 762 642 c 1,6,-1
 917 500 l 1,7,-1
 920 479 l 1,8,-1
 840 396 l 1,9,-1
 821 399 l 1,10,-1
 676 553 l 1,11,12
 638 523 638 523 588.5 505.5 c 128,-1,13
 539 488 539 488 491 488 c 0,14,15
 396 488 396 488 315 551 c 1,16,-1
 170 394 l 1,17,-1
 151 394 l 1,18,-1
 66 475 l 1,19,-1
 68 493 l 1,20,-1
 223 637 l 1,21,22
 160 718 160 718 160 821 c 0,23,24
 160 918 160 918 221 1000 c 1,25,-1
 64 1145 l 1,26,-1
 66 1163 l 1,27,-1
 142 1245 l 1,28,-1
 162 1245 l 1,29,-1
 309 1090 l 1,30,31
 388 1151 388 1151 491 1151 c 0,32,33
 588 1151 588 1151 668 1094 c 1,34,-1
 812 1248 l 1,35,-1
 832 1250 l 1,36,-1
 913 1169 l 1,0,-1
491 1044 m 0,37,38
 397 1044 397 1044 333 979 c 128,-1,39
 269 914 269 914 269 821 c 0,40,41
 269 725 269 725 333 662 c 128,-1,42
 397 599 397 599 491 599 c 0,43,44
 588 599 588 599 652 662 c 128,-1,45
 716 725 716 725 716 821 c 0,46,47
 716 915 716 915 651.5 979.5 c 128,-1,48
 587 1044 587 1044 491 1044 c 0,37,38
EndSplineSet
EndChar

StartChar: yen
Encoding: 165 165 103
Width: 1103
GlyphClass: 2
Flags: W
LayerCount: 2
Fore
SplineSet
1055 370 m 1,0,-1
 1064 357 l 1,1,-1
 1057 278 l 1,2,-1
 619 278 l 1,3,-1
 624 0 l 1,4,-1
 475 0 l 1,5,-1
 482 278 l 1,6,-1
 57 278 l 1,7,-1
 48 289 l 1,8,-1
 55 370 l 1,9,-1
 482 370 l 1,10,-1
 482 394 l 1,11,-1
 381 582 l 1,12,-1
 57 582 l 1,13,-1
 48 594 l 1,14,-1
 55 674 l 1,15,-1
 330 674 l 1,16,-1
 81 1140 l 1,17,-1
 243 1140 l 1,18,-1
 269 1076 l 1,19,-1
 548 571 l 1,20,-1
 560 571 l 1,21,-1
 862 1071 l 1,22,-1
 895 1140 l 1,23,-1
 1055 1140 l 1,24,-1
 782 674 l 1,25,-1
 1055 674 l 1,26,-1
 1064 665 l 1,27,-1
 1057 582 l 1,28,-1
 727 582 l 1,29,-1
 622 403 l 1,30,-1
 622 370 l 1,31,-1
 1055 370 l 1,0,-1
EndSplineSet
EndChar

StartChar: brokenbar
Encoding: 166 166 104
Width: 720
GlyphClass: 2
Flags: W
LayerCount: 2
Fore
SplineSet
431 1817 m 1,0,-1
 429 856 l 1,1,-1
 302 840 l 1,2,-1
 287 853 l 1,3,-1
 287 1819 l 1,4,-1
 420 1828 l 1,5,-1
 431 1817 l 1,0,-1
429 346 m 1,6,-1
 429 -594 l 1,7,-1
 302 -601 l 1,8,-1
 287 -582 l 1,9,-1
 287 351 l 1,10,-1
 413 367 l 1,11,-1
 429 346 l 1,6,-1
EndSplineSet
EndChar

StartChar: section
Encoding: 167 167 105
Width: 963
GlyphClass: 2
Flags: W
LayerCount: 2
Fore
SplineSet
871 606 m 0,0,1
 871 512 871 512 814.5 431 c 128,-1,2
 758 350 758 350 659 302 c 1,3,4
 768 200 768 200 768 81 c 0,5,6
 768 18 768 18 739.5 -39 c 128,-1,7
 711 -96 711 -96 661.5 -138.5 c 128,-1,8
 612 -181 612 -181 540 -206.5 c 128,-1,9
 468 -232 468 -232 385 -232 c 0,10,11
 337 -232 337 -232 283.5 -223 c 128,-1,12
 230 -214 230 -214 177 -197 c 128,-1,13
 124 -180 124 -180 81 -158 c 1,14,-1
 103 -2 l 1,15,-1
 124 11 l 1,16,17
 188 -48 188 -48 260.5 -80 c 128,-1,18
 333 -112 333 -112 403 -112 c 0,19,20
 497 -112 497 -112 555 -62 c 128,-1,21
 613 -12 613 -12 613 53 c 0,22,23
 613 94 613 94 584.5 133.5 c 128,-1,24
 556 173 556 173 511.5 207 c 128,-1,25
 467 241 467 241 412.5 275.5 c 128,-1,26
 358 310 358 310 303.5 349 c 128,-1,27
 249 388 249 388 204 430.5 c 128,-1,28
 159 473 159 473 131 529.5 c 128,-1,29
 103 586 103 586 103 650 c 0,30,31
 103 743 103 743 161 824.5 c 128,-1,32
 219 906 219 906 317 956 c 1,33,34
 208 1057 208 1057 208 1173 c 0,35,36
 208 1256 208 1256 255.5 1326.5 c 128,-1,37
 303 1397 303 1397 389 1439.5 c 128,-1,38
 475 1482 475 1482 580 1482 c 0,39,40
 714 1482 714 1482 832 1434 c 1,41,-1
 808 1278 l 1,42,-1
 782 1271 l 1,43,44
 658 1357 658 1357 553 1357 c 0,45,46
 511 1357 511 1357 474.5 1343 c 128,-1,47
 438 1329 438 1329 414 1306 c 128,-1,48
 390 1283 390 1283 376.5 1254.5 c 128,-1,49
 363 1226 363 1226 363 1197 c 0,50,51
 363 1161 363 1161 385 1126.5 c 128,-1,52
 407 1092 407 1092 442.5 1064 c 128,-1,53
 478 1036 478 1036 523.5 1004 c 128,-1,54
 569 972 569 972 617 943 c 128,-1,55
 665 914 665 914 710.5 877 c 128,-1,56
 756 840 756 840 792 802 c 128,-1,57
 828 764 828 764 849.5 713 c 128,-1,58
 871 662 871 662 871 606 c 0,0,1
556 385 m 1,59,60
 718 455 718 455 718 569 c 0,61,62
 718 596 718 596 709.5 621 c 128,-1,63
 701 646 701 646 683 669.5 c 128,-1,64
 665 693 665 693 646.5 712 c 128,-1,65
 628 731 628 731 596.5 754.5 c 128,-1,66
 565 778 565 778 543 793 c 128,-1,67
 521 808 521 808 482 833.5 c 128,-1,68
 443 859 443 859 422 874 c 1,69,70
 256 796 256 796 256 681 c 0,71,72
 256 652 256 652 269.5 623 c 128,-1,73
 283 594 283 594 301.5 572 c 128,-1,74
 320 550 320 550 354.5 522.5 c 128,-1,75
 389 495 389 495 415 478 c 128,-1,76
 441 461 441 461 486 431.5 c 128,-1,77
 531 402 531 402 556 385 c 1,59,60
EndSplineSet
EndChar

StartChar: dieresis
Encoding: 168 168 106
Width: 891
GlyphClass: 2
Flags: W
LayerCount: 2
Fore
SplineSet
271 1493 m 0,0,1
 316 1493 316 1493 341.5 1467 c 128,-1,2
 367 1441 367 1441 367 1397 c 0,3,4
 367 1348 367 1348 339.5 1318.5 c 128,-1,5
 312 1289 312 1289 264 1289 c 0,6,7
 219 1289 219 1289 193.5 1316 c 128,-1,8
 168 1343 168 1343 168 1390 c 128,-1,9
 168 1437 168 1437 196 1465 c 128,-1,10
 224 1493 224 1493 271 1493 c 0,0,1
631 1493 m 0,11,12
 675 1493 675 1493 701 1467 c 128,-1,13
 727 1441 727 1441 727 1397 c 0,14,15
 727 1365 727 1365 714.5 1340.5 c 128,-1,16
 702 1316 702 1316 678.5 1302.5 c 128,-1,17
 655 1289 655 1289 624 1289 c 0,18,19
 606 1289 606 1289 590.5 1293.5 c 128,-1,20
 575 1298 575 1298 563.5 1307 c 128,-1,21
 552 1316 552 1316 544 1328 c 128,-1,22
 536 1340 536 1340 532 1355.5 c 128,-1,23
 528 1371 528 1371 528 1390 c 0,24,25
 528 1437 528 1437 555.5 1465 c 128,-1,26
 583 1493 583 1493 631 1493 c 0,11,12
EndSplineSet
EndChar

StartChar: copyright
Encoding: 169 169 107
Width: 1570
GlyphClass: 2
Flags: W
LayerCount: 2
Fore
SplineSet
784 1372 m 128,-1,1
 936 1372 936 1372 1062.5 1321.5 c 128,-1,2
 1189 1271 1189 1271 1276.5 1180 c 128,-1,3
 1364 1089 1364 1089 1413 958.5 c 128,-1,4
 1462 828 1462 828 1462 672 c 128,-1,5
 1462 516 1462 516 1413 385.5 c 128,-1,6
 1364 255 1364 255 1276.5 164 c 128,-1,7
 1189 73 1189 73 1062.5 22.5 c 128,-1,8
 936 -28 936 -28 784 -28 c 128,-1,9
 632 -28 632 -28 505.5 22.5 c 128,-1,10
 379 73 379 73 291 164 c 128,-1,11
 203 255 203 255 154 385.5 c 128,-1,12
 105 516 105 516 105 672 c 128,-1,13
 105 828 105 828 154 958.5 c 128,-1,14
 203 1089 203 1089 291 1180 c 128,-1,15
 379 1271 379 1271 505.5 1321.5 c 128,-1,0
 632 1372 632 1372 784 1372 c 128,-1,1
784 1294 m 0,16,17
 604 1294 604 1294 468 1217 c 128,-1,18
 332 1140 332 1140 258 998.5 c 128,-1,19
 184 857 184 857 184 672 c 128,-1,20
 184 487 184 487 258 345.5 c 128,-1,21
 332 204 332 204 468 127 c 128,-1,22
 604 50 604 50 784 50 c 0,23,24
 873 50 873 50 953 70.5 c 128,-1,25
 1033 91 1033 91 1099 128.5 c 128,-1,26
 1165 166 1165 166 1218.5 221 c 128,-1,27
 1272 276 1272 276 1309 344.5 c 128,-1,28
 1346 413 1346 413 1365.5 496 c 128,-1,29
 1385 579 1385 579 1385 672 c 0,30,31
 1385 810 1385 810 1341.5 926.5 c 128,-1,32
 1298 1043 1298 1043 1219 1123.5 c 128,-1,33
 1140 1204 1140 1204 1028.5 1249 c 128,-1,34
 917 1294 917 1294 784 1294 c 0,16,17
819 1066 m 0,35,36
 931 1066 931 1066 1035 1014 c 1,37,-1
 1007 911 l 1,38,-1
 996 906 l 1,39,40
 919 959 919 959 814 959 c 0,41,42
 699 959 699 959 639.5 890 c 128,-1,43
 580 821 580 821 580 685 c 0,44,45
 580 543 580 543 639.5 469.5 c 128,-1,46
 699 396 699 396 814 396 c 0,47,48
 861 396 861 396 914 410.5 c 128,-1,49
 967 425 967 425 1009 449 c 1,50,-1
 1023 445 l 1,51,-1
 1011 342 l 1,52,53
 915 289 915 289 805 289 c 0,54,55
 629 289 629 289 538 388 c 128,-1,56
 447 487 447 487 447 674 c 0,57,58
 447 862 447 862 543.5 964 c 128,-1,59
 640 1066 640 1066 819 1066 c 0,35,36
EndSplineSet
EndChar

StartChar: ordfeminine
Encoding: 170 170 108
Width: 733
GlyphClass: 2
Flags: W
AnchorPoint: "Anchor-1" 0 0 basechar 0
AnchorPoint: "Anchor-0" 389 700 basechar 0
LayerCount: 2
Fore
SplineSet
381 1488 m 0,0,1
 455 1488 455 1488 507 1465.5 c 128,-1,2
 559 1443 559 1443 586 1399.5 c 128,-1,3
 613 1356 613 1356 613 1294 c 0,4,5
 613 1271 613 1271 606 1118 c 128,-1,6
 599 965 599 965 599 948 c 0,7,8
 599 925 599 925 602.5 912 c 128,-1,9
 606 899 606 899 614 892.5 c 128,-1,10
 622 886 622 886 635 886 c 0,11,12
 663 886 663 886 679 899 c 1,13,-1
 692 890 l 1,14,-1
 674 799 l 1,15,16
 631 764 631 764 578 764 c 0,17,18
 528 764 528 764 503 788.5 c 128,-1,19
 478 813 478 813 466 874 c 1,20,-1
 461 874 l 1,21,22
 376 781 376 781 289 762 c 1,23,24
 189 765 189 765 133.5 818.5 c 128,-1,25
 78 872 78 872 78 965 c 0,26,27
 78 1109 78 1109 227 1136 c 2,28,-1
 459 1179 l 1,29,-1
 461 1263 l 1,30,31
 461 1372 461 1372 353 1372 c 0,32,33
 265 1372 265 1372 144 1287 c 1,34,-1
 131 1291 l 1,35,-1
 110 1399 l 1,36,37
 245 1488 245 1488 381 1488 c 0,0,1
455 1099 m 1,38,-1
 293 1062 l 1,39,40
 225 1048 225 1048 225 979 c 0,41,42
 225 934 225 934 250 906 c 128,-1,43
 275 878 275 878 319 878 c 0,44,45
 340 878 340 878 362.5 887.5 c 128,-1,46
 385 897 385 897 408 916 c 128,-1,47
 431 935 431 935 451 961 c 1,48,-1
 455 1099 l 1,38,-1
EndSplineSet
EndChar

StartChar: guillemetleft
Encoding: 171 171 109
Width: 912
GlyphClass: 2
Flags: W
LayerCount: 2
Fore
SplineSet
46 495 m 1,0,-1
 46 532 l 1,1,-1
 379 931 l 1,2,-1
 468 880 l 1,3,-1
 470 858 l 1,4,-1
 186 516 l 1,5,-1
 470 175 l 1,6,-1
 468 153 l 1,7,-1
 379 103 l 1,8,-1
 46 495 l 1,0,-1
427 495 m 1,9,-1
 427 532 l 1,10,-1
 759 931 l 1,11,-1
 849 880 l 1,12,-1
 851 858 l 1,13,-1
 567 516 l 1,14,-1
 851 175 l 1,15,-1
 849 153 l 1,16,-1
 759 103 l 1,17,-1
 427 495 l 1,9,-1
EndSplineSet
EndChar

StartChar: logicalnot
Encoding: 172 172 110
Width: 1100
GlyphClass: 2
Flags: W
LayerCount: 2
Fore
SplineSet
972 656 m 1,0,-1
 972 138 l 1,1,-1
 858 129 l 1,2,-1
 844 142 l 1,3,-1
 844 543 l 1,4,-1
 78 543 l 1,5,-1
 66 558 l 1,6,-1
 76 672 l 1,7,-1
 959 672 l 1,8,-1
 972 656 l 1,0,-1
EndSplineSet
EndChar

StartChar: softhyphen
Encoding: 173 173 111
Width: 703
GlyphClass: 2
Flags: W
LayerCount: 2
Fore
SplineSet
637 672 m 1,0,-1
 637 558 l 1,1,-1
 85 477 l 1,2,-1
 66 495 l 1,3,-1
 66 610 l 1,4,-1
 622 688 l 1,5,-1
 637 672 l 1,0,-1
EndSplineSet
EndChar

StartChar: registered
Encoding: 174 174 112
Width: 1006
GlyphClass: 2
Flags: W
LayerCount: 2
Fore
SplineSet
505 1611 m 0,0,1
 692 1611 692 1611 806 1496.5 c 128,-1,2
 920 1382 920 1382 920 1195 c 0,3,4
 920 1007 920 1007 806 892 c 128,-1,5
 692 777 692 777 505 777 c 256,6,7
 318 777 318 777 202.5 892.5 c 128,-1,8
 87 1008 87 1008 87 1195 c 0,9,10
 87 1319 87 1319 139.5 1413.5 c 128,-1,11
 192 1508 192 1508 286.5 1559.5 c 128,-1,12
 381 1611 381 1611 505 1611 c 0,0,1
507 838 m 0,13,14
 667 838 667 838 764.5 935.5 c 128,-1,15
 862 1033 862 1033 862 1195 c 256,16,17
 862 1357 862 1357 765 1453.5 c 128,-1,18
 668 1550 668 1550 507 1550 c 0,19,20
 400 1550 400 1550 319 1506.5 c 128,-1,21
 238 1463 238 1463 193.5 1382.5 c 128,-1,22
 149 1302 149 1302 149 1195 c 0,23,24
 149 1033 149 1033 247 935.5 c 128,-1,25
 345 838 345 838 507 838 c 0,13,14
670 1300 m 0,26,27
 670 1259 670 1259 646.5 1223 c 128,-1,28
 623 1187 623 1187 580 1165 c 1,29,30
 622 1099 622 1099 700 1005 c 1,31,-1
 698 996 l 1,32,33
 668 987 668 987 617 982 c 1,34,-1
 608 989 l 1,35,36
 558 1060 558 1060 510 1145 c 1,37,-1
 431 1145 l 1,38,-1
 431 1129 l 1,39,-1
 436 989 l 1,40,-1
 353 989 l 1,41,-1
 355 1121 l 1,42,-1
 353 1431 l 1,43,-1
 521 1431 l 2,44,45
 594 1431 594 1431 632 1398 c 128,-1,46
 670 1365 670 1365 670 1300 c 0,26,27
433 1213 m 1,47,-1
 516 1208 l 1,48,49
 585 1232 585 1232 585 1294 c 0,50,51
 585 1366 585 1366 495 1370 c 1,52,-1
 436 1368 l 1,53,-1
 433 1213 l 1,47,-1
EndSplineSet
EndChar

StartChar: macron
Encoding: 175 175 113
Width: 891
GlyphClass: 2
Flags: W
LayerCount: 2
Fore
SplineSet
784 1443 m 1,0,-1
 773 1335 l 1,1,-1
 124 1335 l 1,2,-1
 110 1348 l 1,3,-1
 122 1454 l 1,4,-1
 771 1454 l 1,5,-1
 784 1443 l 1,0,-1
EndSplineSet
EndChar

StartChar: degree
Encoding: 176 176 114
Width: 672
GlyphClass: 2
Flags: W
LayerCount: 2
Fore
SplineSet
337 1484 m 0,0,1
 416 1484 416 1484 482.5 1446.5 c 128,-1,2
 549 1409 549 1409 587.5 1343.5 c 128,-1,3
 626 1278 626 1278 626 1200 c 0,4,5
 626 1080 626 1080 541.5 996.5 c 128,-1,6
 457 913 457 913 337 913 c 0,7,8
 215 913 215 913 130.5 996 c 128,-1,9
 46 1079 46 1079 46 1200 c 0,10,11
 46 1319 46 1319 130.5 1401.5 c 128,-1,12
 215 1484 215 1484 337 1484 c 0,0,1
335 1394 m 0,13,14
 254 1394 254 1394 196 1337 c 128,-1,15
 138 1280 138 1280 138 1199.5 c 128,-1,16
 138 1119 138 1119 196 1062 c 128,-1,17
 254 1005 254 1005 335 1005 c 0,18,19
 417 1005 417 1005 475.5 1062 c 128,-1,20
 534 1119 534 1119 534 1199.5 c 128,-1,21
 534 1280 534 1280 475.5 1337 c 128,-1,22
 417 1394 417 1394 335 1394 c 0,13,14
EndSplineSet
EndChar

StartChar: plusminus
Encoding: 177 177 115
Width: 1100
GlyphClass: 2
Flags: W
LayerCount: 2
Fore
SplineSet
615 1073 m 1,0,-1
 615 672 l 1,1,-1
 1016 672 l 1,2,-1
 1030 659 l 1,3,-1
 1020 543 l 1,4,-1
 615 543 l 1,5,-1
 615 138 l 1,6,-1
 503 129 l 1,7,-1
 486 142 l 1,8,-1
 486 543 l 1,9,-1
 85 543 l 1,10,-1
 71 558 l 1,11,-1
 83 672 l 1,12,-1
 486 672 l 1,13,-1
 486 1079 l 1,14,-1
 601 1090 l 1,15,-1
 615 1073 l 1,0,-1
1030 -96 m 1,16,-1
 1018 -208 l 1,17,-1
 85 -208 l 1,18,-1
 71 -197 l 1,19,-1
 83 -83 l 1,20,-1
 1016 -83 l 1,21,-1
 1030 -96 l 1,16,-1
EndSplineSet
EndChar

StartChar: twosuperior
Encoding: 178 178 116
Width: 799
GlyphClass: 2
Flags: W
LayerCount: 2
Fore
SplineSet
405 1617 m 0,0,1
 475 1617 475 1617 530.5 1594 c 128,-1,2
 586 1571 586 1571 619 1526 c 128,-1,3
 652 1481 652 1481 652 1420 c 0,4,5
 652 1354 652 1354 606.5 1274.5 c 128,-1,6
 561 1195 561 1195 457 1066 c 1,7,-1
 302 871 l 1,8,-1
 307 867 l 1,9,-1
 589 867 l 1,10,-1
 736 874 l 1,11,-1
 744 860 l 1,12,-1
 725 734 l 1,13,-1
 541 741 l 1,14,-1
 160 741 l 1,15,-1
 99 738 l 1,16,-1
 90 746 l 1,17,-1
 90 842 l 1,18,-1
 315 1103 l 1,19,20
 363 1162 363 1162 387.5 1193.5 c 128,-1,21
 412 1225 412 1225 438.5 1264 c 128,-1,22
 465 1303 465 1303 475.5 1331.5 c 128,-1,23
 486 1360 486 1360 486 1385 c 0,24,25
 486 1429 486 1429 456 1457.5 c 128,-1,26
 426 1486 426 1486 370 1486 c 0,27,28
 312 1486 312 1486 252 1455.5 c 128,-1,29
 192 1425 192 1425 144 1370 c 1,30,-1
 124 1370 l 1,31,-1
 99 1491 l 1,32,33
 247 1617 247 1617 405 1617 c 0,0,1
EndSplineSet
EndChar

StartChar: threesuperior
Encoding: 179 179 117
Width: 705
GlyphClass: 2
Flags: W
LayerCount: 2
Fore
SplineSet
326 1620 m 0,0,1
 438 1620 438 1620 505.5 1565.5 c 128,-1,2
 573 1511 573 1511 573 1422 c 0,3,4
 573 1361 573 1361 537 1303.5 c 128,-1,5
 501 1246 501 1246 431 1213 c 1,6,-1
 431 1204 l 1,7,8
 517 1181 517 1181 561.5 1128 c 128,-1,9
 606 1075 606 1075 606 996 c 0,10,11
 606 877 606 877 505.5 804 c 128,-1,12
 405 731 405 731 243 731 c 0,13,14
 160 731 160 731 87 748 c 1,15,-1
 76 862 l 1,16,-1
 90 874 l 1,17,18
 172 853 172 853 245 853 c 0,19,20
 340 853 340 853 393.5 892 c 128,-1,21
 447 931 447 931 447 998 c 0,22,23
 447 1059 447 1059 406 1093 c 128,-1,24
 365 1127 365 1127 287 1129 c 1,25,-1
 188 1129 l 1,26,-1
 179 1140 l 1,27,-1
 181 1248 l 1,28,-1
 250 1248 l 2,29,30
 308 1248 308 1248 359.5 1290.5 c 128,-1,31
 411 1333 411 1333 411 1392 c 0,32,33
 411 1440 411 1440 379 1466.5 c 128,-1,34
 347 1493 347 1493 291 1493 c 0,35,36
 211 1493 211 1493 110 1422 c 1,37,-1
 94 1422 l 1,38,-1
 68 1530 l 1,39,40
 187 1620 187 1620 326 1620 c 0,0,1
EndSplineSet
EndChar

StartChar: acute
Encoding: 180 180 118
Width: 891
GlyphClass: 2
Flags: W
LayerCount: 2
Fore
SplineSet
613 1596 m 1,0,-1
 681 1500 l 1,1,-1
 676 1482 l 1,2,3
 439 1297 439 1297 287 1191 c 1,4,-1
 267 1193 l 1,5,-1
 216 1266 l 1,6,7
 430 1440 430 1440 591 1598 c 1,8,-1
 613 1596 l 1,0,-1
EndSplineSet
EndChar

StartChar: micro
Encoding: 181 181 119
Width: 1171
GlyphClass: 2
Flags: W
LayerCount: 2
Fore
SplineSet
1121 136 m 1,0,-1
 1099 32 l 1,1,2
 1041 -11 1041 -11 965 -11 c 0,3,4
 901 -11 901 -11 863 24.5 c 128,-1,5
 825 60 825 60 810 138 c 1,6,-1
 792 138 l 1,7,8
 653 15 653 15 495 -13 c 1,9,10
 406 -13 406 -13 339 22 c 1,11,-1
 339 -424 l 1,12,-1
 168 -424 l 1,13,-1
 175 445 l 1,14,-1
 168 1039 l 1,15,-1
 339 1055 l 1,16,-1
 339 296 l 1,17,18
 350 221 350 221 396 180.5 c 128,-1,19
 442 140 442 140 519 140 c 0,20,21
 655 140 655 140 799 280 c 1,22,-1
 799 1039 l 1,23,-1
 972 1055 l 1,24,-1
 961 236 l 1,25,26
 958 122 958 122 1025 122 c 0,27,28
 1059 122 1059 122 1103 149 c 1,29,-1
 1121 136 l 1,0,-1
EndSplineSet
EndChar

StartChar: paragraph
Encoding: 182 182 120
Width: 1112
GlyphClass: 2
Flags: W
LayerCount: 2
Fore
SplineSet
1053 1452 m 1,0,-1
 1039 1326 l 1,1,-1
 869 1326 l 1,2,-1
 862 420 l 1,3,-1
 865 296 l 1,4,5
 865 143 865 143 780.5 31.5 c 128,-1,6
 696 -80 696 -80 500 -177 c 1,7,-1
 447 -94 l 1,8,-1
 447 -71 l 1,9,10
 576 8 576 8 634 92 c 128,-1,11
 692 176 692 176 692 284 c 2,12,-1
 692 390 l 1,13,-1
 690 1328 l 1,14,-1
 556 1328 l 1,15,16
 423 1317 423 1317 350.5 1233.5 c 128,-1,17
 278 1150 278 1150 278 1009 c 0,18,19
 278 869 278 869 357 772 c 128,-1,20
 436 675 436 675 585 631 c 1,21,-1
 528 528 l 1,22,23
 388 555 388 555 290 618.5 c 128,-1,24
 192 682 192 682 139.5 782.5 c 128,-1,25
 87 883 87 883 87 1016 c 0,26,27
 87 1232 87 1232 217.5 1351.5 c 128,-1,28
 348 1471 348 1471 589 1471 c 2,29,-1
 1039 1471 l 1,30,-1
 1053 1452 l 1,0,-1
EndSplineSet
EndChar

StartChar: periodcentered
Encoding: 183 183 121
Width: 524
GlyphClass: 2
Flags: W
LayerCount: 2
Fore
SplineSet
267 670 m 0,0,1
 313 670 313 670 340 642 c 128,-1,2
 367 614 367 614 367 567 c 0,3,4
 367 517 367 517 337.5 487 c 128,-1,5
 308 457 308 457 259 457 c 0,6,7
 211 457 211 457 184.5 484.5 c 128,-1,8
 158 512 158 512 158 560 c 0,9,10
 158 610 158 610 187.5 640 c 128,-1,11
 217 670 217 670 267 670 c 0,0,1
EndSplineSet
EndChar

StartChar: cedilla
Encoding: 184 184 122
Width: 891
GlyphClass: 2
Flags: W
LayerCount: 2
Fore
SplineSet
459 -116 m 1,0,-1
 536 -162 l 1,1,2
 624 -213 624 -213 624 -291 c 0,3,4
 624 -358 624 -358 572 -400 c 128,-1,5
 520 -442 520 -442 438 -442 c 0,6,7
 340 -442 340 -442 273 -372 c 1,8,-1
 289 -280 l 1,9,-1
 300 -278 l 1,10,11
 322 -302 322 -302 339.5 -316 c 128,-1,12
 357 -330 357 -330 380.5 -339 c 128,-1,13
 404 -348 404 -348 431 -348 c 0,14,15
 463 -348 463 -348 483 -331.5 c 128,-1,16
 503 -315 503 -315 503 -287 c 0,17,18
 503 -268 503 -268 491.5 -256 c 128,-1,19
 480 -244 480 -244 455 -230 c 1,20,-1
 344 -162 l 1,21,-1
 401 44 l 1,22,-1
 507 44 l 1,23,-1
 459 -116 l 1,0,-1
EndSplineSet
EndChar

StartChar: onesuperior
Encoding: 185 185 123
Width: 591
GlyphClass: 2
Flags: W
LayerCount: 2
Fore
SplineSet
388 1602 m 1,0,-1
 383 1051 l 1,1,-1
 388 741 l 1,2,-1
 225 741 l 1,3,-1
 230 1030 l 1,4,-1
 230 1440 l 1,5,-1
 46 1392 l 1,6,-1
 32 1399 l 1,7,-1
 32 1528 l 1,8,-1
 367 1622 l 1,9,-1
 388 1602 l 1,0,-1
EndSplineSet
EndChar

StartChar: ordmasculine
Encoding: 186 186 124
Width: 777
GlyphClass: 2
Flags: W
AnchorPoint: "Anchor-1" 0 0 basechar 0
AnchorPoint: "Anchor-0" 417 692 basechar 0
LayerCount: 2
Fore
SplineSet
399 1488 m 0,0,1
 549 1488 549 1488 628 1397 c 128,-1,2
 707 1306 707 1306 707 1133 c 0,3,4
 707 954 707 954 622.5 856.5 c 128,-1,5
 538 759 538 759 381 759 c 0,6,7
 231 759 231 759 151 850.5 c 128,-1,8
 71 942 71 942 71 1114 c 0,9,10
 71 1295 71 1295 156 1391.5 c 128,-1,11
 241 1488 241 1488 399 1488 c 0,0,1
390 1372 m 0,12,13
 227 1372 227 1372 227 1131 c 0,14,15
 227 999 227 999 267 936.5 c 128,-1,16
 307 874 307 874 390 874 c 0,17,18
 445 874 445 874 481.5 899.5 c 128,-1,19
 518 925 518 925 537 979 c 128,-1,20
 556 1033 556 1033 556 1117 c 0,21,22
 556 1372 556 1372 390 1372 c 0,12,13
EndSplineSet
EndChar

StartChar: guillemetright
Encoding: 187 187 125
Width: 896
GlyphClass: 2
Flags: W
LayerCount: 2
Fore
SplineSet
475 541 m 1,0,-1
 475 505 l 1,1,-1
 142 105 l 1,2,-1
 53 156 l 1,3,-1
 50 179 l 1,4,-1
 335 521 l 1,5,-1
 50 862 l 1,6,-1
 53 883 l 1,7,-1
 142 934 l 1,8,-1
 475 541 l 1,0,-1
856 541 m 1,9,-1
 856 505 l 1,10,-1
 523 105 l 1,11,-1
 433 156 l 1,12,-1
 431 179 l 1,13,-1
 716 521 l 1,14,-1
 431 862 l 1,15,-1
 433 883 l 1,16,-1
 523 934 l 1,17,-1
 856 541 l 1,9,-1
EndSplineSet
EndChar

StartChar: onequarter
Encoding: 188 188 126
Width: 1609
GlyphClass: 2
Flags: W
LayerCount: 2
Fore
SplineSet
1287 1477 m 1,0,-1
 204 -208 l 1,1,-1
 124 -162 l 1,2,-1
 112 -136 l 1,3,-1
 1193 1556 l 1,4,-1
 1273 1510 l 1,5,-1
 1287 1477 l 1,0,-1
230 1303 m 1,6,-1
 46 1254 l 1,7,-1
 32 1261 l 1,8,-1
 32 1390 l 1,9,-1
 367 1484 l 1,10,-1
 388 1464 l 1,11,-1
 383 913 l 1,12,-1
 388 604 l 1,13,-1
 225 604 l 1,14,-1
 230 893 l 1,15,-1
 230 1303 l 1,6,-1
1523 225 m 1,16,-1
 1390 232 l 1,17,-1
 1399 13 l 1,18,-1
 1390 0 l 1,19,-1
 1261 -7 l 1,20,-1
 1252 2 l 1,21,-1
 1254 232 l 1,22,-1
 993 232 l 1,23,-1
 876 225 l 1,24,-1
 865 241 l 1,25,-1
 865 342 l 1,26,-1
 1241 869 l 1,27,-1
 1390 869 l 1,28,-1
 1388 351 l 1,29,-1
 1521 351 l 1,30,-1
 1532 337 l 1,31,-1
 1523 225 l 1,16,-1
1007 351 m 1,32,-1
 1257 351 l 1,33,-1
 1257 688 l 1,34,-1
 1245 688 l 1,35,-1
 1007 351 l 1,32,-1
EndSplineSet
EndChar

StartChar: onehalf
Encoding: 189 189 127
Width: 1641
GlyphClass: 2
Flags: W
LayerCount: 2
Fore
SplineSet
1273 1510 m 1,0,-1
 1287 1477 l 1,1,-1
 204 -208 l 1,2,-1
 124 -162 l 1,3,-1
 112 -136 l 1,4,-1
 1193 1556 l 1,5,-1
 1273 1510 l 1,0,-1
388 1464 m 1,6,-1
 383 913 l 1,7,-1
 388 604 l 1,8,-1
 225 604 l 1,9,-1
 230 893 l 1,10,-1
 230 1303 l 1,11,-1
 46 1254 l 1,12,-1
 32 1261 l 1,13,-1
 32 1390 l 1,14,-1
 367 1484 l 1,15,-1
 388 1464 l 1,6,-1
1248 876 m 0,16,17
 1354 876 1354 876 1423.5 823 c 128,-1,18
 1493 770 1493 770 1493 679 c 0,19,20
 1493 613 1493 613 1448 534.5 c 128,-1,21
 1403 456 1403 456 1298 326 c 1,22,-1
 1145 131 l 1,23,-1
 1149 127 l 1,24,-1
 1431 127 l 1,25,-1
 1578 133 l 1,26,-1
 1585 119 l 1,27,-1
 1567 -7 l 1,28,-1
 1383 0 l 1,29,-1
 1002 0 l 1,30,-1
 941 -2 l 1,31,-1
 931 4 l 1,32,-1
 931 101 l 1,33,-1
 1156 363 l 1,34,35
 1207 425 1207 425 1229.5 453.5 c 128,-1,36
 1252 482 1252 482 1280 522.5 c 128,-1,37
 1308 563 1308 563 1318 590.5 c 128,-1,38
 1328 618 1328 618 1328 644 c 0,39,40
 1328 688 1328 688 1297.5 717 c 128,-1,41
 1267 746 1267 746 1211 746 c 0,42,43
 1153 746 1153 746 1093.5 715 c 128,-1,44
 1034 684 1034 684 987 628 c 1,45,-1
 965 628 l 1,46,-1
 941 750 l 1,47,48
 1088 876 1088 876 1248 876 c 0,16,17
EndSplineSet
EndChar

StartChar: threequarters
Encoding: 190 190 128
Width: 1694
GlyphClass: 2
Flags: W
LayerCount: 2
Fore
SplineSet
1372 1477 m 1,0,-1
 289 -208 l 1,1,-1
 208 -162 l 1,2,-1
 197 -136 l 1,3,-1
 1278 1556 l 1,4,-1
 1357 1510 l 1,5,-1
 1372 1477 l 1,0,-1
606 858 m 0,6,7
 606 740 606 740 505.5 667 c 128,-1,8
 405 594 405 594 243 594 c 0,9,10
 160 594 160 594 87 610 c 1,11,-1
 76 725 l 1,12,-1
 90 736 l 1,13,14
 172 716 172 716 245 716 c 0,15,16
 308 716 308 716 353.5 733 c 128,-1,17
 399 750 399 750 423 783 c 128,-1,18
 447 816 447 816 447 860 c 0,19,20
 447 921 447 921 406 955.5 c 128,-1,21
 365 990 365 990 287 991 c 1,22,-1
 188 991 l 1,23,-1
 179 1002 l 1,24,-1
 181 1110 l 1,25,-1
 250 1110 l 2,26,27
 277 1110 277 1110 306 1121 c 128,-1,28
 335 1132 335 1132 358 1151 c 128,-1,29
 381 1170 381 1170 396 1197 c 128,-1,30
 411 1224 411 1224 411 1254 c 0,31,32
 411 1302 411 1302 379 1328.5 c 128,-1,33
 347 1355 347 1355 291 1355 c 0,34,35
 211 1355 211 1355 110 1285 c 1,36,-1
 94 1285 l 1,37,-1
 68 1392 l 1,38,39
 187 1482 187 1482 326 1482 c 0,40,41
 400 1482 400 1482 456 1457.5 c 128,-1,42
 512 1433 512 1433 542.5 1388 c 128,-1,43
 573 1343 573 1343 573 1285 c 0,44,45
 573 1223 573 1223 537 1166 c 128,-1,46
 501 1109 501 1109 431 1076 c 1,47,-1
 431 1066 l 1,48,49
 517 1044 517 1044 561.5 990.5 c 128,-1,50
 606 937 606 937 606 858 c 0,6,7
1608 225 m 1,51,-1
 1475 232 l 1,52,-1
 1484 13 l 1,53,-1
 1475 0 l 1,54,-1
 1346 -7 l 1,55,-1
 1337 2 l 1,56,-1
 1340 232 l 1,57,-1
 1079 232 l 1,58,-1
 961 225 l 1,59,-1
 950 241 l 1,60,-1
 950 342 l 1,61,-1
 1326 869 l 1,62,-1
 1475 869 l 1,63,-1
 1473 351 l 1,64,-1
 1606 351 l 1,65,-1
 1617 337 l 1,66,-1
 1608 225 l 1,51,-1
1092 351 m 1,67,-1
 1342 351 l 1,68,-1
 1342 688 l 1,69,-1
 1331 688 l 1,70,-1
 1092 351 l 1,67,-1
EndSplineSet
EndChar

StartChar: questiondown
Encoding: 191 191 129
Width: 758
GlyphClass: 2
Flags: W
LayerCount: 2
Fore
SplineSet
431 860 m 0,0,1
 385 860 385 860 357.5 887.5 c 128,-1,2
 330 915 330 915 330 963 c 0,3,4
 330 1013 330 1013 359.5 1043 c 128,-1,5
 389 1073 389 1073 438 1073 c 0,6,7
 486 1073 486 1073 512.5 1045 c 128,-1,8
 539 1017 539 1017 539 968 c 256,9,10
 539 919 539 919 509.5 889.5 c 128,-1,11
 480 860 480 860 431 860 c 0,0,1
596 -442 m 1,12,-1
 573 -455 l 1,13,14
 298 -438 298 -438 149 -344 c 128,-1,15
 0 -250 0 -250 0 -94 c 0,16,17
 0 -4 0 -4 49.5 75.5 c 128,-1,18
 99 155 99 155 193 213 c 1,19,-1
 383 337 l 1,20,-1
 388 346 l 1,21,-1
 374 567 l 1,22,-1
 503 582 l 1,23,-1
 519 567 l 1,24,-1
 536 302 l 1,25,-1
 525 280 l 1,26,-1
 305 149 l 2,27,28
 237 109 237 109 201 54 c 128,-1,29
 165 -1 165 -1 165 -66 c 0,30,31
 165 -141 165 -141 213.5 -195 c 128,-1,32
 262 -249 262 -249 363.5 -282 c 128,-1,33
 465 -315 465 -315 617 -324 c 1,34,-1
 631 -342 l 1,35,-1
 596 -442 l 1,12,-1
EndSplineSet
EndChar

StartChar: Agrave
Encoding: 192 192 130
Width: 1324
GlyphClass: 2
Flags: W
AnchorPoint: "Anchor-1" 0 0 basechar 0
AnchorPoint: "Anchor-0" 665 1470 basechar 0
LayerCount: 2
Fore
SplineSet
888 1663 m 1,0,-1
 865 1654 l 1,1,2
 615 1759 615 1759 418 1851 c 1,3,-1
 413 1869 l 1,4,-1
 459 1977 l 1,5,-1
 479 1981 l 1,6,7
 679 1864 679 1864 920 1746 c 1,8,-1
 888 1663 l 1,0,-1
1278 0 m 1,9,-1
 1088 0 l 1,10,-1
 1055 147 l 1,11,-1
 972 399 l 1,12,-1
 640 405 l 1,13,-1
 342 399 l 1,14,-1
 252 156 l 1,15,-1
 216 0 l 1,16,-1
 32 0 l 1,17,-1
 573 1471 l 1,18,-1
 786 1471 l 1,19,-1
 1278 0 l 1,9,-1
920 556 m 1,20,-1
 681 1280 l 1,21,-1
 665 1280 l 1,22,-1
 399 556 l 1,23,-1
 656 551 l 1,24,-1
 920 556 l 1,20,-1
EndSplineSet
Position2: "'cpsp' Capital Spacing lookup 0 subtable" dx=16 dy=0 dh=33 dv=0
EndChar

StartChar: Aacute
Encoding: 193 193 131
Width: 1324
GlyphClass: 2
Flags: W
AnchorPoint: "Anchor-1" 0 0 basechar 0
AnchorPoint: "Anchor-0" 665 1470 basechar 0
LayerCount: 2
Fore
SplineSet
505 1661 m 1,0,-1
 473 1743 l 1,1,2
 702 1855 702 1855 913 1979 c 1,3,-1
 934 1975 l 1,4,-1
 979 1867 l 1,5,-1
 974 1849 l 1,6,7
 777 1757 777 1757 528 1652 c 1,8,-1
 505 1661 l 1,0,-1
1278 0 m 1,9,-1
 1088 0 l 1,10,-1
 1055 147 l 1,11,-1
 972 399 l 1,12,-1
 640 405 l 1,13,-1
 342 399 l 1,14,-1
 252 156 l 1,15,-1
 216 0 l 1,16,-1
 32 0 l 1,17,-1
 573 1471 l 1,18,-1
 786 1471 l 1,19,-1
 1278 0 l 1,9,-1
920 556 m 1,20,-1
 681 1280 l 1,21,-1
 665 1280 l 1,22,-1
 399 556 l 1,23,-1
 656 551 l 1,24,-1
 920 556 l 1,20,-1
EndSplineSet
Position2: "'cpsp' Capital Spacing lookup 0 subtable" dx=16 dy=0 dh=33 dv=0
EndChar

StartChar: Acircumflex
Encoding: 194 194 132
Width: 1324
GlyphClass: 2
Flags: W
AnchorPoint: "Anchor-1" 0 0 basechar 0
AnchorPoint: "Anchor-0" 665 1470 basechar 0
LayerCount: 2
Fore
SplineSet
409 1681 m 1,0,-1
 372 1760 l 1,1,2
 524 1864 524 1864 637 1968 c 1,3,-1
 690 1968 l 1,4,5
 793 1876 793 1876 959 1760 c 1,6,-1
 922 1681 l 1,7,-1
 902 1681 l 1,8,9
 784 1753 784 1753 665 1832 c 1,10,11
 560 1761 560 1761 431 1681 c 1,12,-1
 409 1681 l 1,0,-1
1278 0 m 1,13,-1
 1088 0 l 1,14,-1
 1055 147 l 1,15,-1
 972 399 l 1,16,-1
 640 405 l 1,17,-1
 342 399 l 1,18,-1
 252 156 l 1,19,-1
 216 0 l 1,20,-1
 32 0 l 1,21,-1
 573 1471 l 1,22,-1
 786 1471 l 1,23,-1
 1278 0 l 1,13,-1
920 556 m 1,24,-1
 681 1280 l 1,25,-1
 665 1280 l 1,26,-1
 399 556 l 1,27,-1
 656 551 l 1,28,-1
 920 556 l 1,24,-1
EndSplineSet
Position2: "'cpsp' Capital Spacing lookup 0 subtable" dx=16 dy=0 dh=33 dv=0
EndChar

StartChar: Atilde
Encoding: 195 195 133
Width: 1324
GlyphClass: 2
Flags: W
AnchorPoint: "Anchor-1" 0 0 basechar 0
AnchorPoint: "Anchor-0" 665 1470 basechar 0
LayerCount: 2
Fore
SplineSet
357 1683 m 1,0,-1
 302 1743 l 1,1,-1
 302 1760 l 1,2,-1
 442 1917 l 1,3,-1
 466 1924 l 1,4,5
 514 1919 514 1919 653 1880.5 c 128,-1,6
 792 1842 792 1842 821 1842 c 0,7,8
 831 1842 831 1842 841.5 1847 c 128,-1,9
 852 1852 852 1852 865.5 1863.5 c 128,-1,10
 879 1875 879 1875 889.5 1885.5 c 128,-1,11
 900 1896 900 1896 919.5 1915.5 c 128,-1,12
 939 1935 939 1935 952 1948 c 1,13,-1
 970 1948 l 1,14,-1
 1025 1891 l 1,15,-1
 1025 1872 l 1,16,-1
 886 1714 l 1,17,-1
 862 1707 l 1,18,19
 815 1711 815 1711 676 1751 c 128,-1,20
 537 1791 537 1791 507 1791 c 0,21,22
 499 1791 499 1791 489.5 1786.5 c 128,-1,23
 480 1782 480 1782 471.5 1776 c 128,-1,24
 463 1770 463 1770 451 1758.5 c 128,-1,25
 439 1747 439 1747 429.5 1737 c 128,-1,26
 420 1727 420 1727 405 1711 c 128,-1,27
 390 1695 390 1695 379 1683 c 1,28,-1
 357 1683 l 1,0,-1
1278 0 m 1,29,-1
 1088 0 l 1,30,-1
 1055 147 l 1,31,-1
 972 399 l 1,32,-1
 640 405 l 1,33,-1
 342 399 l 1,34,-1
 252 156 l 1,35,-1
 216 0 l 1,36,-1
 32 0 l 1,37,-1
 573 1471 l 1,38,-1
 786 1471 l 1,39,-1
 1278 0 l 1,29,-1
920 556 m 1,40,-1
 681 1280 l 1,41,-1
 665 1280 l 1,42,-1
 399 556 l 1,43,-1
 656 551 l 1,44,-1
 920 556 l 1,40,-1
EndSplineSet
Position2: "'cpsp' Capital Spacing lookup 0 subtable" dx=16 dy=0 dh=33 dv=0
EndChar

StartChar: Adieresis
Encoding: 196 196 134
Width: 1324
GlyphClass: 2
Flags: W
AnchorPoint: "Anchor-1" 0 0 basechar 0
AnchorPoint: "Anchor-0" 665 1470 basechar 0
LayerCount: 2
Fore
SplineSet
484 1707 m 0,0,1
 438 1707 438 1707 413 1734 c 128,-1,2
 388 1761 388 1761 388 1807.5 c 128,-1,3
 388 1854 388 1854 415.5 1882.5 c 128,-1,4
 443 1911 443 1911 491 1911 c 0,5,6
 535 1911 535 1911 561 1885 c 128,-1,7
 587 1859 587 1859 587 1814 c 0,8,9
 587 1766 587 1766 559 1736.5 c 128,-1,10
 531 1707 531 1707 484 1707 c 0,0,1
844 1707 m 0,11,12
 799 1707 799 1707 773.5 1734 c 128,-1,13
 748 1761 748 1761 748 1807.5 c 128,-1,14
 748 1854 748 1854 776 1882.5 c 128,-1,15
 804 1911 804 1911 851 1911 c 0,16,17
 896 1911 896 1911 922 1885 c 128,-1,18
 948 1859 948 1859 948 1814 c 0,19,20
 948 1766 948 1766 920 1736.5 c 128,-1,21
 892 1707 892 1707 844 1707 c 0,11,12
1278 0 m 1,22,-1
 1088 0 l 1,23,-1
 1055 147 l 1,24,-1
 972 399 l 1,25,-1
 640 405 l 1,26,-1
 342 399 l 1,27,-1
 252 156 l 1,28,-1
 216 0 l 1,29,-1
 32 0 l 1,30,-1
 573 1471 l 1,31,-1
 786 1471 l 1,32,-1
 1278 0 l 1,22,-1
920 556 m 1,33,-1
 681 1280 l 1,34,-1
 665 1280 l 1,35,-1
 399 556 l 1,36,-1
 656 551 l 1,37,-1
 920 556 l 1,33,-1
EndSplineSet
Position2: "'cpsp' Capital Spacing lookup 0 subtable" dx=16 dy=0 dh=33 dv=0
EndChar

StartChar: Aring
Encoding: 197 197 135
Width: 1324
GlyphClass: 2
Flags: W
AnchorPoint: "Anchor-1" 0 0 basechar 0
AnchorPoint: "Anchor-0" 665 1470 basechar 0
LayerCount: 2
Fore
SplineSet
659 1637 m 0,0,1
 575 1637 575 1637 522.5 1687 c 128,-1,2
 470 1737 470 1737 470 1826 c 0,3,4
 470 1912 470 1912 522.5 1964 c 128,-1,5
 575 2016 575 2016 665 2016 c 0,6,7
 756 2016 756 2016 806 1964 c 128,-1,8
 856 1912 856 1912 856 1830 c 0,9,10
 856 1740 856 1740 800 1688.5 c 128,-1,11
 744 1637 744 1637 659 1637 c 0,0,1
661 1926 m 0,12,13
 612 1926 612 1926 585 1900 c 128,-1,14
 558 1874 558 1874 558 1828 c 0,15,16
 558 1778 558 1778 586.5 1751.5 c 128,-1,17
 615 1725 615 1725 663 1725 c 0,18,19
 693 1725 693 1725 716 1735.5 c 128,-1,20
 739 1746 739 1746 752.5 1768.5 c 128,-1,21
 766 1791 766 1791 766 1823 c 256,22,23
 766 1855 766 1855 754.5 1877.5 c 128,-1,24
 743 1900 743 1900 719 1913 c 128,-1,25
 695 1926 695 1926 661 1926 c 0,12,13
1278 0 m 1,26,-1
 1088 0 l 1,27,-1
 1055 147 l 1,28,-1
 972 399 l 1,29,-1
 640 405 l 1,30,-1
 342 399 l 1,31,-1
 252 156 l 1,32,-1
 216 0 l 1,33,-1
 32 0 l 1,34,-1
 573 1471 l 1,35,-1
 786 1471 l 1,36,-1
 1278 0 l 1,26,-1
920 556 m 1,37,-1
 681 1280 l 1,38,-1
 665 1280 l 1,39,-1
 399 556 l 1,40,-1
 656 551 l 1,41,-1
 920 556 l 1,37,-1
EndSplineSet
Position2: "'cpsp' Capital Spacing lookup 0 subtable" dx=16 dy=0 dh=33 dv=0
EndChar

StartChar: AE
Encoding: 198 198 136
Width: 1850
GlyphClass: 2
Flags: W
AnchorPoint: "Anchor-1" 0 0 basechar 0
AnchorPoint: "Anchor-0" 1142 1470 basechar 0
LayerCount: 2
Fore
SplineSet
1817 142 m 1,0,-1
 1801 0 l 1,1,-1
 1002 0 l 1,2,-1
 991 147 l 1,3,-1
 924 594 l 1,4,-1
 379 470 l 1,5,-1
 211 156 l 1,6,-1
 153 0 l 1,7,-1
 -37 0 l 1,8,-1
 738 1471 l 1,9,-1
 1594 1471 l 1,10,-1
 1608 1452 l 1,11,-1
 1589 1309 l 1,12,-1
 1217 1319 l 1,13,-1
 996 1319 l 1,14,-1
 1076 775 l 1,15,-1
 1569 878 l 1,16,-1
 1585 865 l 1,17,-1
 1594 731 l 1,18,-1
 1096 633 l 1,19,-1
 1167 149 l 1,20,-1
 1427 149 l 1,21,-1
 1803 160 l 1,22,-1
 1817 142 l 1,0,-1
902 738 m 1,23,-1
 821 1280 l 1,24,-1
 808 1280 l 1,25,-1
 470 644 l 1,26,-1
 902 738 l 1,23,-1
EndSplineSet
Position2: "'cpsp' Capital Spacing lookup 0 subtable" dx=16 dy=0 dh=33 dv=0
EndChar

StartChar: Ccedilla
Encoding: 199 199 137
Width: 1191
GlyphClass: 2
Flags: W
AnchorPoint: "Anchor-1" 704 0 basechar 0
AnchorPoint: "Anchor-0" 720 1470 basechar 0
LayerCount: 2
Fore
SplineSet
725 140 m 0,0,1
 827 140 827 140 926.5 177 c 128,-1,2
 1026 214 1026 214 1108 280 c 1,3,-1
 1131 269 l 1,4,-1
 1114 94 l 1,5,6
 939 -4 939 -4 757 -13 c 1,7,-1
 727 -116 l 1,8,-1
 805 -162 l 2,9,10
 893 -213 893 -213 893 -291 c 0,11,12
 893 -324 893 -324 879 -352.5 c 128,-1,13
 865 -381 865 -381 841 -400.5 c 128,-1,14
 817 -420 817 -420 782 -431 c 128,-1,15
 747 -442 747 -442 707 -442 c 0,16,17
 607 -442 607 -442 541 -372 c 1,18,-1
 558 -280 l 1,19,-1
 569 -278 l 1,20,21
 601 -314 601 -314 630.5 -331 c 128,-1,22
 660 -348 660 -348 700 -348 c 0,23,24
 716 -348 716 -348 728.5 -344 c 128,-1,25
 741 -340 741 -340 750.5 -332.5 c 128,-1,26
 760 -325 760 -325 765.5 -313 c 128,-1,27
 771 -301 771 -301 771 -287 c 256,28,29
 771 -273 771 -273 764 -262.5 c 128,-1,30
 757 -252 757 -252 748 -245.5 c 128,-1,31
 739 -239 739 -239 722 -230 c 1,32,-1
 613 -162 l 1,33,-1
 654 -13 l 1,34,35
 383 3 383 3 235 194 c 128,-1,36
 87 385 87 385 87 722 c 0,37,38
 87 965 87 965 163.5 1135.5 c 128,-1,39
 240 1306 240 1306 386 1394 c 128,-1,40
 532 1482 532 1482 738 1482 c 0,41,42
 969 1482 969 1482 1140 1372 c 1,43,-1
 1103 1204 l 1,44,-1
 1083 1200 l 1,45,46
 929 1328 929 1328 729 1328 c 0,47,48
 511 1328 511 1328 394.5 1178 c 128,-1,49
 278 1028 278 1028 278 738 c 0,50,51
 278 447 278 447 394.5 293.5 c 128,-1,52
 511 140 511 140 725 140 c 0,0,1
EndSplineSet
Position2: "'cpsp' Capital Spacing lookup 0 subtable" dx=16 dy=0 dh=33 dv=0
EndChar

StartChar: Egrave
Encoding: 200 200 138
Width: 1105
GlyphClass: 2
Flags: W
AnchorPoint: "Anchor-1" 644 0 basechar 0
AnchorPoint: "Anchor-0" 628 1470 basechar 0
LayerCount: 2
Fore
SplineSet
851 1663 m 1,0,-1
 828 1654 l 1,1,2
 578 1759 578 1759 381 1851 c 1,3,-1
 376 1869 l 1,4,-1
 422 1977 l 1,5,-1
 442 1981 l 1,6,7
 642 1864 642 1864 883 1746 c 1,8,-1
 851 1663 l 1,0,-1
1042 160 m 1,9,-1
 1053 142 l 1,10,-1
 1039 0 l 1,11,-1
 213 0 l 1,12,-1
 225 442 l 1,13,-1
 213 1471 l 1,14,-1
 1042 1471 l 1,15,-1
 1053 1452 l 1,16,-1
 1037 1309 l 1,17,-1
 690 1317 l 1,18,-1
 399 1312 l 1,19,-1
 394 830 l 1,20,-1
 670 825 l 1,21,-1
 913 832 l 1,22,-1
 924 816 l 1,23,-1
 911 674 l 1,24,-1
 654 679 l 1,25,-1
 392 676 l 1,26,-1
 390 459 l 1,27,-1
 396 153 l 1,28,-1
 690 151 l 1,29,-1
 1042 160 l 1,9,-1
EndSplineSet
Position2: "'cpsp' Capital Spacing lookup 0 subtable" dx=16 dy=0 dh=33 dv=0
EndChar

StartChar: Eacute
Encoding: 201 201 139
Width: 1105
GlyphClass: 2
Flags: W
AnchorPoint: "Anchor-1" 644 0 basechar 0
AnchorPoint: "Anchor-0" 628 1470 basechar 0
LayerCount: 2
Fore
SplineSet
470 1661 m 1,0,-1
 438 1743 l 1,1,2
 668 1855 668 1855 878 1979 c 1,3,-1
 899 1975 l 1,4,-1
 945 1867 l 1,5,-1
 941 1849 l 1,6,7
 754 1762 754 1762 493 1652 c 1,8,-1
 470 1661 l 1,0,-1
1042 160 m 1,9,-1
 1053 142 l 1,10,-1
 1039 0 l 1,11,-1
 213 0 l 1,12,-1
 225 442 l 1,13,-1
 213 1471 l 1,14,-1
 1042 1471 l 1,15,-1
 1053 1452 l 1,16,-1
 1037 1309 l 1,17,-1
 690 1317 l 1,18,-1
 399 1312 l 1,19,-1
 394 830 l 1,20,-1
 670 825 l 1,21,-1
 913 832 l 1,22,-1
 924 816 l 1,23,-1
 911 674 l 1,24,-1
 654 679 l 1,25,-1
 392 676 l 1,26,-1
 390 459 l 1,27,-1
 396 153 l 1,28,-1
 690 151 l 1,29,-1
 1042 160 l 1,9,-1
EndSplineSet
Position2: "'cpsp' Capital Spacing lookup 0 subtable" dx=16 dy=0 dh=33 dv=0
EndChar

StartChar: Ecircumflex
Encoding: 202 202 140
Width: 1105
GlyphClass: 2
Flags: W
AnchorPoint: "Anchor-1" 644 0 basechar 0
AnchorPoint: "Anchor-0" 628 1470 basechar 0
LayerCount: 2
Fore
SplineSet
372 1681 m 1,0,-1
 335 1760 l 1,1,2
 491 1867 491 1867 601 1968 c 1,3,-1
 654 1968 l 1,4,5
 761 1872 761 1872 922 1760 c 1,6,-1
 886 1681 l 1,7,-1
 865 1681 l 1,8,9
 747 1753 747 1753 628 1832 c 1,10,11
 523 1761 523 1761 394 1681 c 1,12,-1
 372 1681 l 1,0,-1
1042 160 m 1,13,-1
 1053 142 l 1,14,-1
 1039 0 l 1,15,-1
 213 0 l 1,16,-1
 225 442 l 1,17,-1
 213 1471 l 1,18,-1
 1042 1471 l 1,19,-1
 1053 1452 l 1,20,-1
 1037 1309 l 1,21,-1
 690 1317 l 1,22,-1
 399 1312 l 1,23,-1
 394 830 l 1,24,-1
 670 825 l 1,25,-1
 913 832 l 1,26,-1
 924 816 l 1,27,-1
 911 674 l 1,28,-1
 654 679 l 1,29,-1
 392 676 l 1,30,-1
 390 459 l 1,31,-1
 396 153 l 1,32,-1
 690 151 l 1,33,-1
 1042 160 l 1,13,-1
EndSplineSet
Position2: "'cpsp' Capital Spacing lookup 0 subtable" dx=16 dy=0 dh=33 dv=0
EndChar

StartChar: Edieresis
Encoding: 203 203 141
Width: 1105
GlyphClass: 2
Flags: W
AnchorPoint: "Anchor-1" 644 0 basechar 0
AnchorPoint: "Anchor-0" 628 1470 basechar 0
LayerCount: 2
Fore
SplineSet
447 1707 m 0,0,1
 401 1707 401 1707 376 1734 c 128,-1,2
 351 1761 351 1761 351 1808 c 0,3,4
 351 1854 351 1854 379 1882.5 c 128,-1,5
 407 1911 407 1911 455 1911 c 0,6,7
 499 1911 499 1911 525 1885 c 128,-1,8
 551 1859 551 1859 551 1814 c 0,9,10
 551 1766 551 1766 522.5 1736.5 c 128,-1,11
 494 1707 494 1707 447 1707 c 0,0,1
808 1707 m 256,12,13
 777 1707 777 1707 755 1719.5 c 128,-1,14
 733 1732 733 1732 722 1754.5 c 128,-1,15
 711 1777 711 1777 711 1808 c 0,16,17
 711 1854 711 1854 739 1882.5 c 128,-1,18
 767 1911 767 1911 814 1911 c 0,19,20
 859 1911 859 1911 885 1885 c 128,-1,21
 911 1859 911 1859 911 1814 c 0,22,23
 911 1783 911 1783 898.5 1758.5 c 128,-1,24
 886 1734 886 1734 862.5 1720.5 c 128,-1,25
 839 1707 839 1707 808 1707 c 256,12,13
1042 160 m 1,26,-1
 1053 142 l 1,27,-1
 1039 0 l 1,28,-1
 213 0 l 1,29,-1
 225 442 l 1,30,-1
 213 1471 l 1,31,-1
 1042 1471 l 1,32,-1
 1053 1452 l 1,33,-1
 1037 1309 l 1,34,-1
 690 1317 l 1,35,-1
 399 1312 l 1,36,-1
 394 830 l 1,37,-1
 670 825 l 1,38,-1
 913 832 l 1,39,-1
 924 816 l 1,40,-1
 911 674 l 1,41,-1
 654 679 l 1,42,-1
 392 676 l 1,43,-1
 390 459 l 1,44,-1
 396 153 l 1,45,-1
 690 151 l 1,46,-1
 1042 160 l 1,26,-1
EndSplineSet
Position2: "'cpsp' Capital Spacing lookup 0 subtable" dx=16 dy=0 dh=33 dv=0
EndChar

StartChar: Igrave
Encoding: 204 204 142
Width: 613
GlyphClass: 2
Flags: W
AnchorPoint: "Anchor-1" 0 0 basechar 0
AnchorPoint: "Anchor-0" 306 1470 basechar 0
LayerCount: 2
Fore
SplineSet
101 1977 m 1,0,-1
 122 1981 l 1,1,2
 321 1864 321 1864 562 1746 c 1,3,-1
 530 1663 l 1,4,-1
 507 1654 l 1,5,6
 247 1764 247 1764 59 1851 c 1,7,-1
 55 1869 l 1,8,-1
 101 1977 l 1,0,-1
390 459 m 1,9,-1
 399 0 l 1,10,-1
 213 0 l 1,11,-1
 225 442 l 1,12,-1
 213 1471 l 1,13,-1
 401 1471 l 1,14,-1
 390 459 l 1,9,-1
EndSplineSet
Position2: "'cpsp' Capital Spacing lookup 0 subtable" dx=16 dy=0 dh=33 dv=0
EndChar

StartChar: Iacute
Encoding: 205 205 143
Width: 613
GlyphClass: 2
Flags: W
AnchorPoint: "Anchor-1" 0 0 basechar 0
AnchorPoint: "Anchor-0" 306 1470 basechar 0
LayerCount: 2
Fore
SplineSet
576 1975 m 1,0,-1
 622 1867 l 1,1,-1
 617 1849 l 1,2,3
 420 1757 420 1757 170 1652 c 1,4,-1
 147 1661 l 1,5,-1
 114 1743 l 1,6,7
 351 1858 351 1858 556 1979 c 1,8,-1
 576 1975 l 1,0,-1
390 459 m 1,9,-1
 399 0 l 1,10,-1
 213 0 l 1,11,-1
 225 442 l 1,12,-1
 213 1471 l 1,13,-1
 401 1471 l 1,14,-1
 390 459 l 1,9,-1
EndSplineSet
Position2: "'cpsp' Capital Spacing lookup 0 subtable" dx=16 dy=0 dh=33 dv=0
EndChar

StartChar: Icircumflex
Encoding: 206 206 144
Width: 613
GlyphClass: 2
Flags: W
AnchorPoint: "Anchor-1" 0 0 basechar 0
AnchorPoint: "Anchor-0" 306 1470 basechar 0
LayerCount: 2
Fore
SplineSet
50 1681 m 1,0,-1
 13 1760 l 1,1,2
 170 1867 170 1867 280 1968 c 1,3,-1
 333 1968 l 1,4,5
 436 1876 436 1876 601 1760 c 1,6,-1
 564 1681 l 1,7,-1
 543 1681 l 1,8,9
 425 1753 425 1753 307 1832 c 1,10,11
 186 1751 186 1751 74 1681 c 1,12,-1
 50 1681 l 1,0,-1
390 459 m 1,13,-1
 399 0 l 1,14,-1
 213 0 l 1,15,-1
 225 442 l 1,16,-1
 213 1471 l 1,17,-1
 401 1471 l 1,18,-1
 390 459 l 1,13,-1
EndSplineSet
Position2: "'cpsp' Capital Spacing lookup 0 subtable" dx=16 dy=0 dh=33 dv=0
EndChar

StartChar: Idieresis
Encoding: 207 207 145
Width: 613
GlyphClass: 2
Flags: W
AnchorPoint: "Anchor-1" 0 0 basechar 0
AnchorPoint: "Anchor-0" 306 1470 basechar 0
LayerCount: 2
Fore
SplineSet
165 1911 m 0,0,1
 209 1911 209 1911 235 1885 c 128,-1,2
 261 1859 261 1859 261 1814 c 0,3,4
 261 1766 261 1766 233 1736.5 c 128,-1,5
 205 1707 205 1707 158 1707 c 0,6,7
 112 1707 112 1707 87 1734 c 128,-1,8
 62 1761 62 1761 62 1807.5 c 128,-1,9
 62 1854 62 1854 89.5 1882.5 c 128,-1,10
 117 1911 117 1911 165 1911 c 0,0,1
459 1911 m 0,11,12
 504 1911 504 1911 530 1885 c 128,-1,13
 556 1859 556 1859 556 1814 c 0,14,15
 556 1766 556 1766 527.5 1736.5 c 128,-1,16
 499 1707 499 1707 451 1707 c 0,17,18
 429 1707 429 1707 410.5 1714 c 128,-1,19
 392 1721 392 1721 380 1734 c 128,-1,20
 368 1747 368 1747 361.5 1766 c 128,-1,21
 355 1785 355 1785 355 1808 c 0,22,23
 355 1854 355 1854 383.5 1882.5 c 128,-1,24
 412 1911 412 1911 459 1911 c 0,11,12
390 459 m 1,25,-1
 399 0 l 1,26,-1
 213 0 l 1,27,-1
 225 442 l 1,28,-1
 213 1471 l 1,29,-1
 401 1471 l 1,30,-1
 390 459 l 1,25,-1
EndSplineSet
Ligature2: "'liga' Standard Ligatures lookup 30 subtable" dieresis I
Position2: "'cpsp' Capital Spacing lookup 0 subtable" dx=16 dy=0 dh=33 dv=0
EndChar

StartChar: Eth
Encoding: 208 208 146
Width: 1532
GlyphClass: 2
Flags: W
AnchorPoint: "Anchor-1" 0 0 basechar 0
AnchorPoint: "Anchor-0" 770 1470 basechar 0
LayerCount: 2
Fore
SplineSet
264 1471 m 1,0,-1
 794 1480 l 1,1,2
 1109 1480 1109 1480 1277 1301 c 128,-1,3
 1445 1122 1445 1122 1445 786 c 0,4,5
 1445 400 1445 400 1262.5 193.5 c 128,-1,6
 1080 -13 1080 -13 741 -13 c 0,7,8
 673 -13 673 -13 514 -9 c 128,-1,9
 355 -5 355 -5 264 0 c 1,10,-1
 261 0 l 1,11,-1
 276 442 l 1,12,-1
 273 679 l 1,13,-1
 37 679 l 1,14,-1
 28 696 l 1,15,-1
 35 810 l 1,16,-1
 271 810 l 1,17,-1
 261 1471 l 1,18,-1
 264 1471 l 1,0,-1
771 140 m 0,19,20
 1006 140 1006 140 1131.5 292 c 128,-1,21
 1257 444 1257 444 1257 748 c 0,22,23
 1257 1326 1257 1326 782 1326 c 0,24,25
 631 1326 631 1326 447 1317 c 1,26,-1
 442 810 l 1,27,-1
 775 810 l 1,28,-1
 784 794 l 1,29,-1
 777 679 l 1,30,-1
 442 679 l 1,31,-1
 440 459 l 1,32,-1
 445 153 l 1,33,34
 609 140 609 140 771 140 c 0,19,20
EndSplineSet
Position2: "'cpsp' Capital Spacing lookup 0 subtable" dx=16 dy=0 dh=33 dv=0
EndChar

StartChar: Ntilde
Encoding: 209 209 147
Width: 1565
GlyphClass: 2
Flags: W
AnchorPoint: "Anchor-1" 775 0 basechar 0
AnchorPoint: "Anchor-0" 777 1470 basechar 0
LayerCount: 2
Fore
SplineSet
1138 1891 m 1,0,-1
 1138 1872 l 1,1,-1
 998 1714 l 1,2,-1
 974 1707 l 1,3,4
 927 1711 927 1711 788 1751 c 128,-1,5
 649 1791 649 1791 619 1791 c 0,6,7
 609 1791 609 1791 598.5 1786 c 128,-1,8
 588 1781 588 1781 575 1769 c 128,-1,9
 562 1757 562 1757 551.5 1746.5 c 128,-1,10
 541 1736 541 1736 522 1716 c 128,-1,11
 503 1696 503 1696 491 1683 c 1,12,-1
 470 1683 l 1,13,-1
 416 1743 l 1,14,-1
 416 1760 l 1,15,-1
 556 1917 l 1,16,-1
 578 1924 l 1,17,18
 626 1919 626 1919 765.5 1880.5 c 128,-1,19
 905 1842 905 1842 934 1842 c 0,20,21
 944 1842 944 1842 954.5 1847 c 128,-1,22
 965 1852 965 1852 978 1863.5 c 128,-1,23
 991 1875 991 1875 1002 1885.5 c 128,-1,24
 1013 1896 1013 1896 1031.5 1915.5 c 128,-1,25
 1050 1935 1050 1935 1064 1948 c 1,26,-1
 1083 1948 l 1,27,-1
 1138 1891 l 1,0,-1
1342 431 m 1,28,-1
 1346 0 l 1,29,-1
 1154 0 l 1,30,-1
 396 1177 l 1,31,-1
 381 1177 l 1,32,-1
 379 484 l 1,33,-1
 388 0 l 1,34,-1
 213 0 l 1,35,-1
 225 436 l 1,36,-1
 218 1471 l 1,37,-1
 411 1471 l 1,38,-1
 1169 293 l 1,39,-1
 1184 293 l 1,40,-1
 1182 1462 l 1,41,-1
 1355 1475 l 1,42,-1
 1342 431 l 1,28,-1
EndSplineSet
Position2: "'cpsp' Capital Spacing lookup 0 subtable" dx=16 dy=0 dh=33 dv=0
EndChar

StartChar: Ograve
Encoding: 210 210 148
Width: 1456
GlyphClass: 2
Flags: W
AnchorPoint: "Anchor-1" 0 0 basechar 0
AnchorPoint: "Anchor-0" 731 1470 basechar 0
LayerCount: 2
Fore
SplineSet
523 1977 m 1,0,-1
 543 1981 l 1,1,2
 737 1867 737 1867 984 1746 c 1,3,-1
 952 1663 l 1,4,-1
 928 1654 l 1,5,6
 679 1759 679 1759 482 1851 c 1,7,-1
 477 1869 l 1,8,-1
 523 1977 l 1,0,-1
748 1484 m 0,9,10
 1049 1484 1049 1484 1210.5 1297.5 c 128,-1,11
 1372 1111 1372 1111 1372 764 c 0,12,13
 1372 389 1372 389 1200 185.5 c 128,-1,14
 1028 -18 1028 -18 711 -18 c 0,15,16
 412 -18 412 -18 249.5 175 c 128,-1,17
 87 368 87 368 87 722 c 0,18,19
 87 1090 87 1090 258.5 1287 c 128,-1,20
 430 1484 430 1484 748 1484 c 0,9,10
731 1333 m 0,21,22
 503 1333 503 1333 389.5 1187 c 128,-1,23
 276 1041 276 1041 276 746 c 0,24,25
 276 437 276 437 387 286.5 c 128,-1,26
 498 136 498 136 722 136 c 0,27,28
 1182 136 1182 136 1182 731 c 0,29,30
 1182 1036 1182 1036 1070 1184.5 c 128,-1,31
 958 1333 958 1333 731 1333 c 0,21,22
EndSplineSet
Position2: "'cpsp' Capital Spacing lookup 0 subtable" dx=16 dy=0 dh=33 dv=0
EndChar

StartChar: Oacute
Encoding: 211 211 149
Width: 1456
GlyphClass: 2
Flags: W
AnchorPoint: "Anchor-1" 0 0 basechar 0
AnchorPoint: "Anchor-0" 731 1470 basechar 0
LayerCount: 2
Fore
SplineSet
1000 1975 m 1,0,-1
 1046 1867 l 1,1,-1
 1042 1849 l 1,2,3
 854 1761 854 1761 594 1652 c 1,4,-1
 571 1661 l 1,5,-1
 539 1743 l 1,6,7
 769 1855 769 1855 979 1979 c 1,8,-1
 1000 1975 l 1,0,-1
748 1484 m 0,9,10
 1049 1484 1049 1484 1210.5 1297.5 c 128,-1,11
 1372 1111 1372 1111 1372 764 c 0,12,13
 1372 389 1372 389 1200 185.5 c 128,-1,14
 1028 -18 1028 -18 711 -18 c 0,15,16
 412 -18 412 -18 249.5 175 c 128,-1,17
 87 368 87 368 87 722 c 0,18,19
 87 1090 87 1090 258.5 1287 c 128,-1,20
 430 1484 430 1484 748 1484 c 0,9,10
731 1333 m 0,21,22
 503 1333 503 1333 389.5 1187 c 128,-1,23
 276 1041 276 1041 276 746 c 0,24,25
 276 437 276 437 387 286.5 c 128,-1,26
 498 136 498 136 722 136 c 0,27,28
 1182 136 1182 136 1182 731 c 0,29,30
 1182 1036 1182 1036 1070 1184.5 c 128,-1,31
 958 1333 958 1333 731 1333 c 0,21,22
EndSplineSet
Position2: "'cpsp' Capital Spacing lookup 0 subtable" dx=16 dy=0 dh=33 dv=0
EndChar

StartChar: Ocircumflex
Encoding: 212 212 150
Width: 1456
GlyphClass: 2
Flags: W
AnchorPoint: "Anchor-1" 0 0 basechar 0
AnchorPoint: "Anchor-0" 731 1470 basechar 0
LayerCount: 2
Fore
SplineSet
473 1681 m 1,0,-1
 436 1760 l 1,1,2
 592 1867 592 1867 702 1968 c 1,3,-1
 755 1968 l 1,4,5
 862 1872 862 1872 1023 1760 c 1,6,-1
 987 1681 l 1,7,-1
 965 1681 l 1,8,9
 847 1753 847 1753 729 1832 c 1,10,11
 624 1761 624 1761 495 1681 c 1,12,-1
 473 1681 l 1,0,-1
748 1484 m 0,13,14
 1049 1484 1049 1484 1210.5 1297.5 c 128,-1,15
 1372 1111 1372 1111 1372 764 c 0,16,17
 1372 389 1372 389 1200 185.5 c 128,-1,18
 1028 -18 1028 -18 711 -18 c 0,19,20
 412 -18 412 -18 249.5 175 c 128,-1,21
 87 368 87 368 87 722 c 0,22,23
 87 1090 87 1090 258.5 1287 c 128,-1,24
 430 1484 430 1484 748 1484 c 0,13,14
731 1333 m 0,25,26
 503 1333 503 1333 389.5 1187 c 128,-1,27
 276 1041 276 1041 276 746 c 0,28,29
 276 437 276 437 387 286.5 c 128,-1,30
 498 136 498 136 722 136 c 0,31,32
 1182 136 1182 136 1182 731 c 0,33,34
 1182 1036 1182 1036 1070 1184.5 c 128,-1,35
 958 1333 958 1333 731 1333 c 0,25,26
EndSplineSet
Position2: "'cpsp' Capital Spacing lookup 0 subtable" dx=16 dy=0 dh=33 dv=0
EndChar

StartChar: Otilde
Encoding: 213 213 151
Width: 1456
GlyphClass: 2
Flags: W
AnchorPoint: "Anchor-1" 0 0 basechar 0
AnchorPoint: "Anchor-0" 731 1470 basechar 0
LayerCount: 2
Fore
SplineSet
1092 1891 m 1,0,-1
 1092 1872 l 1,1,-1
 952 1714 l 1,2,-1
 928 1707 l 1,3,4
 881 1711 881 1711 742 1751 c 128,-1,5
 603 1791 603 1791 573 1791 c 0,6,7
 563 1791 563 1791 552.5 1786 c 128,-1,8
 542 1781 542 1781 529 1769 c 128,-1,9
 516 1757 516 1757 505.5 1746.5 c 128,-1,10
 495 1736 495 1736 476 1716 c 128,-1,11
 457 1696 457 1696 445 1683 c 1,12,-1
 424 1683 l 1,13,-1
 370 1743 l 1,14,-1
 370 1760 l 1,15,-1
 510 1917 l 1,16,-1
 532 1924 l 1,17,18
 580 1919 580 1919 719.5 1880.5 c 128,-1,19
 859 1842 859 1842 888 1842 c 0,20,21
 898 1842 898 1842 908.5 1847 c 128,-1,22
 919 1852 919 1852 932 1863.5 c 128,-1,23
 945 1875 945 1875 956 1885.5 c 128,-1,24
 967 1896 967 1896 985.5 1915.5 c 128,-1,25
 1004 1935 1004 1935 1018 1948 c 1,26,-1
 1037 1948 l 1,27,-1
 1092 1891 l 1,0,-1
748 1484 m 0,28,29
 1049 1484 1049 1484 1210.5 1297.5 c 128,-1,30
 1372 1111 1372 1111 1372 764 c 0,31,32
 1372 389 1372 389 1200 185.5 c 128,-1,33
 1028 -18 1028 -18 711 -18 c 0,34,35
 412 -18 412 -18 249.5 175 c 128,-1,36
 87 368 87 368 87 722 c 0,37,38
 87 1090 87 1090 258.5 1287 c 128,-1,39
 430 1484 430 1484 748 1484 c 0,28,29
731 1333 m 0,40,41
 503 1333 503 1333 389.5 1187 c 128,-1,42
 276 1041 276 1041 276 746 c 0,43,44
 276 437 276 437 387 286.5 c 128,-1,45
 498 136 498 136 722 136 c 0,46,47
 1182 136 1182 136 1182 731 c 0,48,49
 1182 1036 1182 1036 1070 1184.5 c 128,-1,50
 958 1333 958 1333 731 1333 c 0,40,41
EndSplineSet
Position2: "'cpsp' Capital Spacing lookup 0 subtable" dx=16 dy=0 dh=33 dv=0
EndChar

StartChar: Odieresis
Encoding: 214 214 152
Width: 1456
GlyphClass: 2
Flags: W
AnchorPoint: "Anchor-1" 0 0 basechar 0
AnchorPoint: "Anchor-0" 731 1470 basechar 0
LayerCount: 2
Fore
SplineSet
558 1911 m 0,0,1
 602 1911 602 1911 628 1885 c 128,-1,2
 654 1859 654 1859 654 1814 c 0,3,4
 654 1766 654 1766 626 1736.5 c 128,-1,5
 598 1707 598 1707 551 1707 c 0,6,7
 505 1707 505 1707 480 1734 c 128,-1,8
 455 1761 455 1761 455 1807.5 c 128,-1,9
 455 1854 455 1854 482.5 1882.5 c 128,-1,10
 510 1911 510 1911 558 1911 c 0,0,1
917 1911 m 0,11,12
 962 1911 962 1911 988 1885 c 128,-1,13
 1014 1859 1014 1859 1014 1814 c 0,14,15
 1014 1766 1014 1766 986 1736.5 c 128,-1,16
 958 1707 958 1707 911 1707 c 0,17,18
 880 1707 880 1707 858.5 1719.5 c 128,-1,19
 837 1732 837 1732 825.5 1754.5 c 128,-1,20
 814 1777 814 1777 814 1808 c 0,21,22
 814 1854 814 1854 842 1882.5 c 128,-1,23
 870 1911 870 1911 917 1911 c 0,11,12
748 1484 m 0,24,25
 1049 1484 1049 1484 1210.5 1297.5 c 128,-1,26
 1372 1111 1372 1111 1372 764 c 0,27,28
 1372 389 1372 389 1200 185.5 c 128,-1,29
 1028 -18 1028 -18 711 -18 c 0,30,31
 412 -18 412 -18 249.5 175 c 128,-1,32
 87 368 87 368 87 722 c 0,33,34
 87 1090 87 1090 258.5 1287 c 128,-1,35
 430 1484 430 1484 748 1484 c 0,24,25
731 1333 m 0,36,37
 503 1333 503 1333 389.5 1187 c 128,-1,38
 276 1041 276 1041 276 746 c 0,39,40
 276 437 276 437 387 286.5 c 128,-1,41
 498 136 498 136 722 136 c 0,42,43
 1182 136 1182 136 1182 731 c 0,44,45
 1182 1036 1182 1036 1070 1184.5 c 128,-1,46
 958 1333 958 1333 731 1333 c 0,36,37
EndSplineSet
Ligature2: "'liga' Standard Ligatures lookup 30 subtable" dieresis O
Position2: "'cpsp' Capital Spacing lookup 0 subtable" dx=16 dy=0 dh=33 dv=0
EndChar

StartChar: multiply
Encoding: 215 215 153
Width: 1100
GlyphClass: 2
Flags: W
LayerCount: 2
Fore
SplineSet
924 913 m 1,0,-1
 924 890 l 1,1,-1
 642 608 l 1,2,-1
 924 326 l 1,3,-1
 924 305 l 1,4,-1
 838 230 l 1,5,-1
 551 516 l 1,6,-1
 261 230 l 1,7,-1
 177 305 l 1,8,-1
 177 324 l 1,9,-1
 461 608 l 1,10,-1
 177 890 l 1,11,-1
 177 913 l 1,12,-1
 261 987 l 1,13,-1
 551 700 l 1,14,-1
 838 987 l 1,15,-1
 924 913 l 1,0,-1
EndSplineSet
EndChar

StartChar: Oslash
Encoding: 216 216 154
Width: 1456
GlyphClass: 2
Flags: W
AnchorPoint: "Anchor-1" 0 0 basechar 0
AnchorPoint: "Anchor-0" 726 1472 basechar 0
LayerCount: 2
Fore
SplineSet
1202 1596 m 1,0,-1
 1105 1390 l 1,1,2
 1237 1304 1237 1304 1304.5 1145.5 c 128,-1,3
 1372 987 1372 987 1372 764 c 0,4,5
 1372 389 1372 389 1200 185.5 c 128,-1,6
 1028 -18 1028 -18 711 -18 c 0,7,8
 568 -18 568 -18 466 22 c 1,9,-1
 344 -234 l 1,10,-1
 232 -195 l 1,11,-1
 223 -177 l 1,12,-1
 346 87 l 1,13,14
 218 176 218 176 152.5 336.5 c 128,-1,15
 87 497 87 497 87 722 c 0,16,17
 87 1090 87 1090 258.5 1287 c 128,-1,18
 430 1484 430 1484 748 1484 c 0,19,20
 876 1484 876 1484 982 1449 c 1,21,-1
 1081 1661 l 1,22,-1
 1191 1620 l 1,23,-1
 1202 1596 l 1,0,-1
276 746 m 0,24,25
 276 395 276 395 420 248 c 1,26,-1
 913 1303 l 1,27,28
 834 1333 834 1333 731 1333 c 0,29,30
 503 1333 503 1333 389.5 1187 c 128,-1,31
 276 1041 276 1041 276 746 c 0,24,25
722 136 m 0,32,33
 1182 136 1182 136 1182 731 c 0,34,35
 1182 1085 1182 1085 1030 1230 c 1,36,-1
 532 170 l 1,37,38
 617 136 617 136 722 136 c 0,32,33
EndSplineSet
Position2: "'cpsp' Capital Spacing lookup 0 subtable" dx=16 dy=0 dh=33 dv=0
EndChar

StartChar: Ugrave
Encoding: 217 217 155
Width: 1435
GlyphClass: 2
Flags: W
AnchorPoint: "Anchor-1" 0 0 basechar 0
AnchorPoint: "Anchor-0" 722 1470 basechar 0
LayerCount: 2
Fore
SplineSet
516 1977 m 1,0,-1
 536 1981 l 1,1,2
 736 1864 736 1864 977 1746 c 1,3,-1
 945 1663 l 1,4,-1
 922 1654 l 1,5,6
 672 1759 672 1759 475 1851 c 1,7,-1
 470 1869 l 1,8,-1
 516 1977 l 1,0,-1
1261 722 m 1,9,-1
 1259 558 l 1,10,11
 1264 285 1264 285 1118 134.5 c 128,-1,12
 972 -16 972 -16 702 -16 c 0,13,14
 441 -16 441 -16 303 128 c 128,-1,15
 165 272 165 272 170 536 c 1,16,-1
 172 736 l 1,17,-1
 170 1471 l 1,18,-1
 351 1471 l 1,19,-1
 342 560 l 2,20,21
 340 354 340 354 435 249 c 128,-1,22
 530 144 530 144 716 144 c 0,23,24
 839 144 839 144 922.5 187.5 c 128,-1,25
 1006 231 1006 231 1049 319 c 128,-1,26
 1092 407 1092 407 1092 536 c 1,27,-1
 1083 1471 l 1,28,-1
 1266 1471 l 1,29,-1
 1261 722 l 1,9,-1
EndSplineSet
Position2: "'cpsp' Capital Spacing lookup 0 subtable" dx=16 dy=0 dh=33 dv=0
EndChar

StartChar: Uacute
Encoding: 218 218 156
Width: 1435
GlyphClass: 2
Flags: W
AnchorPoint: "Anchor-1" 0 0 basechar 0
AnchorPoint: "Anchor-0" 722 1470 basechar 0
LayerCount: 2
Fore
SplineSet
993 1975 m 1,0,-1
 1039 1867 l 1,1,-1
 1035 1849 l 1,2,3
 848 1762 848 1762 587 1652 c 1,4,-1
 564 1661 l 1,5,-1
 532 1743 l 1,6,7
 762 1855 762 1855 972 1979 c 1,8,-1
 993 1975 l 1,0,-1
1261 722 m 1,9,-1
 1259 558 l 1,10,11
 1264 285 1264 285 1118 134.5 c 128,-1,12
 972 -16 972 -16 702 -16 c 0,13,14
 441 -16 441 -16 303 128 c 128,-1,15
 165 272 165 272 170 536 c 1,16,-1
 172 736 l 1,17,-1
 170 1471 l 1,18,-1
 351 1471 l 1,19,-1
 342 560 l 2,20,21
 340 354 340 354 435 249 c 128,-1,22
 530 144 530 144 716 144 c 0,23,24
 839 144 839 144 922.5 187.5 c 128,-1,25
 1006 231 1006 231 1049 319 c 128,-1,26
 1092 407 1092 407 1092 536 c 1,27,-1
 1083 1471 l 1,28,-1
 1266 1471 l 1,29,-1
 1261 722 l 1,9,-1
EndSplineSet
Position2: "'cpsp' Capital Spacing lookup 0 subtable" dx=16 dy=0 dh=33 dv=0
EndChar

StartChar: Ucircumflex
Encoding: 219 219 157
Width: 1435
GlyphClass: 2
Flags: W
AnchorPoint: "Anchor-1" 0 0 basechar 0
AnchorPoint: "Anchor-0" 722 1470 basechar 0
LayerCount: 2
Fore
SplineSet
466 1681 m 1,0,-1
 429 1760 l 1,1,2
 585 1867 585 1867 696 1968 c 1,3,-1
 748 1968 l 1,4,5
 855 1872 855 1872 1016 1760 c 1,6,-1
 979 1681 l 1,7,-1
 959 1681 l 1,8,9
 841 1753 841 1753 722 1832 c 1,10,11
 617 1761 617 1761 488 1681 c 1,12,-1
 466 1681 l 1,0,-1
1261 722 m 1,13,-1
 1259 558 l 1,14,15
 1264 285 1264 285 1118 134.5 c 128,-1,16
 972 -16 972 -16 702 -16 c 0,17,18
 441 -16 441 -16 303 128 c 128,-1,19
 165 272 165 272 170 536 c 1,20,-1
 172 736 l 1,21,-1
 170 1471 l 1,22,-1
 351 1471 l 1,23,-1
 342 560 l 2,24,25
 340 354 340 354 435 249 c 128,-1,26
 530 144 530 144 716 144 c 0,27,28
 839 144 839 144 922.5 187.5 c 128,-1,29
 1006 231 1006 231 1049 319 c 128,-1,30
 1092 407 1092 407 1092 536 c 1,31,-1
 1083 1471 l 1,32,-1
 1266 1471 l 1,33,-1
 1261 722 l 1,13,-1
EndSplineSet
Position2: "'cpsp' Capital Spacing lookup 0 subtable" dx=16 dy=0 dh=33 dv=0
EndChar

StartChar: Udieresis
Encoding: 220 220 158
Width: 1435
GlyphClass: 2
Flags: W
AnchorPoint: "Anchor-1" 0 0 basechar 0
AnchorPoint: "Anchor-0" 722 1470 basechar 0
LayerCount: 2
Fore
SplineSet
548 1911 m 0,0,1
 592 1911 592 1911 618 1885 c 128,-1,2
 644 1859 644 1859 644 1814 c 0,3,4
 644 1766 644 1766 616 1736.5 c 128,-1,5
 588 1707 588 1707 541 1707 c 0,6,7
 495 1707 495 1707 470 1734 c 128,-1,8
 445 1761 445 1761 445 1807.5 c 128,-1,9
 445 1854 445 1854 472.5 1882.5 c 128,-1,10
 500 1911 500 1911 548 1911 c 0,0,1
908 1911 m 0,11,12
 953 1911 953 1911 979 1885 c 128,-1,13
 1005 1859 1005 1859 1005 1814 c 0,14,15
 1005 1783 1005 1783 992.5 1758.5 c 128,-1,16
 980 1734 980 1734 956.5 1720.5 c 128,-1,17
 933 1707 933 1707 902 1707 c 256,18,19
 871 1707 871 1707 849.5 1719.5 c 128,-1,20
 828 1732 828 1732 816.5 1754.5 c 128,-1,21
 805 1777 805 1777 805 1808 c 0,22,23
 805 1854 805 1854 833 1882.5 c 128,-1,24
 861 1911 861 1911 908 1911 c 0,11,12
1261 722 m 1,25,-1
 1259 558 l 1,26,27
 1264 285 1264 285 1118 134.5 c 128,-1,28
 972 -16 972 -16 702 -16 c 0,29,30
 441 -16 441 -16 303 128 c 128,-1,31
 165 272 165 272 170 536 c 1,32,-1
 172 736 l 1,33,-1
 170 1471 l 1,34,-1
 351 1471 l 1,35,-1
 342 560 l 2,36,37
 340 354 340 354 435 249 c 128,-1,38
 530 144 530 144 716 144 c 0,39,40
 839 144 839 144 922.5 187.5 c 128,-1,41
 1006 231 1006 231 1049 319 c 128,-1,42
 1092 407 1092 407 1092 536 c 1,43,-1
 1083 1471 l 1,44,-1
 1266 1471 l 1,45,-1
 1261 722 l 1,25,-1
EndSplineSet
Position2: "'cpsp' Capital Spacing lookup 0 subtable" dx=16 dy=0 dh=33 dv=0
EndChar

StartChar: Yacute
Encoding: 221 221 159
Width: 1210
GlyphClass: 2
Flags: W
AnchorPoint: "Anchor-1" 0 0 basechar 0
AnchorPoint: "Anchor-0" 591 1470 basechar 0
LayerCount: 2
Fore
SplineSet
431 1661 m 1,0,-1
 399 1743 l 1,1,2
 635 1858 635 1858 840 1979 c 1,3,-1
 860 1975 l 1,4,-1
 906 1867 l 1,5,-1
 902 1849 l 1,6,7
 705 1757 705 1757 455 1652 c 1,8,-1
 431 1661 l 1,0,-1
668 429 m 1,9,-1
 676 0 l 1,10,-1
 491 0 l 1,11,-1
 503 429 l 1,12,-1
 500 530 l 1,13,-1
 35 1471 l 1,14,-1
 232 1471 l 1,15,-1
 261 1388 l 1,16,-1
 582 727 l 1,17,-1
 601 727 l 1,18,-1
 952 1383 l 1,19,-1
 987 1471 l 1,20,-1
 1182 1471 l 1,21,-1
 670 523 l 1,22,-1
 668 429 l 1,9,-1
EndSplineSet
Ligature2: "'liga' Standard Ligatures lookup 30 subtable" acute Y
Position2: "'cpsp' Capital Spacing lookup 0 subtable" dx=16 dy=0 dh=33 dv=0
EndChar

StartChar: Thorn
Encoding: 222 222 160
Width: 1204
GlyphClass: 2
Flags: W
LayerCount: 2
Fore
SplineSet
399 1215 m 1,0,-1
 668 1217 l 1,1,2
 885 1217 885 1217 1002 1106 c 128,-1,3
 1119 995 1119 995 1119 784 c 0,4,5
 1119 619 1119 619 1055 503 c 128,-1,6
 991 387 991 387 867.5 327 c 128,-1,7
 744 267 744 267 569 267 c 1,8,-1
 394 264 l 1,9,-1
 399 0 l 1,10,-1
 216 0 l 1,11,-1
 223 442 l 1,12,-1
 216 1471 l 1,13,-1
 401 1471 l 1,14,-1
 399 1215 l 1,0,-1
392 418 m 1,15,-1
 635 413 l 1,16,17
 928 467 928 467 928 771 c 0,18,19
 928 1055 928 1055 626 1068 c 1,20,-1
 396 1062 l 1,21,-1
 392 459 l 1,22,-1
 392 418 l 1,15,-1
EndSplineSet
Position2: "'cpsp' Capital Spacing lookup 0 subtable" dx=16 dy=0 dh=33 dv=0
EndChar

StartChar: germandbls
Encoding: 223 223 161
Width: 1291
GlyphClass: 2
Flags: W
LayerCount: 2
Fore
SplineSet
810 849 m 0,0,1
 810 805 810 805 829.5 767.5 c 128,-1,2
 849 730 849 730 881.5 703 c 128,-1,3
 914 676 914 676 955.5 649 c 128,-1,4
 997 622 997 622 1040.5 599 c 128,-1,5
 1084 576 1084 576 1125.5 545 c 128,-1,6
 1167 514 1167 514 1199.5 481.5 c 128,-1,7
 1232 449 1232 449 1251.5 402 c 128,-1,8
 1271 355 1271 355 1271 300 c 0,9,10
 1271 236 1271 236 1245.5 178.5 c 128,-1,11
 1220 121 1220 121 1173.5 77 c 128,-1,12
 1127 33 1127 33 1055 7.5 c 128,-1,13
 983 -18 983 -18 895 -18 c 0,14,15
 731 -18 731 -18 591 57 c 1,16,-1
 617 213 l 1,17,-1
 635 227 l 1,18,19
 677 190 677 190 723.5 164 c 128,-1,20
 770 138 770 138 816.5 125 c 128,-1,21
 863 112 863 112 908 112 c 0,22,23
 998 112 998 112 1051.5 158 c 128,-1,24
 1105 204 1105 204 1105 271 c 0,25,26
 1105 309 1105 309 1085.5 342.5 c 128,-1,27
 1066 376 1066 376 1033 401 c 128,-1,28
 1000 426 1000 426 958.5 452.5 c 128,-1,29
 917 479 917 479 873.5 503 c 128,-1,30
 830 527 830 527 788.5 559.5 c 128,-1,31
 747 592 747 592 714.5 626.5 c 128,-1,32
 682 661 682 661 662 711 c 128,-1,33
 642 761 642 761 642 819 c 0,34,35
 642 869 642 869 657 911.5 c 128,-1,36
 672 954 672 954 696.5 984 c 128,-1,37
 721 1014 721 1014 750.5 1041.5 c 128,-1,38
 780 1069 780 1069 809 1095 c 128,-1,39
 838 1121 838 1121 862.5 1148.5 c 128,-1,40
 887 1176 887 1176 902 1214 c 128,-1,41
 917 1252 917 1252 917 1296 c 0,42,43
 917 1386 917 1386 858 1434 c 128,-1,44
 799 1482 799 1482 696 1482 c 0,45,46
 564 1482 564 1482 491.5 1404 c 128,-1,47
 419 1326 419 1326 418 1177 c 2,48,-1
 409 455 l 1,49,-1
 420 0 l 1,50,-1
 239 0 l 1,51,-1
 252 436 l 1,52,-1
 248 926 l 1,53,-1
 90 926 l 1,54,-1
 81 941 l 1,55,-1
 92 1048 l 1,56,-1
 245 1048 l 1,57,-1
 245 1158 l 2,58,59
 245 1376 245 1376 367.5 1495.5 c 128,-1,60
 490 1615 490 1615 702 1615 c 0,61,62
 878 1615 878 1615 973 1535 c 128,-1,63
 1068 1455 1068 1455 1068 1319 c 0,64,65
 1068 1269 1068 1269 1054 1224.5 c 128,-1,66
 1040 1180 1040 1180 1017 1148 c 128,-1,67
 994 1116 994 1116 966.5 1087 c 128,-1,68
 939 1058 939 1058 911.5 1031.5 c 128,-1,69
 884 1005 884 1005 861 978.5 c 128,-1,70
 838 952 838 952 824 919 c 128,-1,71
 810 886 810 886 810 849 c 0,0,1
EndSplineSet
Substitution2: "Single Substitution lookup 41 subtable" germandbls.calt
Substitution2: "'case' Case-Sensitive Forms lookup 28 subtable" Germandbls
Substitution2: "'aalt' Access All Alternates lookup 0 subtable" Germandbls
EndChar

StartChar: agrave
Encoding: 224 224 162
Width: 1059
GlyphClass: 2
Flags: W
AnchorPoint: "Anchor-1" 0 0 basechar 0
AnchorPoint: "Anchor-0" 511 1050 basechar 0
LayerCount: 2
Fore
SplineSet
346 1596 m 1,0,-1
 367 1598 l 1,1,2
 523 1445 523 1445 744 1266 c 1,3,-1
 692 1193 l 1,4,-1
 672 1191 l 1,5,6
 520 1297 520 1297 282 1482 c 1,7,-1
 278 1500 l 1,8,-1
 346 1596 l 1,0,-1
530 1068 m 0,9,10
 677 1068 677 1068 764 995 c 128,-1,11
 851 922 851 922 851 794 c 0,12,13
 851 754 851 754 836 511 c 128,-1,14
 821 268 821 268 821 227 c 0,15,16
 821 178 821 178 837.5 158 c 128,-1,17
 854 138 854 138 895 138 c 0,18,19
 928 138 928 138 970 151 c 1,20,-1
 989 136 l 1,21,-1
 972 32 l 1,22,23
 903 -7 903 -7 842 -13 c 1,24,25
 770 -7 770 -7 728 36.5 c 128,-1,26
 686 80 686 80 681 156 c 1,27,-1
 668 156 l 1,28,29
 545 30 545 30 422 -16 c 1,30,31
 269 -16 269 -16 182.5 61 c 128,-1,32
 96 138 96 138 96 271 c 0,33,34
 96 373 96 373 150 432 c 128,-1,35
 204 491 204 491 309 516 c 2,36,-1
 681 604 l 1,37,-1
 683 753 l 1,38,39
 683 843 683 843 636 891 c 128,-1,40
 589 939 589 939 503 939 c 0,41,42
 351 939 351 939 179 786 c 1,43,-1
 160 796 l 1,44,-1
 136 926 l 1,45,46
 330 1068 330 1068 530 1068 c 0,9,10
679 486 m 1,47,-1
 346 405 l 2,48,49
 315 397 315 397 296.5 384.5 c 128,-1,50
 278 372 278 372 268.5 350 c 128,-1,51
 259 328 259 328 259 296 c 0,52,53
 259 221 259 221 301 178.5 c 128,-1,54
 343 136 343 136 413 136 c 0,55,56
 480 136 480 136 542.5 176.5 c 128,-1,57
 605 217 605 217 672 298 c 1,58,-1
 679 486 l 1,47,-1
EndSplineSet
Substitution2: "'case' Case-Sensitive Forms lookup 28 subtable" Agrave
Substitution2: "'aalt' Access All Alternates lookup 0 subtable" Agrave
EndChar

StartChar: aacute
Encoding: 225 225 163
Width: 1059
GlyphClass: 2
Flags: W
AnchorPoint: "Anchor-1" 0 0 basechar 0
AnchorPoint: "Anchor-0" 511 1050 basechar 0
LayerCount: 2
Fore
SplineSet
738 1596 m 1,0,-1
 808 1500 l 1,1,-1
 803 1482 l 1,2,3
 566 1297 566 1297 413 1191 c 1,4,-1
 392 1193 l 1,5,-1
 342 1266 l 1,6,7
 562 1445 562 1445 718 1598 c 1,8,-1
 738 1596 l 1,0,-1
530 1068 m 0,9,10
 677 1068 677 1068 764 995 c 128,-1,11
 851 922 851 922 851 794 c 0,12,13
 851 754 851 754 836 511 c 128,-1,14
 821 268 821 268 821 227 c 0,15,16
 821 178 821 178 837.5 158 c 128,-1,17
 854 138 854 138 895 138 c 0,18,19
 928 138 928 138 970 151 c 1,20,-1
 989 136 l 1,21,-1
 972 32 l 1,22,23
 903 -7 903 -7 842 -13 c 1,24,25
 770 -7 770 -7 728 36.5 c 128,-1,26
 686 80 686 80 681 156 c 1,27,-1
 668 156 l 1,28,29
 545 30 545 30 422 -16 c 1,30,31
 269 -16 269 -16 182.5 61 c 128,-1,32
 96 138 96 138 96 271 c 0,33,34
 96 373 96 373 150 432 c 128,-1,35
 204 491 204 491 309 516 c 2,36,-1
 681 604 l 1,37,-1
 683 753 l 1,38,39
 683 843 683 843 636 891 c 128,-1,40
 589 939 589 939 503 939 c 0,41,42
 351 939 351 939 179 786 c 1,43,-1
 160 796 l 1,44,-1
 136 926 l 1,45,46
 330 1068 330 1068 530 1068 c 0,9,10
679 486 m 1,47,-1
 346 405 l 2,48,49
 315 397 315 397 296.5 384.5 c 128,-1,50
 278 372 278 372 268.5 350 c 128,-1,51
 259 328 259 328 259 296 c 0,52,53
 259 221 259 221 301 178.5 c 128,-1,54
 343 136 343 136 413 136 c 0,55,56
 480 136 480 136 542.5 176.5 c 128,-1,57
 605 217 605 217 672 298 c 1,58,-1
 679 486 l 1,47,-1
EndSplineSet
Substitution2: "'case' Case-Sensitive Forms lookup 28 subtable" Aacute
Substitution2: "'aalt' Access All Alternates lookup 0 subtable" Aacute
EndChar

StartChar: acircumflex
Encoding: 226 226 164
Width: 1059
GlyphClass: 2
Flags: W
AnchorPoint: "Anchor-1" 0 0 basechar 0
AnchorPoint: "Anchor-0" 511 1050 basechar 0
LayerCount: 2
Fore
SplineSet
256 1200 m 1,0,-1
 206 1273 l 1,1,2
 338 1406 338 1406 486 1580 c 1,3,-1
 541 1580 l 1,4,5
 684 1405 684 1405 819 1273 c 1,6,-1
 768 1200 l 1,7,-1
 748 1200 l 1,8,9
 597 1343 597 1343 514 1438 c 1,10,11
 437 1352 437 1352 280 1200 c 1,12,-1
 256 1200 l 1,0,-1
530 1068 m 0,13,14
 677 1068 677 1068 764 995 c 128,-1,15
 851 922 851 922 851 794 c 0,16,17
 851 754 851 754 836 511 c 128,-1,18
 821 268 821 268 821 227 c 0,19,20
 821 178 821 178 837.5 158 c 128,-1,21
 854 138 854 138 895 138 c 0,22,23
 928 138 928 138 970 151 c 1,24,-1
 989 136 l 1,25,-1
 972 32 l 1,26,27
 903 -7 903 -7 842 -13 c 1,28,29
 770 -7 770 -7 728 36.5 c 128,-1,30
 686 80 686 80 681 156 c 1,31,-1
 668 156 l 1,32,33
 545 30 545 30 422 -16 c 1,34,35
 269 -16 269 -16 182.5 61 c 128,-1,36
 96 138 96 138 96 271 c 0,37,38
 96 373 96 373 150 432 c 128,-1,39
 204 491 204 491 309 516 c 2,40,-1
 681 604 l 1,41,-1
 683 753 l 1,42,43
 683 843 683 843 636 891 c 128,-1,44
 589 939 589 939 503 939 c 0,45,46
 351 939 351 939 179 786 c 1,47,-1
 160 796 l 1,48,-1
 136 926 l 1,49,50
 330 1068 330 1068 530 1068 c 0,13,14
679 486 m 1,51,-1
 346 405 l 2,52,53
 315 397 315 397 296.5 384.5 c 128,-1,54
 278 372 278 372 268.5 350 c 128,-1,55
 259 328 259 328 259 296 c 0,56,57
 259 221 259 221 301 178.5 c 128,-1,58
 343 136 343 136 413 136 c 0,59,60
 480 136 480 136 542.5 176.5 c 128,-1,61
 605 217 605 217 672 298 c 1,62,-1
 679 486 l 1,51,-1
EndSplineSet
Substitution2: "'case' Case-Sensitive Forms lookup 28 subtable" Acircumflex
Substitution2: "'aalt' Access All Alternates lookup 0 subtable" Acircumflex
EndChar

StartChar: atilde
Encoding: 227 227 165
Width: 1059
GlyphClass: 2
Flags: W
AnchorPoint: "Anchor-1" 0 0 basechar 0
AnchorPoint: "Anchor-0" 511 1050 basechar 0
LayerCount: 2
Fore
SplineSet
871 1473 m 1,0,-1
 871 1454 l 1,1,-1
 731 1296 l 1,2,-1
 709 1289 l 1,3,4
 661 1294 661 1294 521.5 1334 c 128,-1,5
 382 1374 382 1374 353 1374 c 0,6,7
 341 1374 341 1374 325.5 1364 c 128,-1,8
 310 1354 310 1354 298.5 1342.5 c 128,-1,9
 287 1331 287 1331 263.5 1305.5 c 128,-1,10
 240 1280 240 1280 225 1266 c 1,11,-1
 204 1266 l 1,12,-1
 149 1326 l 1,13,-1
 149 1342 l 1,14,-1
 289 1500 l 1,15,-1
 312 1508 l 1,16,17
 360 1502 360 1502 499.5 1463.5 c 128,-1,18
 639 1425 639 1425 668 1425 c 0,19,20
 678 1425 678 1425 688.5 1429.5 c 128,-1,21
 699 1434 699 1434 712 1445.5 c 128,-1,22
 725 1457 725 1457 736 1467.5 c 128,-1,23
 747 1478 747 1478 766 1497.5 c 128,-1,24
 785 1517 785 1517 799 1530 c 1,25,-1
 816 1530 l 1,26,-1
 871 1473 l 1,0,-1
530 1068 m 0,27,28
 677 1068 677 1068 764 995 c 128,-1,29
 851 922 851 922 851 794 c 0,30,31
 851 754 851 754 836 511 c 128,-1,32
 821 268 821 268 821 227 c 0,33,34
 821 178 821 178 837.5 158 c 128,-1,35
 854 138 854 138 895 138 c 0,36,37
 928 138 928 138 970 151 c 1,38,-1
 989 136 l 1,39,-1
 972 32 l 1,40,41
 903 -7 903 -7 842 -13 c 1,42,43
 770 -7 770 -7 728 36.5 c 128,-1,44
 686 80 686 80 681 156 c 1,45,-1
 668 156 l 1,46,47
 545 30 545 30 422 -16 c 1,48,49
 269 -16 269 -16 182.5 61 c 128,-1,50
 96 138 96 138 96 271 c 0,51,52
 96 373 96 373 150 432 c 128,-1,53
 204 491 204 491 309 516 c 2,54,-1
 681 604 l 1,55,-1
 683 753 l 1,56,57
 683 843 683 843 636 891 c 128,-1,58
 589 939 589 939 503 939 c 0,59,60
 351 939 351 939 179 786 c 1,61,-1
 160 796 l 1,62,-1
 136 926 l 1,63,64
 330 1068 330 1068 530 1068 c 0,27,28
679 486 m 1,65,-1
 346 405 l 2,66,67
 315 397 315 397 296.5 384.5 c 128,-1,68
 278 372 278 372 268.5 350 c 128,-1,69
 259 328 259 328 259 296 c 0,70,71
 259 221 259 221 301 178.5 c 128,-1,72
 343 136 343 136 413 136 c 0,73,74
 480 136 480 136 542.5 176.5 c 128,-1,75
 605 217 605 217 672 298 c 1,76,-1
 679 486 l 1,65,-1
EndSplineSet
Substitution2: "'case' Case-Sensitive Forms lookup 28 subtable" Atilde
Substitution2: "'aalt' Access All Alternates lookup 0 subtable" Atilde
EndChar

StartChar: adieresis
Encoding: 228 228 166
Width: 1059
GlyphClass: 2
Flags: W
AnchorPoint: "Anchor-1" 0 0 basechar 0
AnchorPoint: "Anchor-0" 511 1050 basechar 0
LayerCount: 2
Fore
SplineSet
337 1493 m 0,0,1
 382 1493 382 1493 407.5 1467 c 128,-1,2
 433 1441 433 1441 433 1397 c 0,3,4
 433 1348 433 1348 405.5 1318.5 c 128,-1,5
 378 1289 378 1289 330 1289 c 0,6,7
 285 1289 285 1289 259.5 1316 c 128,-1,8
 234 1343 234 1343 234 1390 c 0,9,10
 234 1421 234 1421 246.5 1444 c 128,-1,11
 259 1467 259 1467 282.5 1480 c 128,-1,12
 306 1493 306 1493 337 1493 c 0,0,1
698 1493 m 0,13,14
 742 1493 742 1493 768 1467 c 128,-1,15
 794 1441 794 1441 794 1397 c 0,16,17
 794 1348 794 1348 765.5 1318.5 c 128,-1,18
 737 1289 737 1289 690 1289 c 0,19,20
 672 1289 672 1289 656.5 1293.5 c 128,-1,21
 641 1298 641 1298 629.5 1307 c 128,-1,22
 618 1316 618 1316 610 1328 c 128,-1,23
 602 1340 602 1340 598 1355.5 c 128,-1,24
 594 1371 594 1371 594 1390 c 0,25,26
 594 1436 594 1436 622 1464.5 c 128,-1,27
 650 1493 650 1493 698 1493 c 0,13,14
530 1068 m 0,28,29
 677 1068 677 1068 764 995 c 128,-1,30
 851 922 851 922 851 794 c 0,31,32
 851 754 851 754 836 511 c 128,-1,33
 821 268 821 268 821 227 c 0,34,35
 821 178 821 178 837.5 158 c 128,-1,36
 854 138 854 138 895 138 c 0,37,38
 928 138 928 138 970 151 c 1,39,-1
 989 136 l 1,40,-1
 972 32 l 1,41,42
 903 -7 903 -7 842 -13 c 1,43,44
 770 -7 770 -7 728 36.5 c 128,-1,45
 686 80 686 80 681 156 c 1,46,-1
 668 156 l 1,47,48
 545 30 545 30 422 -16 c 1,49,50
 269 -16 269 -16 182.5 61 c 128,-1,51
 96 138 96 138 96 271 c 0,52,53
 96 373 96 373 150 432 c 128,-1,54
 204 491 204 491 309 516 c 2,55,-1
 681 604 l 1,56,-1
 683 753 l 1,57,58
 683 843 683 843 636 891 c 128,-1,59
 589 939 589 939 503 939 c 0,60,61
 351 939 351 939 179 786 c 1,62,-1
 160 796 l 1,63,-1
 136 926 l 1,64,65
 330 1068 330 1068 530 1068 c 0,28,29
679 486 m 1,66,-1
 346 405 l 2,67,68
 315 397 315 397 296.5 384.5 c 128,-1,69
 278 372 278 372 268.5 350 c 128,-1,70
 259 328 259 328 259 296 c 0,71,72
 259 221 259 221 301 178.5 c 128,-1,73
 343 136 343 136 413 136 c 0,74,75
 480 136 480 136 542.5 176.5 c 128,-1,76
 605 217 605 217 672 298 c 1,77,-1
 679 486 l 1,66,-1
EndSplineSet
Substitution2: "'case' Case-Sensitive Forms lookup 28 subtable" Adieresis
Substitution2: "'aalt' Access All Alternates lookup 0 subtable" Adieresis
EndChar

StartChar: aring
Encoding: 229 229 167
Width: 1059
GlyphClass: 2
Flags: W
AnchorPoint: "Anchor-1" 0 0 basechar 0
AnchorPoint: "Anchor-0" 511 1050 basechar 0
LayerCount: 2
Fore
SplineSet
511.5 1598 m 128,-1,1
 602 1598 602 1598 652 1546.5 c 128,-1,2
 702 1495 702 1495 702 1413 c 0,3,4
 702 1353 702 1353 675.5 1308.5 c 128,-1,5
 649 1264 649 1264 605 1242.5 c 128,-1,6
 561 1221 561 1221 505 1221 c 0,7,8
 451 1221 451 1221 409 1242 c 128,-1,9
 367 1263 367 1263 342 1305.5 c 128,-1,10
 317 1348 317 1348 317 1408 c 0,11,12
 317 1494 317 1494 369 1546 c 128,-1,0
 421 1598 421 1598 511.5 1598 c 128,-1,1
507 1510 m 0,13,14
 458 1510 458 1510 430.5 1484 c 128,-1,15
 403 1458 403 1458 403 1411 c 0,16,17
 403 1361 403 1361 432.5 1334 c 128,-1,18
 462 1307 462 1307 510 1307 c 0,19,20
 556 1307 556 1307 584.5 1332.5 c 128,-1,21
 613 1358 613 1358 613 1405.5 c 128,-1,22
 613 1453 613 1453 586 1481.5 c 128,-1,23
 559 1510 559 1510 507 1510 c 0,13,14
530 1068 m 0,24,25
 677 1068 677 1068 764 995 c 128,-1,26
 851 922 851 922 851 794 c 0,27,28
 851 754 851 754 836 511 c 128,-1,29
 821 268 821 268 821 227 c 0,30,31
 821 178 821 178 837.5 158 c 128,-1,32
 854 138 854 138 895 138 c 0,33,34
 928 138 928 138 970 151 c 1,35,-1
 989 136 l 1,36,-1
 972 32 l 1,37,38
 903 -7 903 -7 842 -13 c 1,39,40
 770 -7 770 -7 728 36.5 c 128,-1,41
 686 80 686 80 681 156 c 1,42,-1
 668 156 l 1,43,44
 545 30 545 30 422 -16 c 1,45,46
 269 -16 269 -16 182.5 61 c 128,-1,47
 96 138 96 138 96 271 c 0,48,49
 96 373 96 373 150 432 c 128,-1,50
 204 491 204 491 309 516 c 2,51,-1
 681 604 l 1,52,-1
 683 753 l 1,53,54
 683 843 683 843 636 891 c 128,-1,55
 589 939 589 939 503 939 c 0,56,57
 351 939 351 939 179 786 c 1,58,-1
 160 796 l 1,59,-1
 136 926 l 1,60,61
 330 1068 330 1068 530 1068 c 0,24,25
679 486 m 1,62,-1
 346 405 l 2,63,64
 315 397 315 397 296.5 384.5 c 128,-1,65
 278 372 278 372 268.5 350 c 128,-1,66
 259 328 259 328 259 296 c 0,67,68
 259 221 259 221 301 178.5 c 128,-1,69
 343 136 343 136 413 136 c 0,70,71
 480 136 480 136 542.5 176.5 c 128,-1,72
 605 217 605 217 672 298 c 1,73,-1
 679 486 l 1,62,-1
EndSplineSet
Substitution2: "'case' Case-Sensitive Forms lookup 28 subtable" Aring
Substitution2: "'aalt' Access All Alternates lookup 0 subtable" Aring
EndChar

StartChar: ae
Encoding: 230 230 168
Width: 1554
GlyphClass: 2
Flags: W
AnchorPoint: "Anchor-1" 0 0 basechar 0
AnchorPoint: "Anchor-0" 786 1050 basechar 0
LayerCount: 2
Fore
SplineSet
1124 1066 m 0,0,1
 1206 1066 1206 1066 1273.5 1039 c 128,-1,2
 1341 1012 1341 1012 1390 959.5 c 128,-1,3
 1439 907 1439 907 1464.5 824 c 128,-1,4
 1490 741 1490 741 1486 635 c 1,5,-1
 1466 610 l 1,6,-1
 816 500 l 1,7,8
 825 314 825 314 903.5 216.5 c 128,-1,9
 982 119 982 119 1127 119 c 0,10,11
 1200 119 1200 119 1277 147 c 128,-1,12
 1354 175 1354 175 1420 225 c 1,13,-1
 1438 216 l 1,14,-1
 1418 66 l 1,15,16
 1351 27 1351 27 1269.5 4.5 c 128,-1,17
 1188 -18 1188 -18 1112 -18 c 0,18,19
 984 -18 984 -18 889 40 c 128,-1,20
 794 98 794 98 738 208 c 1,21,22
 611 48 611 48 427 -16 c 1,23,24
 271 -16 271 -16 180.5 61 c 128,-1,25
 90 138 90 138 90 273 c 0,26,27
 90 376 90 376 144.5 441 c 128,-1,28
 199 506 199 506 302 523 c 2,29,-1
 670 585 l 1,30,-1
 670 753 l 2,31,32
 670 843 670 843 624 891 c 128,-1,33
 578 939 578 939 493 939 c 0,34,35
 355 939 355 939 175 786 c 1,36,-1
 156 796 l 1,37,-1
 129 926 l 1,38,39
 320 1068 320 1068 514 1068 c 0,40,41
 621 1068 621 1068 690.5 1024 c 128,-1,42
 760 980 760 980 790 904 c 1,43,44
 849 983 849 983 936 1024.5 c 128,-1,45
 1023 1066 1023 1066 1124 1066 c 0,0,1
1099 943 m 0,46,47
 1020 943 1020 943 955 900 c 128,-1,48
 890 857 890 857 853 783.5 c 128,-1,49
 816 710 816 710 816 624 c 2,50,-1
 816 610 l 1,51,-1
 1322 707 l 1,52,53
 1315 819 1315 819 1255 881 c 128,-1,54
 1195 943 1195 943 1099 943 c 0,46,47
416 138 m 0,55,56
 460 138 460 138 499.5 154 c 128,-1,57
 539 170 539 170 583 206.5 c 128,-1,58
 627 243 627 243 688 309 c 1,59,60
 672 420 672 420 670 475 c 1,61,-1
 370 416 l 2,62,63
 307 404 307 404 279.5 373 c 128,-1,64
 252 342 252 342 252 291 c 0,65,66
 252 241 252 241 274 206 c 128,-1,67
 296 171 296 171 332.5 154.5 c 128,-1,68
 369 138 369 138 416 138 c 0,55,56
EndSplineSet
Substitution2: "'case' Case-Sensitive Forms lookup 28 subtable" AE
Substitution2: "'aalt' Access All Alternates lookup 0 subtable" AE
EndChar

StartChar: ccedilla
Encoding: 231 231 169
Width: 882
GlyphClass: 2
Flags: W
AnchorPoint: "Anchor-1" 520 0 basechar 0
AnchorPoint: "Anchor-0" 543 1050 basechar 0
LayerCount: 2
Fore
SplineSet
564 129 m 0,0,1
 607 129 607 129 652 138 c 128,-1,2
 697 147 697 147 740.5 164.5 c 128,-1,3
 784 182 784 182 823 206 c 1,4,-1
 842 195 l 1,5,-1
 823 41 l 1,6,7
 693 -12 693 -12 573 -18 c 1,8,-1
 543 -116 l 1,9,-1
 622 -162 l 2,10,11
 709 -213 709 -213 709 -291 c 0,12,13
 709 -335 709 -335 685.5 -369.5 c 128,-1,14
 662 -404 662 -404 619.5 -423 c 128,-1,15
 577 -442 577 -442 523 -442 c 0,16,17
 424 -442 424 -442 357 -372 c 1,18,-1
 374 -280 l 1,19,-1
 385 -278 l 1,20,21
 418 -314 418 -314 447 -331 c 128,-1,22
 476 -348 476 -348 516 -348 c 0,23,24
 537 -348 537 -348 553 -341 c 128,-1,25
 569 -334 569 -334 578 -320 c 128,-1,26
 587 -306 587 -306 587 -287 c 0,27,28
 587 -273 587 -273 580 -262.5 c 128,-1,29
 573 -252 573 -252 564 -245.5 c 128,-1,30
 555 -239 555 -239 539 -230 c 2,31,-1
 429 -162 l 1,32,-1
 470 -13 l 1,33,34
 294 13 294 13 195 153 c 128,-1,35
 96 293 96 293 96 519 c 0,36,37
 96 773 96 773 220.5 920.5 c 128,-1,38
 345 1068 345 1068 562 1068 c 0,39,40
 634 1068 634 1068 710.5 1051.5 c 128,-1,41
 787 1035 787 1035 844 1007 c 1,42,-1
 812 849 l 1,43,-1
 792 842 l 1,44,45
 671 920 671 920 556 920 c 0,46,47
 466 920 466 920 401.5 873.5 c 128,-1,48
 337 827 337 827 303 738.5 c 128,-1,49
 269 650 269 650 269 528 c 0,50,51
 269 343 269 343 347.5 236 c 128,-1,52
 426 129 426 129 564 129 c 0,0,1
EndSplineSet
Substitution2: "'case' Case-Sensitive Forms lookup 28 subtable" Ccedilla
Substitution2: "'aalt' Access All Alternates lookup 0 subtable" Ccedilla
EndChar

StartChar: egrave
Encoding: 232 232 170
Width: 1036
GlyphClass: 2
Flags: W
AnchorPoint: "Anchor-1" 48 0 basechar 0
AnchorPoint: "Anchor-0" 562 1050 basechar 0
LayerCount: 2
Fore
SplineSet
744 1193 m 1,0,-1
 722 1191 l 1,1,2
 570 1297 570 1297 333 1482 c 1,3,-1
 328 1500 l 1,4,-1
 396 1596 l 1,5,-1
 418 1598 l 1,6,7
 574 1445 574 1445 794 1266 c 1,8,-1
 744 1193 l 1,0,-1
269 534 m 1,9,-1
 269 528 l 2,10,11
 269 338 269 338 348 233.5 c 128,-1,12
 427 129 427 129 582 129 c 0,13,14
 656 129 656 129 737.5 156 c 128,-1,15
 819 183 819 183 890 232 c 1,16,-1
 911 221 l 1,17,-1
 890 66 l 1,18,19
 730 -18 730 -18 571 -18 c 0,20,21
 347 -18 347 -18 221.5 125.5 c 128,-1,22
 96 269 96 269 96 519 c 0,23,24
 96 772 96 772 229 919 c 128,-1,25
 362 1066 362 1066 587 1066 c 0,26,27
 701 1066 701 1066 783 1019.5 c 128,-1,28
 865 973 865 973 908.5 884 c 128,-1,29
 952 795 952 795 952 672 c 0,30,31
 952 609 952 609 945 567 c 1,32,-1
 908 536 l 1,33,-1
 269 534 l 1,9,-1
573 939 m 0,34,35
 496 939 496 939 435.5 906 c 128,-1,36
 375 873 375 873 335.5 810 c 128,-1,37
 296 747 296 747 280 656 c 1,38,-1
 782 670 l 1,39,-1
 786 698 l 1,40,41
 786 817 786 817 729 878 c 128,-1,42
 672 939 672 939 573 939 c 0,34,35
EndSplineSet
Substitution2: "'case' Case-Sensitive Forms lookup 28 subtable" Egrave
Substitution2: "'aalt' Access All Alternates lookup 0 subtable" Egrave
EndChar

StartChar: eacute
Encoding: 233 233 171
Width: 1036
GlyphClass: 2
Flags: W
AnchorPoint: "Anchor-1" 48 0 basechar 0
AnchorPoint: "Anchor-0" 562 1050 basechar 0
LayerCount: 2
Fore
SplineSet
445 1193 m 1,0,-1
 394 1266 l 1,1,2
 615 1445 615 1445 771 1598 c 1,3,-1
 792 1596 l 1,4,-1
 860 1500 l 1,5,-1
 856 1482 l 1,6,7
 618 1297 618 1297 466 1191 c 1,8,-1
 445 1193 l 1,0,-1
269 534 m 1,9,-1
 269 528 l 2,10,11
 269 338 269 338 348 233.5 c 128,-1,12
 427 129 427 129 582 129 c 0,13,14
 656 129 656 129 737.5 156 c 128,-1,15
 819 183 819 183 890 232 c 1,16,-1
 911 221 l 1,17,-1
 890 66 l 1,18,19
 730 -18 730 -18 571 -18 c 0,20,21
 347 -18 347 -18 221.5 125.5 c 128,-1,22
 96 269 96 269 96 519 c 0,23,24
 96 772 96 772 229 919 c 128,-1,25
 362 1066 362 1066 587 1066 c 0,26,27
 701 1066 701 1066 783 1019.5 c 128,-1,28
 865 973 865 973 908.5 884 c 128,-1,29
 952 795 952 795 952 672 c 0,30,31
 952 609 952 609 945 567 c 1,32,-1
 908 536 l 1,33,-1
 269 534 l 1,9,-1
573 939 m 0,34,35
 496 939 496 939 435.5 906 c 128,-1,36
 375 873 375 873 335.5 810 c 128,-1,37
 296 747 296 747 280 656 c 1,38,-1
 782 670 l 1,39,-1
 786 698 l 1,40,41
 786 817 786 817 729 878 c 128,-1,42
 672 939 672 939 573 939 c 0,34,35
EndSplineSet
Substitution2: "'case' Case-Sensitive Forms lookup 28 subtable" Eacute
Substitution2: "'aalt' Access All Alternates lookup 0 subtable" Eacute
EndChar

StartChar: ecircumflex
Encoding: 234 234 172
Width: 1036
GlyphClass: 2
Flags: W
AnchorPoint: "Anchor-1" 48 0 basechar 0
AnchorPoint: "Anchor-0" 562 1050 basechar 0
LayerCount: 2
Fore
SplineSet
307 1200 m 1,0,-1
 256 1273 l 1,1,2
 389 1406 389 1406 536 1580 c 1,3,-1
 591 1580 l 1,4,5
 735 1405 735 1405 869 1273 c 1,6,-1
 819 1200 l 1,7,-1
 799 1200 l 1,8,9
 647 1343 647 1343 564 1438 c 1,10,11
 487 1352 487 1352 330 1200 c 1,12,-1
 307 1200 l 1,0,-1
269 534 m 1,13,-1
 269 528 l 2,14,15
 269 338 269 338 348 233.5 c 128,-1,16
 427 129 427 129 582 129 c 0,17,18
 656 129 656 129 737.5 156 c 128,-1,19
 819 183 819 183 890 232 c 1,20,-1
 911 221 l 1,21,-1
 890 66 l 1,22,23
 730 -18 730 -18 571 -18 c 0,24,25
 347 -18 347 -18 221.5 125.5 c 128,-1,26
 96 269 96 269 96 519 c 0,27,28
 96 772 96 772 229 919 c 128,-1,29
 362 1066 362 1066 587 1066 c 0,30,31
 701 1066 701 1066 783 1019.5 c 128,-1,32
 865 973 865 973 908.5 884 c 128,-1,33
 952 795 952 795 952 672 c 0,34,35
 952 609 952 609 945 567 c 1,36,-1
 908 536 l 1,37,-1
 269 534 l 1,13,-1
573 939 m 0,38,39
 496 939 496 939 435.5 906 c 128,-1,40
 375 873 375 873 335.5 810 c 128,-1,41
 296 747 296 747 280 656 c 1,42,-1
 782 670 l 1,43,-1
 786 698 l 1,44,45
 786 817 786 817 729 878 c 128,-1,46
 672 939 672 939 573 939 c 0,38,39
EndSplineSet
Substitution2: "'case' Case-Sensitive Forms lookup 28 subtable" Ecircumflex
Substitution2: "'aalt' Access All Alternates lookup 0 subtable" Ecircumflex
EndChar

StartChar: edieresis
Encoding: 235 235 173
Width: 1036
GlyphClass: 2
Flags: W
AnchorPoint: "Anchor-1" 48 0 basechar 0
AnchorPoint: "Anchor-0" 562 1050 basechar 0
LayerCount: 2
Fore
SplineSet
381 1289 m 0,0,1
 350 1289 350 1289 328.5 1301.5 c 128,-1,2
 307 1314 307 1314 295.5 1336.5 c 128,-1,3
 284 1359 284 1359 284 1390 c 0,4,5
 284 1437 284 1437 312 1465 c 128,-1,6
 340 1493 340 1493 388 1493 c 0,7,8
 432 1493 432 1493 458 1467 c 128,-1,9
 484 1441 484 1441 484 1397 c 0,10,11
 484 1348 484 1348 456 1318.5 c 128,-1,12
 428 1289 428 1289 381 1289 c 0,0,1
741 1289 m 0,13,14
 696 1289 696 1289 670 1316 c 128,-1,15
 644 1343 644 1343 644 1389.5 c 128,-1,16
 644 1436 644 1436 672.5 1464.5 c 128,-1,17
 701 1493 701 1493 748 1493 c 0,18,19
 770 1493 770 1493 788 1486 c 128,-1,20
 806 1479 806 1479 818.5 1467 c 128,-1,21
 831 1455 831 1455 837.5 1437 c 128,-1,22
 844 1419 844 1419 844 1397 c 0,23,24
 844 1365 844 1365 832 1340.5 c 128,-1,25
 820 1316 820 1316 796.5 1302.5 c 128,-1,26
 773 1289 773 1289 741 1289 c 0,13,14
269 534 m 1,27,-1
 269 528 l 2,28,29
 269 338 269 338 348 233.5 c 128,-1,30
 427 129 427 129 582 129 c 0,31,32
 656 129 656 129 737.5 156 c 128,-1,33
 819 183 819 183 890 232 c 1,34,-1
 911 221 l 1,35,-1
 890 66 l 1,36,37
 730 -18 730 -18 571 -18 c 0,38,39
 347 -18 347 -18 221.5 125.5 c 128,-1,40
 96 269 96 269 96 519 c 0,41,42
 96 772 96 772 229 919 c 128,-1,43
 362 1066 362 1066 587 1066 c 0,44,45
 701 1066 701 1066 783 1019.5 c 128,-1,46
 865 973 865 973 908.5 884 c 128,-1,47
 952 795 952 795 952 672 c 0,48,49
 952 609 952 609 945 567 c 1,50,-1
 908 536 l 1,51,-1
 269 534 l 1,27,-1
573 939 m 0,52,53
 496 939 496 939 435.5 906 c 128,-1,54
 375 873 375 873 335.5 810 c 128,-1,55
 296 747 296 747 280 656 c 1,56,-1
 782 670 l 1,57,-1
 786 698 l 1,58,59
 786 817 786 817 729 878 c 128,-1,60
 672 939 672 939 573 939 c 0,52,53
EndSplineSet
Substitution2: "'case' Case-Sensitive Forms lookup 28 subtable" Edieresis
Substitution2: "'aalt' Access All Alternates lookup 0 subtable" Edieresis
EndChar

StartChar: igrave
Encoding: 236 236 174
Width: 545
GlyphClass: 2
Flags: W
AnchorPoint: "Anchor-1" 271 0 basechar 0
AnchorPoint: "Anchor-0" 275 1050 basechar 0
LayerCount: 2
Fore
SplineSet
110 1596 m 1,0,-1
 131 1598 l 1,1,2
 287 1445 287 1445 507 1266 c 1,3,-1
 457 1193 l 1,4,-1
 436 1191 l 1,5,6
 283 1297 283 1297 46 1482 c 1,7,-1
 41 1500 l 1,8,-1
 110 1596 l 1,0,-1
351 461 m 1,9,-1
 363 0 l 1,10,-1
 181 0 l 1,11,-1
 193 445 l 1,12,-1
 184 1039 l 1,13,-1
 365 1055 l 1,14,-1
 351 461 l 1,9,-1
EndSplineSet
Substitution2: "'case' Case-Sensitive Forms lookup 28 subtable" Igrave
Substitution2: "'aalt' Access All Alternates lookup 0 subtable" Igrave
EndChar

StartChar: iacute
Encoding: 237 237 175
Width: 545
GlyphClass: 2
Flags: W
AnchorPoint: "Anchor-1" 271 0 basechar 0
AnchorPoint: "Anchor-0" 275 1050 basechar 0
LayerCount: 2
Fore
SplineSet
503 1596 m 1,0,-1
 571 1500 l 1,1,-1
 567 1482 l 1,2,3
 329 1297 329 1297 177 1191 c 1,4,-1
 156 1193 l 1,5,-1
 105 1266 l 1,6,7
 326 1445 326 1445 482 1598 c 1,8,-1
 503 1596 l 1,0,-1
351 461 m 1,9,-1
 363 0 l 1,10,-1
 181 0 l 1,11,-1
 193 445 l 1,12,-1
 184 1039 l 1,13,-1
 365 1055 l 1,14,-1
 351 461 l 1,9,-1
EndSplineSet
Substitution2: "'case' Case-Sensitive Forms lookup 28 subtable" Iacute
Substitution2: "'aalt' Access All Alternates lookup 0 subtable" Iacute
EndChar

StartChar: icircumflex
Encoding: 238 238 176
Width: 545
GlyphClass: 2
Flags: W
AnchorPoint: "Anchor-1" 271 0 basechar 0
AnchorPoint: "Anchor-0" 275 1050 basechar 0
LayerCount: 2
Fore
SplineSet
20 1200 m 1,0,-1
 -30 1273 l 1,1,2
 102 1406 102 1406 250 1580 c 1,3,-1
 305 1580 l 1,4,5
 448 1405 448 1405 582 1273 c 1,6,-1
 532 1200 l 1,7,-1
 512 1200 l 1,8,9
 361 1343 361 1343 278 1438 c 1,10,11
 200 1352 200 1352 44 1200 c 1,12,-1
 20 1200 l 1,0,-1
351 461 m 1,13,-1
 363 0 l 1,14,-1
 181 0 l 1,15,-1
 193 445 l 1,16,-1
 184 1039 l 1,17,-1
 365 1055 l 1,18,-1
 351 461 l 1,13,-1
EndSplineSet
Substitution2: "'case' Case-Sensitive Forms lookup 28 subtable" Icircumflex
Substitution2: "'aalt' Access All Alternates lookup 0 subtable" Icircumflex
EndChar

StartChar: idieresis
Encoding: 239 239 177
Width: 545
GlyphClass: 2
Flags: W
AnchorPoint: "Anchor-1" 271 0 basechar 0
AnchorPoint: "Anchor-0" 275 1050 basechar 0
LayerCount: 2
Fore
SplineSet
133 1493 m 0,0,1
 178 1493 178 1493 204 1467 c 128,-1,2
 230 1441 230 1441 230 1397 c 0,3,4
 230 1348 230 1348 202 1318.5 c 128,-1,5
 174 1289 174 1289 127 1289 c 0,6,7
 96 1289 96 1289 74.5 1301.5 c 128,-1,8
 53 1314 53 1314 41.5 1336.5 c 128,-1,9
 30 1359 30 1359 30 1390 c 0,10,11
 30 1437 30 1437 58 1465 c 128,-1,12
 86 1493 86 1493 133 1493 c 0,0,1
427 1493 m 0,13,14
 471 1493 471 1493 497 1467 c 128,-1,15
 523 1441 523 1441 523 1397 c 0,16,17
 523 1348 523 1348 495 1318.5 c 128,-1,18
 467 1289 467 1289 420 1289 c 0,19,20
 374 1289 374 1289 349 1316 c 128,-1,21
 324 1343 324 1343 324 1390 c 0,22,23
 324 1421 324 1421 336 1444 c 128,-1,24
 348 1467 348 1467 371.5 1480 c 128,-1,25
 395 1493 395 1493 427 1493 c 0,13,14
351 461 m 1,26,-1
 363 0 l 1,27,-1
 181 0 l 1,28,-1
 193 445 l 1,29,-1
 184 1039 l 1,30,-1
 365 1055 l 1,31,-1
 351 461 l 1,26,-1
EndSplineSet
Ligature2: "'liga' Standard Ligatures lookup 30 subtable" dieresis i
Substitution2: "'case' Case-Sensitive Forms lookup 28 subtable" Idieresis
Substitution2: "'aalt' Access All Alternates lookup 0 subtable" Idieresis
EndChar

StartChar: eth
Encoding: 240 240 178
Width: 1121
GlyphClass: 2
Flags: W
LayerCount: 2
Fore
SplineSet
915 1473 m 1,0,-1
 681 1355 l 1,1,2
 847 1197 847 1197 932.5 996.5 c 128,-1,3
 1018 796 1018 796 1018 564 c 0,4,5
 1018 287 1018 287 897 134.5 c 128,-1,6
 776 -18 776 -18 553 -18 c 0,7,8
 413 -18 413 -18 311 44 c 128,-1,9
 209 106 209 106 154 226 c 128,-1,10
 99 346 99 346 99 514 c 0,11,12
 99 768 99 768 221 910.5 c 128,-1,13
 343 1053 343 1053 564 1053 c 0,14,15
 667 1053 667 1053 759 1018 c 1,16,17
 680 1167 680 1167 545 1285 c 1,18,-1
 267 1145 l 1,19,-1
 248 1151 l 1,20,-1
 211 1239 l 1,21,-1
 449 1357 l 1,22,23
 324 1445 324 1445 158 1514 c 1,24,-1
 158 1537 l 1,25,-1
 261 1620 l 1,26,-1
 276 1620 l 1,27,28
 463 1536 463 1536 594 1431 c 1,29,-1
 860 1567 l 1,30,-1
 876 1560 l 1,31,-1
 915 1473 l 1,0,-1
564 105 m 0,32,33
 664 105 664 105 729.5 154.5 c 128,-1,34
 795 204 795 204 827.5 303.5 c 128,-1,35
 860 403 860 403 860 553 c 0,36,37
 860 698 860 698 830 825 c 1,38,39
 718 928 718 928 573 928 c 0,40,41
 420 928 420 928 338 821.5 c 128,-1,42
 256 715 256 715 256 514 c 0,43,44
 256 314 256 314 337 209.5 c 128,-1,45
 418 105 418 105 564 105 c 0,32,33
EndSplineSet
Substitution2: "'case' Case-Sensitive Forms lookup 28 subtable" Eth
Substitution2: "'aalt' Access All Alternates lookup 0 subtable" Eth
EndChar

StartChar: ntilde
Encoding: 241 241 179
Width: 1180
GlyphClass: 2
Flags: W
AnchorPoint: "Anchor-1" 593 0 basechar 0
AnchorPoint: "Anchor-0" 623 1050 basechar 0
LayerCount: 2
Fore
SplineSet
317 1266 m 1,0,-1
 261 1326 l 1,1,-1
 261 1342 l 1,2,-1
 401 1500 l 1,3,-1
 424 1508 l 1,4,5
 472 1502 472 1502 611.5 1463.5 c 128,-1,6
 751 1425 751 1425 780 1425 c 0,7,8
 790 1425 790 1425 800.5 1429.5 c 128,-1,9
 811 1434 811 1434 824 1445.5 c 128,-1,10
 837 1457 837 1457 848 1467.5 c 128,-1,11
 859 1478 859 1478 878 1497.5 c 128,-1,12
 897 1517 897 1517 911 1530 c 1,13,-1
 928 1530 l 1,14,-1
 984 1473 l 1,15,-1
 984 1454 l 1,16,-1
 844 1296 l 1,17,-1
 821 1289 l 1,18,19
 773 1294 773 1294 634 1334 c 128,-1,20
 495 1374 495 1374 466 1374 c 0,21,22
 456 1374 456 1374 445 1369 c 128,-1,23
 434 1364 434 1364 421 1352 c 128,-1,24
 408 1340 408 1340 397.5 1329 c 128,-1,25
 387 1318 387 1318 368.5 1298.5 c 128,-1,26
 350 1279 350 1279 337 1266 c 1,27,-1
 317 1266 l 1,0,-1
830 0 m 1,28,-1
 844 713 l 2,29,30
 846 806 846 806 799.5 859.5 c 128,-1,31
 753 913 753 913 665 913 c 0,32,33
 512 913 512 913 353 750 c 1,34,-1
 353 461 l 1,35,-1
 363 0 l 1,36,-1
 181 0 l 1,37,-1
 193 445 l 1,38,-1
 184 1039 l 1,39,-1
 355 1055 l 1,40,-1
 355 902 l 1,41,-1
 370 902 l 1,42,43
 512 1028 512 1028 661 1064 c 1,44,45
 834 1064 834 1064 923.5 984 c 128,-1,46
 1013 904 1013 904 1011 755 c 2,47,-1
 1007 457 l 1,48,-1
 1016 0 l 1,49,-1
 830 0 l 1,28,-1
EndSplineSet
Substitution2: "'case' Case-Sensitive Forms lookup 28 subtable" Ntilde
Substitution2: "'aalt' Access All Alternates lookup 0 subtable" Ntilde
EndChar

StartChar: ograve
Encoding: 242 242 180
Width: 1125
GlyphClass: 2
Flags: W
AnchorPoint: "Anchor-1" 0 0 basechar 0
AnchorPoint: "Anchor-0" 564 1050 basechar 0
LayerCount: 2
Fore
SplineSet
399 1596 m 1,0,-1
 420 1598 l 1,1,2
 576 1445 576 1445 796 1266 c 1,3,-1
 746 1193 l 1,4,-1
 725 1191 l 1,5,6
 572 1297 572 1297 335 1482 c 1,7,-1
 330 1500 l 1,8,-1
 399 1596 l 1,0,-1
573 1068 m 0,9,10
 789 1068 789 1068 907 929.5 c 128,-1,11
 1025 791 1025 791 1025 539 c 0,12,13
 1025 274 1025 274 899.5 128 c 128,-1,14
 774 -18 774 -18 548 -18 c 0,15,16
 405 -18 405 -18 303.5 44 c 128,-1,17
 202 106 202 106 149 225 c 128,-1,18
 96 344 96 344 96 512 c 0,19,20
 96 776 96 776 221.5 922 c 128,-1,21
 347 1068 347 1068 573 1068 c 0,9,10
564 941 m 0,22,23
 420 941 420 941 344.5 841.5 c 128,-1,24
 269 742 269 742 269 553 c 0,25,26
 269 333 269 333 343.5 222.5 c 128,-1,27
 418 112 418 112 560 112 c 0,28,29
 705 112 705 112 780.5 209 c 128,-1,30
 856 306 856 306 856 497 c 0,31,32
 856 715 856 715 781 828 c 128,-1,33
 706 941 706 941 564 941 c 0,22,23
EndSplineSet
Substitution2: "'case' Case-Sensitive Forms lookup 28 subtable" Ograve
Substitution2: "'aalt' Access All Alternates lookup 0 subtable" Ograve
EndChar

StartChar: oacute
Encoding: 243 243 181
Width: 1125
GlyphClass: 2
Flags: W
AnchorPoint: "Anchor-1" 0 0 basechar 0
AnchorPoint: "Anchor-0" 564 1050 basechar 0
LayerCount: 2
Fore
SplineSet
792 1596 m 1,0,-1
 860 1500 l 1,1,-1
 856 1482 l 1,2,3
 618 1297 618 1297 466 1191 c 1,4,-1
 445 1193 l 1,5,-1
 394 1266 l 1,6,7
 615 1445 615 1445 771 1598 c 1,8,-1
 792 1596 l 1,0,-1
573 1068 m 0,9,10
 789 1068 789 1068 907 929.5 c 128,-1,11
 1025 791 1025 791 1025 539 c 0,12,13
 1025 274 1025 274 899.5 128 c 128,-1,14
 774 -18 774 -18 548 -18 c 0,15,16
 405 -18 405 -18 303.5 44 c 128,-1,17
 202 106 202 106 149 225 c 128,-1,18
 96 344 96 344 96 512 c 0,19,20
 96 776 96 776 221.5 922 c 128,-1,21
 347 1068 347 1068 573 1068 c 0,9,10
564 941 m 0,22,23
 420 941 420 941 344.5 841.5 c 128,-1,24
 269 742 269 742 269 553 c 0,25,26
 269 333 269 333 343.5 222.5 c 128,-1,27
 418 112 418 112 560 112 c 0,28,29
 705 112 705 112 780.5 209 c 128,-1,30
 856 306 856 306 856 497 c 0,31,32
 856 715 856 715 781 828 c 128,-1,33
 706 941 706 941 564 941 c 0,22,23
EndSplineSet
Substitution2: "'case' Case-Sensitive Forms lookup 28 subtable" Oacute
Substitution2: "'aalt' Access All Alternates lookup 0 subtable" Oacute
EndChar

StartChar: ocircumflex
Encoding: 244 244 182
Width: 1125
GlyphClass: 2
Flags: W
AnchorPoint: "Anchor-1" 0 0 basechar 0
AnchorPoint: "Anchor-0" 564 1050 basechar 0
LayerCount: 2
Fore
SplineSet
309 1200 m 1,0,-1
 259 1273 l 1,1,2
 391 1406 391 1406 539 1580 c 1,3,-1
 594 1580 l 1,4,5
 737 1405 737 1405 871 1273 c 1,6,-1
 821 1200 l 1,7,-1
 801 1200 l 1,8,9
 650 1343 650 1343 567 1438 c 1,10,11
 489 1352 489 1352 333 1200 c 1,12,-1
 309 1200 l 1,0,-1
573 1068 m 0,13,14
 789 1068 789 1068 907 929.5 c 128,-1,15
 1025 791 1025 791 1025 539 c 0,16,17
 1025 274 1025 274 899.5 128 c 128,-1,18
 774 -18 774 -18 548 -18 c 0,19,20
 405 -18 405 -18 303.5 44 c 128,-1,21
 202 106 202 106 149 225 c 128,-1,22
 96 344 96 344 96 512 c 0,23,24
 96 776 96 776 221.5 922 c 128,-1,25
 347 1068 347 1068 573 1068 c 0,13,14
564 941 m 0,26,27
 420 941 420 941 344.5 841.5 c 128,-1,28
 269 742 269 742 269 553 c 0,29,30
 269 333 269 333 343.5 222.5 c 128,-1,31
 418 112 418 112 560 112 c 0,32,33
 705 112 705 112 780.5 209 c 128,-1,34
 856 306 856 306 856 497 c 0,35,36
 856 715 856 715 781 828 c 128,-1,37
 706 941 706 941 564 941 c 0,26,27
EndSplineSet
Substitution2: "'case' Case-Sensitive Forms lookup 28 subtable" Ocircumflex
Substitution2: "'aalt' Access All Alternates lookup 0 subtable" Ocircumflex
EndChar

StartChar: otilde
Encoding: 245 245 183
Width: 1125
GlyphClass: 2
Flags: W
AnchorPoint: "Anchor-1" 0 0 basechar 0
AnchorPoint: "Anchor-0" 564 1050 basechar 0
LayerCount: 2
Fore
SplineSet
924 1473 m 1,0,-1
 924 1454 l 1,1,-1
 784 1296 l 1,2,-1
 762 1289 l 1,3,4
 714 1294 714 1294 574.5 1334 c 128,-1,5
 435 1374 435 1374 405 1374 c 0,6,7
 393 1374 393 1374 378 1364 c 128,-1,8
 363 1354 363 1354 351 1342.5 c 128,-1,9
 339 1331 339 1331 315.5 1305.5 c 128,-1,10
 292 1280 292 1280 278 1266 c 1,11,-1
 256 1266 l 1,12,-1
 202 1326 l 1,13,-1
 202 1342 l 1,14,-1
 342 1500 l 1,15,-1
 365 1508 l 1,16,17
 405 1503 405 1503 483 1482 c 128,-1,18
 561 1461 561 1461 628.5 1443 c 128,-1,19
 696 1425 696 1425 720 1425 c 0,20,21
 729 1425 729 1425 738.5 1429 c 128,-1,22
 748 1433 748 1433 756.5 1439 c 128,-1,23
 765 1445 765 1445 777 1456 c 128,-1,24
 789 1467 789 1467 798.5 1477 c 128,-1,25
 808 1487 808 1487 823.5 1502.5 c 128,-1,26
 839 1518 839 1518 851 1530 c 1,27,-1
 869 1530 l 1,28,-1
 924 1473 l 1,0,-1
573 1068 m 0,29,30
 789 1068 789 1068 907 929.5 c 128,-1,31
 1025 791 1025 791 1025 539 c 0,32,33
 1025 274 1025 274 899.5 128 c 128,-1,34
 774 -18 774 -18 548 -18 c 0,35,36
 405 -18 405 -18 303.5 44 c 128,-1,37
 202 106 202 106 149 225 c 128,-1,38
 96 344 96 344 96 512 c 0,39,40
 96 776 96 776 221.5 922 c 128,-1,41
 347 1068 347 1068 573 1068 c 0,29,30
564 941 m 0,42,43
 420 941 420 941 344.5 841.5 c 128,-1,44
 269 742 269 742 269 553 c 0,45,46
 269 333 269 333 343.5 222.5 c 128,-1,47
 418 112 418 112 560 112 c 0,48,49
 705 112 705 112 780.5 209 c 128,-1,50
 856 306 856 306 856 497 c 0,51,52
 856 715 856 715 781 828 c 128,-1,53
 706 941 706 941 564 941 c 0,42,43
EndSplineSet
Substitution2: "'case' Case-Sensitive Forms lookup 28 subtable" Otilde
Substitution2: "'aalt' Access All Alternates lookup 0 subtable" Otilde
EndChar

StartChar: odieresis
Encoding: 246 246 184
Width: 1125
GlyphClass: 2
Flags: W
AnchorPoint: "Anchor-1" 0 0 basechar 0
AnchorPoint: "Anchor-0" 564 1050 basechar 0
LayerCount: 2
Fore
SplineSet
390 1493 m 0,0,1
 434 1493 434 1493 460 1467 c 128,-1,2
 486 1441 486 1441 486 1397 c 0,3,4
 486 1348 486 1348 458 1318.5 c 128,-1,5
 430 1289 430 1289 383 1289 c 0,6,7
 337 1289 337 1289 312 1316 c 128,-1,8
 287 1343 287 1343 287 1390 c 0,9,10
 287 1421 287 1421 299 1444 c 128,-1,11
 311 1467 311 1467 334.5 1480 c 128,-1,12
 358 1493 358 1493 390 1493 c 0,0,1
750 1493 m 0,13,14
 795 1493 795 1493 821 1467 c 128,-1,15
 847 1441 847 1441 847 1397 c 0,16,17
 847 1365 847 1365 834.5 1340.5 c 128,-1,18
 822 1316 822 1316 798.5 1302.5 c 128,-1,19
 775 1289 775 1289 744 1289 c 256,20,21
 713 1289 713 1289 691.5 1301.5 c 128,-1,22
 670 1314 670 1314 658.5 1336.5 c 128,-1,23
 647 1359 647 1359 647 1390 c 0,24,25
 647 1437 647 1437 675 1465 c 128,-1,26
 703 1493 703 1493 750 1493 c 0,13,14
573 1068 m 0,27,28
 789 1068 789 1068 907 929.5 c 128,-1,29
 1025 791 1025 791 1025 539 c 0,30,31
 1025 274 1025 274 899.5 128 c 128,-1,32
 774 -18 774 -18 548 -18 c 0,33,34
 405 -18 405 -18 303.5 44 c 128,-1,35
 202 106 202 106 149 225 c 128,-1,36
 96 344 96 344 96 512 c 0,37,38
 96 776 96 776 221.5 922 c 128,-1,39
 347 1068 347 1068 573 1068 c 0,27,28
564 941 m 0,40,41
 420 941 420 941 344.5 841.5 c 128,-1,42
 269 742 269 742 269 553 c 0,43,44
 269 333 269 333 343.5 222.5 c 128,-1,45
 418 112 418 112 560 112 c 0,46,47
 705 112 705 112 780.5 209 c 128,-1,48
 856 306 856 306 856 497 c 0,49,50
 856 715 856 715 781 828 c 128,-1,51
 706 941 706 941 564 941 c 0,40,41
EndSplineSet
Ligature2: "'liga' Standard Ligatures lookup 30 subtable" dieresis o
Substitution2: "'case' Case-Sensitive Forms lookup 28 subtable" Odieresis
Substitution2: "'aalt' Access All Alternates lookup 0 subtable" Odieresis
EndChar

StartChar: divide
Encoding: 247 247 185
Width: 1100
GlyphClass: 2
Flags: W
LayerCount: 2
Fore
SplineSet
599 1114 m 0,0,1
 643 1114 643 1114 667.5 1088.5 c 128,-1,2
 692 1063 692 1063 692 1018 c 0,3,4
 692 970 692 970 664.5 941.5 c 128,-1,5
 637 913 637 913 591 913 c 0,6,7
 546 913 546 913 520.5 939.5 c 128,-1,8
 495 966 495 966 495 1011 c 0,9,10
 495 1058 495 1058 523.5 1086 c 128,-1,11
 552 1114 552 1114 599 1114 c 0,0,1
1055 659 m 1,12,-1
 1044 543 l 1,13,-1
 108 543 l 1,14,-1
 94 558 l 1,15,-1
 105 672 l 1,16,-1
 1039 672 l 1,17,-1
 1055 659 l 1,12,-1
599 309 m 0,18,19
 643 309 643 309 667.5 284 c 128,-1,20
 692 259 692 259 692 216 c 0,21,22
 692 168 692 168 664.5 139 c 128,-1,23
 637 110 637 110 591 110 c 128,-1,24
 545 110 545 110 520 136 c 128,-1,25
 495 162 495 162 495 208 c 0,26,27
 495 255 495 255 523 282 c 128,-1,28
 551 309 551 309 599 309 c 0,18,19
EndSplineSet
EndChar

StartChar: oslash
Encoding: 248 248 186
Width: 1125
GlyphClass: 2
Flags: W
AnchorPoint: "Anchor-1" 0 0 basechar 0
AnchorPoint: "Anchor-0" 562 1050 basechar 0
LayerCount: 2
Fore
SplineSet
968 1200 m 1,0,-1
 858 979 l 1,1,2
 1025 840 1025 840 1025 539 c 0,3,4
 1025 274 1025 274 899.5 128 c 128,-1,5
 774 -18 774 -18 548 -18 c 0,6,7
 453 -18 453 -18 374 9 c 1,8,-1
 236 -267 l 1,9,-1
 136 -221 l 1,10,-1
 129 -202 l 1,11,-1
 267 71 l 1,12,13
 184 136 184 136 140 248.5 c 128,-1,14
 96 361 96 361 96 512 c 0,15,16
 96 776 96 776 221.5 922 c 128,-1,17
 347 1068 347 1068 573 1068 c 0,18,19
 674 1068 674 1068 750 1039 c 1,20,-1
 862 1263 l 1,21,-1
 956 1221 l 1,22,-1
 968 1200 l 1,0,-1
269 553 m 0,23,24
 269 337 269 337 342 225 c 1,25,-1
 685 913 l 1,26,27
 631 941 631 941 564 941 c 0,28,29
 420 941 420 941 344.5 841.5 c 128,-1,30
 269 742 269 742 269 553 c 0,23,24
560 112 m 0,31,32
 705 112 705 112 780.5 209 c 128,-1,33
 856 306 856 306 856 497 c 0,34,35
 856 712 856 712 782 825 c 1,36,-1
 438 138 l 1,37,38
 495 112 495 112 560 112 c 0,31,32
EndSplineSet
Substitution2: "'case' Case-Sensitive Forms lookup 28 subtable" Oslash
Substitution2: "'aalt' Access All Alternates lookup 0 subtable" Oslash
EndChar

StartChar: ugrave
Encoding: 249 249 187
Width: 1171
GlyphClass: 2
Flags: W
AnchorPoint: "Anchor-1" 0 0 basechar 0
AnchorPoint: "Anchor-0" 586 1050 basechar 0
LayerCount: 2
Fore
SplineSet
422 1596 m 1,0,-1
 442 1598 l 1,1,2
 598 1445 598 1445 819 1266 c 1,3,-1
 768 1193 l 1,4,-1
 748 1191 l 1,5,6
 584 1305 584 1305 357 1482 c 1,7,-1
 353 1500 l 1,8,-1
 422 1596 l 1,0,-1
972 1055 m 1,9,-1
 961 225 l 2,10,11
 961 177 961 177 976.5 157.5 c 128,-1,12
 992 138 992 138 1028 138 c 0,13,14
 1063 138 1063 138 1108 151 c 1,15,-1
 1127 136 l 1,16,-1
 1108 32 l 1,17,18
 1089 21 1089 21 1068 11.5 c 128,-1,19
 1047 2 1047 2 1023 -4.5 c 128,-1,20
 999 -11 999 -11 977 -13 c 1,21,22
 907 -7 907 -7 867 35 c 128,-1,23
 827 77 827 77 819 147 c 1,24,-1
 801 147 l 1,25,26
 663 22 663 22 519 -13 c 1,27,28
 348 -13 348 -13 259.5 67 c 128,-1,29
 171 147 171 147 172 296 c 1,30,-1
 177 587 l 1,31,-1
 168 1039 l 1,32,-1
 351 1055 l 1,33,-1
 339 339 l 2,34,35
 338 245 338 245 383 192.5 c 128,-1,36
 428 140 428 140 514 140 c 0,37,38
 654 140 654 140 801 280 c 1,39,-1
 801 1039 l 1,40,-1
 972 1055 l 1,9,-1
EndSplineSet
Substitution2: "'case' Case-Sensitive Forms lookup 28 subtable" Ugrave
Substitution2: "'aalt' Access All Alternates lookup 0 subtable" Ugrave
EndChar

StartChar: uacute
Encoding: 250 250 188
Width: 1171
GlyphClass: 2
Flags: W
AnchorPoint: "Anchor-1" 0 0 basechar 0
AnchorPoint: "Anchor-0" 586 1050 basechar 0
LayerCount: 2
Fore
SplineSet
814 1596 m 1,0,-1
 883 1500 l 1,1,-1
 878 1482 l 1,2,3
 641 1297 641 1297 488 1191 c 1,4,-1
 468 1193 l 1,5,-1
 418 1266 l 1,6,7
 638 1445 638 1445 794 1598 c 1,8,-1
 814 1596 l 1,0,-1
972 1055 m 1,9,-1
 961 225 l 2,10,11
 961 177 961 177 976.5 157.5 c 128,-1,12
 992 138 992 138 1028 138 c 0,13,14
 1063 138 1063 138 1108 151 c 1,15,-1
 1127 136 l 1,16,-1
 1108 32 l 1,17,18
 1089 21 1089 21 1068 11.5 c 128,-1,19
 1047 2 1047 2 1023 -4.5 c 128,-1,20
 999 -11 999 -11 977 -13 c 1,21,22
 907 -7 907 -7 867 35 c 128,-1,23
 827 77 827 77 819 147 c 1,24,-1
 801 147 l 1,25,26
 663 22 663 22 519 -13 c 1,27,28
 348 -13 348 -13 259.5 67 c 128,-1,29
 171 147 171 147 172 296 c 1,30,-1
 177 587 l 1,31,-1
 168 1039 l 1,32,-1
 351 1055 l 1,33,-1
 339 339 l 2,34,35
 338 245 338 245 383 192.5 c 128,-1,36
 428 140 428 140 514 140 c 0,37,38
 654 140 654 140 801 280 c 1,39,-1
 801 1039 l 1,40,-1
 972 1055 l 1,9,-1
EndSplineSet
Substitution2: "'case' Case-Sensitive Forms lookup 28 subtable" Uacute
Substitution2: "'aalt' Access All Alternates lookup 0 subtable" Uacute
EndChar

StartChar: ucircumflex
Encoding: 251 251 189
Width: 1171
GlyphClass: 2
Flags: W
AnchorPoint: "Anchor-1" 0 0 basechar 0
AnchorPoint: "Anchor-0" 586 1050 basechar 0
LayerCount: 2
Fore
SplineSet
333 1200 m 1,0,-1
 282 1273 l 1,1,2
 414 1406 414 1406 562 1580 c 1,3,-1
 617 1580 l 1,4,5
 760 1405 760 1405 895 1273 c 1,6,-1
 844 1200 l 1,7,-1
 823 1200 l 1,8,9
 672 1343 672 1343 589 1438 c 1,10,11
 512 1352 512 1352 355 1200 c 1,12,-1
 333 1200 l 1,0,-1
972 1055 m 1,13,-1
 961 225 l 2,14,15
 961 177 961 177 976.5 157.5 c 128,-1,16
 992 138 992 138 1028 138 c 0,17,18
 1063 138 1063 138 1108 151 c 1,19,-1
 1127 136 l 1,20,-1
 1108 32 l 1,21,22
 1089 21 1089 21 1068 11.5 c 128,-1,23
 1047 2 1047 2 1023 -4.5 c 128,-1,24
 999 -11 999 -11 977 -13 c 1,25,26
 907 -7 907 -7 867 35 c 128,-1,27
 827 77 827 77 819 147 c 1,28,-1
 801 147 l 1,29,30
 663 22 663 22 519 -13 c 1,31,32
 348 -13 348 -13 259.5 67 c 128,-1,33
 171 147 171 147 172 296 c 1,34,-1
 177 587 l 1,35,-1
 168 1039 l 1,36,-1
 351 1055 l 1,37,-1
 339 339 l 2,38,39
 338 245 338 245 383 192.5 c 128,-1,40
 428 140 428 140 514 140 c 0,41,42
 654 140 654 140 801 280 c 1,43,-1
 801 1039 l 1,44,-1
 972 1055 l 1,13,-1
EndSplineSet
Substitution2: "'case' Case-Sensitive Forms lookup 28 subtable" Ucircumflex
Substitution2: "'aalt' Access All Alternates lookup 0 subtable" Ucircumflex
EndChar

